<svg xmlns="http://www.w3.org/2000/svg" viewBox="0 0 400 300" width="406" height="306" class="illustration styles_illustrationTablet__1DWOa"><g id="_205_bitcoin_flatline" data-name="#205_bitcoin_flatline"><path d="M100.84,74.45h198a14.82,14.82,0,0,1,14.82,14.82V210.18a0,0,0,0,1,0,0H86a0,0,0,0,1,0,0V89.27A14.82,14.82,0,0,1,100.84,74.45Z" fill="#fff"></path><path d="M313.65,210.64H86a.45.45,0,0,1-.45-.46V89.27A15.3,15.3,0,0,1,100.84,74h198a15.3,15.3,0,0,1,15.28,15.28V210.18A.46.46,0,0,1,313.65,210.64Zm-227.17-.91H313.2V89.27a14.38,14.38,0,0,0-14.37-14.36h-198A14.37,14.37,0,0,0,86.48,89.27Z" fill="#231f20"></path><path d="M299.42,210.68H100.25a.5.5,0,0,1-.5-.5V86.61a.5.5,0,0,1,.5-.5H299.42a.5.5,0,0,1,.5.5V210.18A.5.5,0,0,1,299.42,210.68Zm-198.67-1H298.92V87.11H100.75Z" fill="#d1d3d4"></path><path d="M332.63,210.7H67a.52.52,0,0,1,0-1H332.63a.52.52,0,1,1,0,1Z" fill="#231f20"></path><path d="M161.68,195.88H148.24a.5.5,0,0,1-.5-.5.5.5,0,0,1,.5-.5h12.94v-14.8a.5.5,0,0,1,.5-.5.5.5,0,0,1,.5.5v15.3A.51.51,0,0,1,161.68,195.88Z" fill="#d1d3d4"></path><path d="M262.16,210.68a.5.5,0,0,1-.5-.5V189.72H242.23a.49.49,0,0,1-.49-.47c-.19-3-.73-12.78.09-13.93a.49.49,0,0,1,.69-.12.5.5,0,0,1,.13.69c-.41.73-.29,7,.06,12.83h19.45a.5.5,0,0,1,.5.5v21A.5.5,0,0,1,262.16,210.68Z" fill="#d1d3d4"></path><path d="M173.77,206.08a2.2,2.2,0,1,1,2.19-2.2A2.21,2.21,0,0,1,173.77,206.08Zm0-3.39a1.2,1.2,0,1,0,1.19,1.19A1.2,1.2,0,0,0,173.77,202.69Z" fill="#d1d3d4"></path><path d="M195.46,213.44a.51.51,0,0,1-.5-.5V191.37a.51.51,0,0,1,.5-.5.5.5,0,0,1,.5.5v21.57A.5.5,0,0,1,195.46,213.44Z" fill="#d1d3d4"></path><path d="M236.59,210.68a.5.5,0,0,1-.5-.5V200.5h-4.74a.51.51,0,0,1-.35-.15.49.49,0,0,1-.15-.36c.06-6.23.12-15.73,0-16.36a.47.47,0,0,1,.32-.61.52.52,0,0,1,.64.34c.14.44.1,8.9,0,16.14h4.73a.5.5,0,0,1,.5.5v10.18A.5.5,0,0,1,236.59,210.68Z" fill="#d1d3d4"></path><path d="M208.28,213.44h0a.51.51,0,0,1-.49-.51c.06-8.18.11-20.58,0-21.44a.5.5,0,0,1,.26-.56.49.49,0,0,1,.67.22c.07.13.21.41.06,21.79A.51.51,0,0,1,208.28,213.44Z" fill="#d1d3d4"></path><path d="M173.77,202.83a.5.5,0,0,1-.5-.5V191.25a.5.5,0,0,1,.5-.5.51.51,0,0,1,.5.5v11.08A.5.5,0,0,1,173.77,202.83Z" fill="#d1d3d4"></path><path d="M217.8,203a.5.5,0,0,1-.5-.5v-7.79a.5.5,0,0,1,.5-.5.5.5,0,0,1,.5.5v7.79A.5.5,0,0,1,217.8,203Z" fill="#d1d3d4"></path><path d="M62.35,210.18h275a0,0,0,0,1,0,0v0a16.45,16.45,0,0,1-16.45,16.45H78.81a16.45,16.45,0,0,1-16.45-16.45v0A0,0,0,0,1,62.35,210.18Z" fill="#fff"></path><path d="M320.87,227.09H78.81A16.92,16.92,0,0,1,61.9,210.18a.45.45,0,0,1,.45-.45h275a.46.46,0,0,1,.46.45A16.93,16.93,0,0,1,320.87,227.09Zm-258-16.45a16,16,0,0,0,16,15.54H320.87a16,16,0,0,0,16-15.54Z" fill="#231f20"></path><rect x="177.54" y="210.18" width="44.59" height="4.11"></rect><path d="M161,114.89a.5.5,0,0,1-.5-.5V96.07h-12.3a.5.5,0,0,1-.5-.5.5.5,0,0,1,.5-.5H161a.5.5,0,0,1,.5.5v18.82A.5.5,0,0,1,161,114.89Z" fill="#d1d3d4"></path><circle cx="173.77" cy="203.88" r="1.69" fill="#fff"></circle><path d="M173.77,206.08a2.2,2.2,0,1,1,2.19-2.2A2.21,2.21,0,0,1,173.77,206.08Zm0-3.39a1.2,1.2,0,1,0,1.19,1.19A1.2,1.2,0,0,0,173.77,202.69Z" fill="#d1d3d4"></path><circle cx="148.24" cy="195.38" r="1.69" fill="#fff"></circle><path d="M148.24,197.57a2.2,2.2,0,1,1,2.19-2.19A2.2,2.2,0,0,1,148.24,197.57Zm0-3.39a1.2,1.2,0,1,0,0,2.39,1.2,1.2,0,0,0,0-2.39Z" fill="#d1d3d4"></path><circle cx="217.8" cy="203.88" r="1.69" fill="#fff"></circle><path d="M217.8,206.08a2.2,2.2,0,1,1,2.19-2.2A2.21,2.21,0,0,1,217.8,206.08Zm0-3.39a1.2,1.2,0,1,0,1.19,1.19A1.2,1.2,0,0,0,217.8,202.69Z" fill="#d1d3d4"></path><circle cx="146.54" cy="95.57" r="1.69" fill="#fff"></circle><path d="M146.54,97.76a2.2,2.2,0,1,1,2.2-2.19A2.19,2.19,0,0,1,146.54,97.76Zm0-3.39a1.2,1.2,0,1,0,1.2,1.2A1.2,1.2,0,0,0,146.54,94.37Z" fill="#d1d3d4"></path><circle cx="214.41" cy="92.18" r="1.69" fill="#fff"></circle><path d="M214.41,94.37a2.19,2.19,0,1,1,2.19-2.19A2.19,2.19,0,0,1,214.41,94.37Zm0-3.38a1.19,1.19,0,1,0,1.19,1.19A1.19,1.19,0,0,0,214.41,91Z" fill="#d1d3d4"></path><path d="M236.59,118.57a.5.5,0,0,1-.5-.5V100.19a.5.5,0,0,1,.5-.5h19.22V86.61a.5.5,0,0,1,.5-.5.5.5,0,0,1,.5.5v13.58a.51.51,0,0,1-.5.5H237.09v17.38A.5.5,0,0,1,236.59,118.57Z" fill="#d1d3d4"></path><path d="M224.21,109.91a.5.5,0,0,1-.5-.5V86.61a.5.5,0,0,1,.5-.5.5.5,0,0,1,.5.5v22.8A.5.5,0,0,1,224.21,109.91Z" fill="#d1d3d4"></path><path d="M175.46,108.43a.5.5,0,0,1-.5-.5V93.35h-5.22a.5.5,0,0,1-.5-.5V86.61a.5.5,0,0,1,1,0v5.74h5.22a.5.5,0,0,1,.5.5v15.08A.5.5,0,0,1,175.46,108.43Z" fill="#d1d3d4"></path><path d="M214.41,102.84a.5.5,0,0,1-.5-.5V93.87a.5.5,0,1,1,1,0v8.47A.5.5,0,0,1,214.41,102.84Z" fill="#d1d3d4"></path><path d="M191,103.66a.5.5,0,0,1-.5-.5V86.61a.5.5,0,0,1,.5-.5.5.5,0,0,1,.5.5v16.55A.5.5,0,0,1,191,103.66Z" fill="#d1d3d4"></path><path d="M205.17,99.56a.5.5,0,0,1-.5-.5V86.61a.5.5,0,0,1,.5-.5.5.5,0,0,1,.5.5V99.06A.51.51,0,0,1,205.17,99.56Z" fill="#d1d3d4"></path><circle cx="199.84" cy="148.4" r="51.6" fill="#fff"></circle><path d="M199.84,200.45a52.06,52.06,0,1,1,52-52A52.11,52.11,0,0,1,199.84,200.45Zm0-103.2A51.15,51.15,0,1,0,251,148.4,51.21,51.21,0,0,0,199.84,97.25Z" fill="#231f20"></path><path d="M199.84,189.36a41,41,0,1,1,41-41A41,41,0,0,1,199.84,189.36Zm0-80.93a40,40,0,1,0,40,40A40,40,0,0,0,199.84,108.43Z" fill="#d1d3d4"></path><path d="M205.37,114.69c0,.46,0,.92,0,1.38,0,2.74,0,5.49,0,8.23,0,.47.13.63.62.69a26.9,26.9,0,0,1,8.28,2,9.83,9.83,0,0,1,6.24,9.31,10.46,10.46,0,0,1-1.53,6.34,9.1,9.1,0,0,1-2.71,2.64c-.31.21-.63.39-1.05.64.66.22,1.24.38,1.79.59,2.64,1,4.92,2.44,6.09,5.09a13.51,13.51,0,0,1,1,3.92,16,16,0,0,1-.9,7.32,11.65,11.65,0,0,1-7.21,7.1,31.64,31.64,0,0,1-9.58,1.83c-1.22.08-1,0-1,1.08q0,4.29,0,8.56v.74h-6.23V172h-4.93V182.1H188V171.79H175.46l1.25-7.41.71,0c1.27,0,2.54,0,3.82,0a2.19,2.19,0,0,0,2.33-2.31c0-.15,0-.3,0-.46V135a3.15,3.15,0,0,0-3.35-3.47c-1.56,0-3.12,0-4.72,0V124.9H188V114.69h6.19c0,.26.05.52.05.78q0,4.22,0,8.43v.72h4.94v-9.93Zm-11,49.64c.15,0,.25,0,.36,0,2.5-.05,5,0,7.49-.19a16.26,16.26,0,0,0,6.39-1.65,5.61,5.61,0,0,0,2.62-7.43,6.8,6.8,0,0,0-4.25-3.38,26.48,26.48,0,0,0-8.44-1.1c-1.37,0-2.75,0-4.17,0Zm0-19.79c2.3-.1,4.54-.07,6.75-.33a15.38,15.38,0,0,0,4.6-1.2,5.27,5.27,0,0,0,1.54-8.7,8.53,8.53,0,0,0-4.51-2A39.18,39.18,0,0,0,195,132c-.54,0-.71.15-.71.7,0,3.71,0,7.41,0,11.12C194.35,144,194.37,144.17,194.39,144.54Z" fill="#2563eb"></path><path d="M262.88,119.81h98a0,0,0,0,1,0,0V180.6a4.67,4.67,0,0,1-4.67,4.67H267.55a4.67,4.67,0,0,1-4.67-4.67V119.81A0,0,0,0,1,262.88,119.81Z" fill="#fff"></path><path d="M356.19,185.72H267.55a5.13,5.13,0,0,1-5.13-5.12V119.81a.46.46,0,0,1,.46-.46h98a.45.45,0,0,1,.45.46V180.6A5.13,5.13,0,0,1,356.19,185.72Zm-92.85-65.46V180.6a4.22,4.22,0,0,0,4.21,4.21h88.64a4.22,4.22,0,0,0,4.21-4.21V120.26Z" fill="#231f20"></path><path d="M267.55,111.11h88.64a4.67,4.67,0,0,1,4.67,4.67v4a0,0,0,0,1,0,0h-98a0,0,0,0,1,0,0v-4A4.67,4.67,0,0,1,267.55,111.11Z" fill="#fff"></path><path d="M360.86,120.26h-98a.46.46,0,0,1-.46-.45v-4a5.13,5.13,0,0,1,5.13-5.12h88.64a5.13,5.13,0,0,1,5.12,5.12v4A.45.45,0,0,1,360.86,120.26Zm-97.52-.91H360.4v-3.57a4.22,4.22,0,0,0-4.21-4.21H267.55a4.22,4.22,0,0,0-4.21,4.21Z" fill="#231f20"></path><circle cx="269.77" cy="115.46" r="1.5" fill="#2563eb"></circle><circle cx="275.05" cy="115.46" r="1.5" fill="#d1d3d4"></circle><circle cx="280.33" cy="115.46" r="1.5" fill="#d1d3d4"></circle><path d="M353.21,130.94H294.8a.5.5,0,0,1-.5-.5.51.51,0,0,1,.5-.5h58.41a.5.5,0,0,1,.5.5A.5.5,0,0,1,353.21,130.94Z" fill="#d1d3d4"></path><path d="M353.21,142H294.8a.5.5,0,0,1,0-1h58.41a.5.5,0,0,1,0,1Z" fill="#d1d3d4"></path><path d="M353.21,153H270.53a.5.5,0,0,1-.5-.5.5.5,0,0,1,.5-.5h82.68a.5.5,0,0,1,.5.5A.5.5,0,0,1,353.21,153Z" fill="#d1d3d4"></path><path d="M353.21,164.08H270.53a.5.5,0,0,1,0-1h82.68a.5.5,0,0,1,0,1Z" fill="#d1d3d4"></path><path d="M353.21,175.13H270.53a.5.5,0,0,1-.5-.5.5.5,0,0,1,.5-.5h82.68a.5.5,0,0,1,.5.5A.5.5,0,0,1,353.21,175.13Z" fill="#d1d3d4"></path><path d="M270.53,175.08a.46.46,0,0,1-.31-.8l18.17-16a.46.46,0,0,1,.51-.06l18.6,9.68,12.42-26.34a.44.44,0,0,1,.37-.26.45.45,0,0,1,.41.17l15.68,20.33,15.08-32.17a.47.47,0,0,1,.61-.22.47.47,0,0,1,.22.61l-15.41,32.85a.43.43,0,0,1-.36.26.46.46,0,0,1-.41-.17l-15.68-20.34-12.31,26.1a.43.43,0,0,1-.27.24.42.42,0,0,1-.35,0l-18.74-9.76L270.83,175A.5.5,0,0,1,270.53,175.08Z" fill="#231f20"></path><circle cx="271.49" cy="174.01" r="2.41"></circle><circle cx="288.69" cy="158.65" r="2.41"></circle><circle cx="307.71" cy="168.55" r="2.41"></circle><circle cx="320.34" cy="141.77" r="2.41"></circle><circle cx="336.47" cy="162.7" r="2.41"></circle><circle cx="351.87" cy="129.84" r="2.41"></circle><path d="M283.6,125.86c0,.14,0,.29,0,.44q0,1.32,0,2.64c0,.15,0,.2.2.22a8.33,8.33,0,0,1,2.65.62,3.14,3.14,0,0,1,2,3,3.34,3.34,0,0,1-.49,2,2.82,2.82,0,0,1-.87.85l-.33.21.57.18a3.12,3.12,0,0,1,2,1.63,4.49,4.49,0,0,1,.32,1.26,5.18,5.18,0,0,1-.29,2.34,3.76,3.76,0,0,1-2.31,2.28,10.05,10.05,0,0,1-3.07.58c-.39,0-.32,0-.32.35,0,.91,0,1.83,0,2.74v.24h-2v-3.24H280v3.24h-2v-3.3h-4l.4-2.38h.23c.41,0,.81,0,1.22,0a.71.71,0,0,0,.75-.74v-8.65a1,1,0,0,0-1.07-1.11H274v-2.13h4v-3.27h2a2,2,0,0,1,0,.25V129h1.59v-3.18Zm-3.52,15.9h.12c.8,0,1.6,0,2.4-.06a5.11,5.11,0,0,0,2-.53,1.81,1.81,0,0,0,.84-2.38,2.22,2.22,0,0,0-1.37-1.08,8.46,8.46,0,0,0-2.7-.35h-1.34Zm0-6.34c.74,0,1.46,0,2.17-.11a4.9,4.9,0,0,0,1.47-.38,1.69,1.69,0,0,0,.49-2.79,2.73,2.73,0,0,0-1.44-.63,12.85,12.85,0,0,0-2.48-.12c-.17,0-.22.05-.22.22v3.56C280.07,135.24,280.08,135.3,280.08,135.42Z" fill="#fff"></path><path d="M280,147.91h-2a.47.47,0,0,1-.46-.46V144.6H274a.44.44,0,0,1-.35-.16.48.48,0,0,1-.1-.37l.4-2.37a.46.46,0,0,1,.43-.38h1.46c.22,0,.29-.08.31-.3l.45-.13h-.46v-8.49c0-.45-.18-.65-.62-.66H274a.47.47,0,0,1-.46-.46v-2.13a.47.47,0,0,1,.46-.46h3.53v-2.81a.46.46,0,0,1,.46-.46h2a.46.46,0,0,1,.46.42c0,.14,0,.21,0,.28v2.48h.67v-2.72a.46.46,0,0,1,.46-.46h2a.46.46,0,0,1,.46.44V126c0,.1,0,.21,0,.32v2.42a9.19,9.19,0,0,1,2.58.64,3.61,3.61,0,0,1,2.27,3.39,3.76,3.76,0,0,1-.57,2.3,3.27,3.27,0,0,1-.58.66,3.48,3.48,0,0,1,1.94,1.77,4.87,4.87,0,0,1,.35,1.39,5.66,5.66,0,0,1-.31,2.55,4.19,4.19,0,0,1-2.58,2.54,10.22,10.22,0,0,1-3.1.61v2.88a.46.46,0,0,1-.45.46h-2a.47.47,0,0,1-.46-.46v-2.78h-.66v2.78A.47.47,0,0,1,280,147.91ZM278.5,147h1.08v-2.78a.47.47,0,0,1,.46-.46h1.58a.47.47,0,0,1,.46.46V147h1.08v-2.64c0-.63.43-.66.71-.68a9.89,9.89,0,0,0,3-.56,3.28,3.28,0,0,0,2.05-2,4.82,4.82,0,0,0,.26-2.14,3.67,3.67,0,0,0-.28-1.12,2.7,2.7,0,0,0-1.69-1.39l-.35-.12-.21-.06a.44.44,0,0,1-.31-.38.48.48,0,0,1,.22-.45l.12-.07.2-.12a2.43,2.43,0,0,0,.74-.72,2.82,2.82,0,0,0,.41-1.76,2.66,2.66,0,0,0-1.72-2.58,8.35,8.35,0,0,0-2.52-.59.62.62,0,0,1-.6-.68v-2.62h-1.09V129a.46.46,0,0,1-.45.46H280a.46.46,0,0,1-.45-.46v-2.73h-1.09v2.82a.47.47,0,0,1-.46.46h-3.54l0,1.21h1.05a1.45,1.45,0,0,1,1.52,1.57V141a1.17,1.17,0,0,1-1.2,1.18h-1.07l-.25,1.47H278a.47.47,0,0,1,.46.46Zm1.71-4.76-.16,0a.49.49,0,0,1-.42-.45v-4.39a.45.45,0,0,1,.45-.46h1.35a9.14,9.14,0,0,1,2.84.37,2.66,2.66,0,0,1,1.63,1.32,2.25,2.25,0,0,1-1,3,5.46,5.46,0,0,1-2.23.58c-.57.05-1.14.05-1.71.06Zm.33-4.41v3.49h.37c.55,0,1.11,0,1.66-.05a4.49,4.49,0,0,0,1.86-.48,1.34,1.34,0,0,0,.65-1.77,1.73,1.73,0,0,0-1.1-.85,8.08,8.08,0,0,0-2.56-.33Zm-.46-1.94a.45.45,0,0,1-.45-.44l.45,0-.46-.07c0-.07,0-.12,0-.18v-1c0-.84,0-1.68,0-2.51a.63.63,0,0,1,.68-.69h.34a11.26,11.26,0,0,1,2.23.13,3.12,3.12,0,0,1,1.67.75,2.29,2.29,0,0,1,.64,2,2.09,2.09,0,0,1-1.26,1.56,5.56,5.56,0,0,1-1.61.43c-.51.06-1,.07-1.54.08l-.66,0Zm.45-4V135h.2a13.68,13.68,0,0,0,1.46-.08,4.44,4.44,0,0,0,1.34-.35,1.2,1.2,0,0,0,.74-.89,1.35,1.35,0,0,0-.37-1.15,2.28,2.28,0,0,0-1.22-.51,10.51,10.51,0,0,0-2-.12Z" fill="#231f20"></path><rect x="54.67" y="169.64" width="72.86" height="24.92" rx="4.04" fill="#fff"></rect><path d="M123.5,195H58.71a4.5,4.5,0,0,1-4.5-4.49V173.68a4.5,4.5,0,0,1,4.5-4.49H123.5a4.49,4.49,0,0,1,4.49,4.49v16.85A4.49,4.49,0,0,1,123.5,195ZM58.71,170.1a3.58,3.58,0,0,0-3.58,3.58v16.85a3.58,3.58,0,0,0,3.58,3.58H123.5a3.59,3.59,0,0,0,3.58-3.58V173.68a3.58,3.58,0,0,0-3.58-3.58Z" fill="#231f20"></path><path d="M68.85,177.12c0,2.56-.95,4-2.61,4-1.47,0-2.47-1.38-2.49-3.87s1.09-3.91,2.61-3.91S68.85,174.72,68.85,177.12Zm-4.08.12c0,1.95.6,3.06,1.52,3.06s1.54-1.21,1.54-3.13-.47-3.07-1.53-3.07C65.41,174.1,64.77,175.19,64.77,177.24Z"></path><path d="M73.15,174.39h0l-1.31.7-.2-.77,1.64-.88h.87V181h-1Z"></path><path d="M83,177.12c0,2.56-.94,4-2.61,4-1.47,0-2.47-1.38-2.49-3.87s1.09-3.91,2.62-3.91S83,174.72,83,177.12Zm-4.08.12c0,1.95.6,3.06,1.53,3.06S82,179.09,82,177.17s-.48-3.07-1.53-3.07C79.59,174.1,78.94,175.19,78.94,177.24Z"></path><path d="M90.11,177.12c0,2.56-1,4-2.61,4-1.47,0-2.47-1.38-2.49-3.87s1.09-3.91,2.61-3.91S90.11,174.72,90.11,177.12Zm-4.08.12c0,1.95.6,3.06,1.52,3.06s1.54-1.21,1.54-3.13-.47-3.07-1.52-3.07C86.67,174.1,86,175.19,86,177.24Z"></path><path d="M94.41,174.39h0l-1.31.7-.2-.77,1.65-.88h.86V181h-1Z"></path><path d="M101.5,174.39h0l-1.3.7-.2-.77,1.64-.88h.87V181h-1Z"></path><path d="M111.37,177.12c0,2.56-1,4-2.61,4-1.47,0-2.47-1.38-2.49-3.87s1.09-3.91,2.61-3.91S111.37,174.72,111.37,177.12Zm-4.08.12c0,1.95.6,3.06,1.53,3.06s1.53-1.21,1.53-3.13-.47-3.07-1.52-3.07C107.94,174.1,107.29,175.19,107.29,177.24Z"></path><path d="M118.46,177.12c0,2.56-.95,4-2.62,4-1.46,0-2.46-1.38-2.48-3.87s1.09-3.91,2.61-3.91S118.46,174.72,118.46,177.12Zm-4.08.12c0,1.95.6,3.06,1.52,3.06s1.54-1.21,1.54-3.13-.47-3.07-1.53-3.07C115,174.1,114.38,175.19,114.38,177.24Z"></path><path d="M66.06,184.2h0l-1.31.7-.19-.77,1.64-.88h.87v7.52h-1Z"></path><path d="M75.94,186.93c0,2.55-1,4-2.62,4-1.47,0-2.46-1.37-2.48-3.86s1.08-3.91,2.61-3.91S75.94,184.53,75.94,186.93Zm-4.09.11c0,2,.61,3.07,1.53,3.07s1.54-1.22,1.54-3.14-.47-3.06-1.53-3.06C72.5,183.91,71.85,185,71.85,187Z"></path><path d="M80.24,184.2h0l-1.3.7-.2-.77,1.64-.88h.87v7.52h-1Z"></path><path d="M90.11,186.93c0,2.55-1,4-2.61,4C86,190.89,85,189.52,85,187s1.09-3.91,2.61-3.91S90.11,184.53,90.11,186.93ZM86,187c0,2,.6,3.07,1.52,3.07s1.54-1.22,1.54-3.14-.47-3.06-1.52-3.06C86.68,183.91,86,185,86,187Z"></path><path d="M97.2,186.93c0,2.55-1,4-2.62,4-1.47,0-2.46-1.37-2.48-3.86s1.08-3.91,2.61-3.91S97.2,184.53,97.2,186.93Zm-4.09.11c0,2,.61,3.07,1.53,3.07s1.54-1.22,1.54-3.14-.47-3.06-1.53-3.06C93.76,183.91,93.11,185,93.11,187Z"></path><path d="M101.5,184.2h0l-1.3.7-.2-.77,1.64-.88h.87v7.52h-1Z"></path><path d="M108.58,184.2h0l-1.31.7-.19-.77,1.64-.88h.87v7.52h-1Z"></path><path d="M115.67,184.2h0l-1.31.7-.2-.77,1.65-.88h.87v7.52h-1Z"></path><circle cx="75.19" cy="84.02" r="14.23" fill="#fff"></circle><path d="M75.19,98.71A14.7,14.7,0,1,1,89.88,84,14.71,14.71,0,0,1,75.19,98.71Zm0-28.47A13.78,13.78,0,1,0,89,84,13.79,13.79,0,0,0,75.19,70.24Z" fill="#231f20"></path><path d="M75.19,95.68A11.67,11.67,0,1,1,86.85,84,11.67,11.67,0,0,1,75.19,95.68Zm0-22.33A10.67,10.67,0,1,0,85.85,84,10.68,10.68,0,0,0,75.19,73.35Z" fill="#d1d3d4"></path><path d="M76.72,74.72c0,.12,0,.25,0,.38v2.27c0,.13,0,.17.16.19a7.23,7.23,0,0,1,2.29.54,2.7,2.7,0,0,1,1.72,2.56,2.89,2.89,0,0,1-.42,1.75,2.49,2.49,0,0,1-.75.73,3.06,3.06,0,0,1-.29.18l.5.16a2.76,2.76,0,0,1,1.68,1.4,4.32,4.32,0,0,1,0,3.1,3.2,3.2,0,0,1-2,2,8.83,8.83,0,0,1-2.64.51c-.34,0-.28,0-.28.3v2.56H75V90.52H73.65v2.79H71.93V90.47H68.47l.34-2H69c.35,0,.7,0,1,0a.6.6,0,0,0,.64-.63.62.62,0,0,0,0-.13V80.33a.88.88,0,0,0-.93-1c-.43,0-.86,0-1.3,0V77.53h3.44V74.72h1.71c0,.07,0,.14,0,.21v2.53H75V74.72Zm-3,13.69h.1c.69,0,1.38,0,2.06,0a4.6,4.6,0,0,0,1.77-.46,1.54,1.54,0,0,0,.72-2,1.91,1.91,0,0,0-1.17-.93,7.35,7.35,0,0,0-2.33-.3H73.69Zm0-5.46c.63,0,1.25,0,1.86-.09a4.25,4.25,0,0,0,1.27-.33,1.45,1.45,0,0,0,.42-2.4A2.28,2.28,0,0,0,76,79.59a10.83,10.83,0,0,0-2.13-.11c-.15,0-.2,0-.2.19,0,1,0,2,0,3.07A1.87,1.87,0,0,0,73.69,83Z" fill="#2563eb"></path><circle cx="103.59" cy="64.76" r="11.77" fill="#fff"></circle><path d="M103.59,77a12.22,12.22,0,1,1,12.22-12.22A12.23,12.23,0,0,1,103.59,77Zm0-23.53A11.31,11.31,0,1,0,114.9,64.76,11.32,11.32,0,0,0,103.59,53.45Z" fill="#231f20"></path><path d="M103.59,74.48a9.73,9.73,0,1,1,9.72-9.72A9.73,9.73,0,0,1,103.59,74.48Zm0-18.45a8.73,8.73,0,1,0,8.72,8.73A8.74,8.74,0,0,0,103.59,56Z" fill="#d1d3d4"></path><path d="M104.85,57.07c0,.11,0,.21,0,.32v1.87c0,.11,0,.15.14.16a6.58,6.58,0,0,1,1.89.44A2.26,2.26,0,0,1,108.31,62a2.36,2.36,0,0,1-.35,1.44,2,2,0,0,1-.62.61l-.24.14.41.14a2.23,2.23,0,0,1,1.39,1.16,3,3,0,0,1,.22.89,3.65,3.65,0,0,1-.2,1.67,2.68,2.68,0,0,1-1.65,1.62,7.39,7.39,0,0,1-2.18.42c-.28,0-.23,0-.23.24v2.12h-1.42v-2.3h-1.13v2.3h-1.42V70.09H98l.29-1.69h.16c.29,0,.58,0,.87,0a.5.5,0,0,0,.53-.52V61.71a.71.71,0,0,0-.76-.79c-.36,0-.71,0-1.08,0V59.4h2.84V57.07h1.42c0,.06,0,.12,0,.18v2.09h1.13V57.07Zm-2.5,11.32h.08c.57,0,1.14,0,1.71,0a3.67,3.67,0,0,0,1.45-.38,1.27,1.27,0,0,0,.6-1.69,1.58,1.58,0,0,0-1-.78,6.22,6.22,0,0,0-1.92-.25h-1Zm0-4.51c.52,0,1,0,1.54-.08a3.4,3.4,0,0,0,1-.27,1.2,1.2,0,0,0,.36-2,1.92,1.92,0,0,0-1-.45,8.76,8.76,0,0,0-1.77-.09c-.12,0-.16,0-.16.16,0,.85,0,1.69,0,2.53A1.36,1.36,0,0,0,102.35,63.88Z" fill="#2563eb"></path><circle cx="106.27" cy="102.16" r="14.23" fill="#fff"></circle><path d="M106.27,116.85A14.7,14.7,0,1,1,121,102.16,14.71,14.71,0,0,1,106.27,116.85Zm0-28.47a13.78,13.78,0,1,0,13.78,13.78A13.79,13.79,0,0,0,106.27,88.38Z" fill="#231f20"></path><path d="M106.27,113.82a11.67,11.67,0,1,1,11.66-11.66A11.67,11.67,0,0,1,106.27,113.82Zm0-22.33a10.67,10.67,0,1,0,10.66,10.67A10.68,10.68,0,0,0,106.27,91.49Z" fill="#d1d3d4"></path><path d="M107.8,92.86c0,.12,0,.25,0,.38v2.27c0,.13,0,.17.16.19a7.23,7.23,0,0,1,2.29.54A2.7,2.7,0,0,1,112,98.8a2.89,2.89,0,0,1-.42,1.75,2.49,2.49,0,0,1-.75.73,3.06,3.06,0,0,1-.29.18l.5.16a2.71,2.71,0,0,1,1.67,1.4,4.07,4.07,0,0,1,.28,1.09,4.45,4.45,0,0,1-.25,2,3.2,3.2,0,0,1-2,2,8.83,8.83,0,0,1-2.64.51c-.34,0-.28,0-.28.3v2.56h-1.72v-2.79h-1.36v2.79H103v-2.84H99.55l.34-2h1.25a.6.6,0,0,0,.64-.63.57.57,0,0,0,0-.13V98.47a.87.87,0,0,0-.92-1c-.43,0-.86,0-1.3,0V95.67H103V92.86h1.71c0,.07,0,.14,0,.21V95.6h1.37V92.86Zm-3,13.69h.1c.69,0,1.38,0,2.06,0a4.6,4.6,0,0,0,1.77-.46,1.55,1.55,0,0,0,.72-2,1.91,1.91,0,0,0-1.17-.93,7.35,7.35,0,0,0-2.33-.3h-1.15Zm0-5.46c.63,0,1.25,0,1.86-.09a4.25,4.25,0,0,0,1.27-.33,1.45,1.45,0,0,0,.42-2.4,2.28,2.28,0,0,0-1.24-.54,10.87,10.87,0,0,0-2.13-.11c-.15,0-.2,0-.2.2,0,1,0,2,0,3.06A1.79,1.79,0,0,0,104.77,101.09Z" fill="#2563eb"></path><path d="M53.5,108.72h74a0,0,0,0,1,0,0v45.93a3.53,3.53,0,0,1-3.53,3.53H57a3.53,3.53,0,0,1-3.53-3.53V108.72A0,0,0,0,1,53.5,108.72Z" fill="#fff"></path><path d="M124,158.64H57a4,4,0,0,1-4-4V108.72a.45.45,0,0,1,.45-.45h74a.45.45,0,0,1,.45.45v45.94A4,4,0,0,1,124,158.64ZM54,109.18v45.48A3.08,3.08,0,0,0,57,157.73h67a3.08,3.08,0,0,0,3.07-3.07V109.18Z" fill="#231f20"></path><path d="M57,102.16h67a3.53,3.53,0,0,1,3.53,3.53v3a0,0,0,0,1,0,0h-74a0,0,0,0,1,0,0v-3A3.53,3.53,0,0,1,57,102.16Z" fill="#fff"></path><path d="M127.54,109.18h-74a.45.45,0,0,1-.45-.46v-3a4,4,0,0,1,4-4h67a4,4,0,0,1,4,4v3A.45.45,0,0,1,127.54,109.18ZM54,108.27h73.12v-2.59a3.08,3.08,0,0,0-3.07-3.07H57A3.08,3.08,0,0,0,54,105.68Z" fill="#231f20"></path><circle cx="71.73" cy="122.34" r="4.77"></circle><path d="M63.06,136.76a8.67,8.67,0,0,1,17.34,0Z"></path><circle cx="109.31" cy="122.34" r="4.77"></circle><path d="M100.64,136.76a8.67,8.67,0,0,1,17.34,0Z"></path><path d="M96.81,122.79H89.72a2.54,2.54,0,1,1,0-5.08h7.09a2.54,2.54,0,0,1,0,5.08Zm-7.09-4.16a1.63,1.63,0,0,0,0,3.25h7.09a1.63,1.63,0,0,0,0-3.25Z" fill="#2563eb"></path><path d="M91.81,124.88H84.72a2.54,2.54,0,0,1,0-5.08h7.09a2.54,2.54,0,0,1,0,5.08Zm-7.09-4.17a1.63,1.63,0,0,0,0,3.25h7.09a1.63,1.63,0,0,0,0-3.25Z" fill="#231f20"></path><path d="M112.59,142.42H68.45a.5.5,0,0,1-.5-.5.5.5,0,0,1,.5-.5h44.14a.5.5,0,0,1,.5.5A.5.5,0,0,1,112.59,142.42Z" fill="#d1d3d4"></path><path d="M112.59,145.55H68.45a.5.5,0,0,1-.5-.5.5.5,0,0,1,.5-.5h44.14a.5.5,0,0,1,.5.5A.5.5,0,0,1,112.59,145.55Z" fill="#d1d3d4"></path><path d="M108.05,148.69H68.45a.5.5,0,1,1,0-1h39.6a.5.5,0,1,1,0,1Z" fill="#d1d3d4"></path><circle cx="58.71" cy="105.44" r="1.14" fill="#2563eb"></circle><circle cx="62.7" cy="105.44" r="1.14" fill="#d1d3d4"></circle><circle cx="66.69" cy="105.44" r="1.14" fill="#d1d3d4"></circle></g></svg>