<svg width="127" height="102" viewBox="0 0 127 102" fill="none" xmlns="http://www.w3.org/2000/svg">
<path d="M126 1H1V101H126V1Z" fill="white"/>
<g opacity="0.1">
<path opacity="0.1" d="M126 98.6323V100.992H123.05" stroke="#3C3C3D" stroke-miterlimit="10"/>
<path opacity="0.1" d="M117.377 100.992H6.79121" stroke="#3C3C3D" stroke-miterlimit="10" stroke-dasharray="5.77 5.77"/>
<path opacity="0.1" d="M3.94974 100.992H1V98.6323" stroke="#3C3C3D" stroke-miterlimit="10"/>
<path opacity="0.1" d="M1 94.0937V5.62518" stroke="#3C3C3D" stroke-miterlimit="10" stroke-dasharray="5.77 5.77"/>
<path opacity="0.1" d="M1 3.35979V1H3.94974" stroke="#3C3C3D" stroke-miterlimit="10"/>
<path opacity="0.1" d="M9.62308 1H120.209" stroke="#3C3C3D" stroke-miterlimit="10" stroke-dasharray="5.77 5.77"/>
<path opacity="0.1" d="M123.05 1H126V3.35979" stroke="#3C3C3D" stroke-miterlimit="10"/>
<path opacity="0.1" d="M126 7.89059V96.3669" stroke="#3C3C3D" stroke-miterlimit="10" stroke-dasharray="5.77 5.77"/>
</g>
<path d="M64.4297 39.2604C66.3591 39.2618 68.2665 39.5969 70.0274 40.2438C71.7883 40.8908 73.3632 41.835 74.6495 43.0149L78.6764 40.0363C76.0988 37.6845 72.7171 36.0247 68.9725 35.2737C65.228 34.5225 61.2946 34.715 57.6853 35.8259C54.0761 36.9368 50.9587 38.9146 48.7401 41.5011C46.5214 44.0876 45.3045 47.1627 45.2481 50.3253C45.1917 53.4878 46.2984 56.591 48.4238 59.2296C50.5493 61.8683 53.5947 63.9201 57.1628 65.1172C60.7308 66.3142 64.6558 66.6011 68.4256 65.9403C72.1952 65.2795 75.6347 63.7016 78.2951 61.4127L74.3597 58.3464C72.792 59.6916 70.8425 60.697 68.6855 61.2729C66.5286 61.8487 64.2312 61.9771 61.9991 61.6464C59.7668 61.3158 57.6694 60.5365 55.8939 59.3782C54.1185 58.2199 52.7205 56.7186 51.825 55.0087C50.9295 53.2987 50.5643 51.4333 50.7622 49.5792C50.9601 47.7252 51.7147 45.9402 52.9587 44.384C54.2028 42.8277 55.8974 41.5486 57.8913 40.6611C59.885 39.7735 62.1157 39.3052 64.384 39.2979L64.4297 39.2604Z" fill="#414042"/>
<path d="M46.2293 35.5389L42.2564 32.4639C39.1528 34.8356 36.69 37.6548 35.0095 40.7595C33.329 43.8642 32.4639 47.1933 32.4639 50.5556C32.4639 53.9178 33.329 57.2469 35.0095 60.3516C36.69 63.4564 39.1528 66.2755 42.2564 68.6473L46.2293 65.5722C43.6417 63.6087 41.5873 61.2703 40.1851 58.6925C38.783 56.1148 38.061 53.3491 38.061 50.5556C38.061 47.7621 38.783 44.9963 40.1851 42.4186C41.5873 39.8409 43.6417 37.5025 46.2293 35.5389Z" fill="#414042"/>
<path d="M83.5926 29.6913C78.1756 26.3758 71.63 24.5911 64.911 24.5979V29.0625C70.455 29.0583 75.857 30.525 80.3358 33.2505L83.5926 29.6913Z" fill="#414042"/>
<path d="M64.911 72.1088V76.5132C71.1961 76.5189 77.3467 75.0529 82.6094 72.2949L79.518 68.6473C75.1692 70.9119 70.0948 72.1144 64.911 72.1088Z" fill="#414042"/>
<path d="M64.911 66.6689C60.6533 66.6666 56.4993 65.648 53.0113 63.7508C49.5233 61.8536 46.8697 59.1694 45.4096 56.0617L40.3298 57.8947C42.2427 61.7541 45.6153 65.0727 50.0032 67.4133C54.3911 69.7539 59.5886 71.0068 64.911 71.0071V66.6689Z" fill="#414042"/>
<path d="M44.7711 49.769C45.1009 45.6311 47.3657 41.7495 51.1059 38.9119C54.8461 36.0743 59.7816 34.4931 64.911 34.4891V30.1041C58.3422 30.1039 52.0248 32.1453 47.2662 35.8057C42.5076 39.4662 39.672 44.4655 39.3466 49.769H44.7711Z" fill="#414042"/>
</svg>
