<svg xmlns="http://www.w3.org/2000/svg" viewBox="0 0 400 300" width="406" height="306" class="illustration styles_illustrationTablet__1DWOa"><g id="_515_data_storage_flatline" data-name="#515_data_storage_flatline"><path d="M154.24,102.67c-2.63-2.53-4.79-4.54-6.88-6.62-10.09-10-24.75-13-37.2-7.42C97.27,94.4,89.69,106.89,90.7,121.41c.23,3.36-.83,4.39-3.9,5.16-21.37,5.35-37,24.6-37.87,46.22-1.13,29.6,21.22,52.91,50.9,52.93q102.48.06,205,0a57.09,57.09,0,0,0,7.84-.57c21.64-3,38.25-22,38.49-44.07.24-22.58-15.87-42.1-37.69-45.37-5-.75-10.18-.72-15.28-1,8.69-45.39-21.36-78.51-51.73-86.66-16.55-4.43-32.77-3.77-48.51,3C174.92,60.84,161.12,78.76,154.24,102.67Z" fill="#4f46e5"></path><path d="M180.29,226.24l-80.46,0a50.59,50.59,0,0,1-51.4-53.45,50.54,50.54,0,0,1,38.25-46.68c2.78-.7,3.73-1.51,3.52-4.64-1-14.62,6.56-27.37,19.76-33.28,12.66-5.66,27.48-2.71,37.75,7.53,1.4,1.39,2.8,2.73,4.42,4.27l1.86,1.76c7.31-24.67,22-41.89,43.72-51.2,15.32-6.58,31.74-7.59,48.83-3,16,4.3,30.9,15.08,40.8,29.56,7.9,11.58,16.25,30.85,11.4,57.11,1.42.09,2.84.15,4.26.21a97.86,97.86,0,0,1,10.49.81c22,3.29,38.37,23,38.12,45.87-.25,22.37-17,41.53-38.92,44.55a58.16,58.16,0,0,1-7.91.58C264.56,226.22,222.61,226.24,180.29,226.24Zm-57-139.91a31.37,31.37,0,0,0-12.89,2.76c-12.81,5.72-20.15,18.1-19.17,32.29.26,3.83-1.24,4.92-4.28,5.68a49.54,49.54,0,0,0-37.49,45.75,49.6,49.6,0,0,0,50.4,52.41c69,0,139.27,0,205,0a56.12,56.12,0,0,0,7.77-.57c21.46-3,37.82-21.69,38.06-43.57.24-22.37-15.78-41.66-37.27-44.87a100.53,100.53,0,0,0-10.38-.81c-1.62-.06-3.24-.13-4.85-.23a.47.47,0,0,1-.36-.2.48.48,0,0,1-.1-.4c5-26.21-3.29-45.41-11.14-56.91-9.76-14.3-24.42-24.92-40.23-29.16C229.42,44,213.21,45,198.1,51.44,176.15,60.86,162,77.66,154.72,102.8a.51.51,0,0,1-.35.35.53.53,0,0,1-.48-.12l-2.45-2.34c-1.56-1.48-3-2.88-4.44-4.28A33.69,33.69,0,0,0,123.26,86.33Z" fill="#231f20"></path><rect x="148.6" y="168.02" width="102.8" height="55.83" fill="#d1d3d4"></rect><path d="M251.4,224.35H148.6a.5.5,0,0,1-.5-.5V168a.51.51,0,0,1,.5-.5H251.4a.51.51,0,0,1,.5.5v55.83A.5.5,0,0,1,251.4,224.35Zm-102.3-1H250.9V168.52H149.1Z" fill="#231f20"></path><rect x="148.6" y="139.81" width="102.8" height="27.92" fill="#231f20"></rect><path d="M251.4,168.23H148.6a.51.51,0,0,1-.5-.5V139.81a.5.5,0,0,1,.5-.5H251.4a.5.5,0,0,1,.5.5v27.92A.51.51,0,0,1,251.4,168.23Zm-102.3-1H250.9V140.31H149.1Z" fill="#231f20"></path><rect x="162.85" y="145.9" width="83.03" height="39.93" fill="#fff"></rect><path d="M245.88,186.33h-83a.51.51,0,0,1-.5-.5V145.9a.5.5,0,0,1,.5-.5h83a.5.5,0,0,1,.5.5v39.93A.5.5,0,0,1,245.88,186.33Zm-82.53-1h82V146.4h-82Z" fill="#231f20"></path><polygon points="242.24 155.2 242.24 148.39 208.66 148.39 204.22 155.2 158.12 155.2 158.12 194.86 247.74 194.86 247.74 155.2 242.24 155.2" fill="#4f46e5"></polygon><path d="M247.74,195.36H158.12a.5.5,0,0,1-.5-.5V155.2a.5.5,0,0,1,.5-.5H204l4.3-6.58a.5.5,0,0,1,.41-.23h33.58a.5.5,0,0,1,.5.5v6.31h5a.5.5,0,0,1,.5.5v39.66A.5.5,0,0,1,247.74,195.36Zm-89.12-1h88.62V155.7h-5a.5.5,0,0,1-.5-.5v-6.31H208.93l-4.3,6.59a.49.49,0,0,1-.41.22h-45.6Z" fill="#231f20"></path><rect x="154.24" y="159.29" width="88.46" height="39.93" transform="translate(396.93 358.51) rotate(-180)" fill="#fff"></rect><path d="M242.7,199.72H154.24a.5.5,0,0,1-.5-.5V159.29a.5.5,0,0,1,.5-.5H242.7a.5.5,0,0,1,.5.5v39.93A.5.5,0,0,1,242.7,199.72Zm-88-1H242.2V159.79H154.74Z" fill="#231f20"></path><polygon points="158.12 168.6 158.12 161.79 193.89 161.79 198.63 168.6 247.74 168.6 247.74 208.25 152.26 208.25 152.26 168.6 158.12 168.6" fill="#4f46e5"></polygon><path d="M247.74,208.75H152.26a.5.5,0,0,1-.5-.5V168.6a.5.5,0,0,1,.5-.5h5.36v-6.31a.5.5,0,0,1,.5-.5h35.77a.49.49,0,0,1,.41.21l4.59,6.6h48.85a.5.5,0,0,1,.5.5v39.65A.5.5,0,0,1,247.74,208.75Zm-95-1h94.48V169.1H198.63a.49.49,0,0,1-.41-.22l-4.59-6.59h-35v6.31a.5.5,0,0,1-.5.5h-5.36Z" fill="#231f20"></path><rect x="158.7" y="171.62" width="88.46" height="39.93" fill="#fff"></rect><path d="M247.16,212.06H158.7a.5.5,0,0,1-.5-.5V171.62a.5.5,0,0,1,.5-.5h88.46a.5.5,0,0,1,.5.5v39.94A.5.5,0,0,1,247.16,212.06Zm-88-1h87.46V172.12H159.2Z" fill="#231f20"></path><rect x="157.3" y="174.89" width="88.46" height="39.93" fill="#fff"></rect><path d="M245.76,215.32H157.3a.5.5,0,0,1-.5-.5V174.89a.5.5,0,0,1,.5-.5h88.46a.5.5,0,0,1,.5.5v39.93A.5.5,0,0,1,245.76,215.32Zm-88-1h87.46V175.39H157.8Z" fill="#231f20"></path><polygon points="241.88 184.2 241.88 177.39 206.11 177.39 201.37 184.2 152.26 184.2 152.26 223.85 247.74 223.85 247.74 184.2 241.88 184.2" fill="#4f46e5"></polygon><path d="M247.74,224.35H152.26a.5.5,0,0,1-.5-.5V184.2a.5.5,0,0,1,.5-.5h48.85l4.59-6.6a.49.49,0,0,1,.41-.21h35.77a.5.5,0,0,1,.5.5v6.31h5.36a.5.5,0,0,1,.5.5v39.65A.5.5,0,0,1,247.74,224.35Zm-95-1h94.48V184.7h-5.36a.5.5,0,0,1-.5-.5v-6.31h-35l-4.59,6.59a.49.49,0,0,1-.41.22H152.76Z" fill="#231f20"></path><rect x="144.01" y="202.25" width="111.98" height="52.56" fill="#fff"></rect><path d="M256,255.31H144a.5.5,0,0,1-.5-.5V202.25a.5.5,0,0,1,.5-.5H256a.5.5,0,0,1,.5.5v52.56A.5.5,0,0,1,256,255.31Zm-111.48-1h111V202.75h-111Z" fill="#231f20"></path><path d="M251.48,250.62h-103a.5.5,0,0,1-.5-.5V207a.5.5,0,0,1,.5-.5h103a.5.5,0,0,1,.5.5v43.17A.5.5,0,0,1,251.48,250.62Zm-102.46-1H251V207.45H149Z" fill="#e6e7e8"></path><path d="M214.89,235.4H185.11c-3.72,0-6.52-2-6.52-4.63v-3.19h4v3.07a3.68,3.68,0,0,0,2.52.75h29.78a3.68,3.68,0,0,0,2.52-.75v-3.07h4v3.19C221.41,233.41,218.61,235.4,214.89,235.4Z" fill="#231f20"></path><path d="M198.47,198.65s1.72-.28,4.46,3.6H187.81S193.17,200.37,198.47,198.65Z" fill="#231f20"></path><path d="M202.93,202.75H187.81a.5.5,0,0,1-.5-.41.51.51,0,0,1,.33-.56c.06,0,5.43-1.9,10.67-3.61l.08,0c.2,0,2.11-.21,5,3.81a.49.49,0,0,1,0,.52A.48.48,0,0,1,202.93,202.75Zm-12.15-1h11.16c-1.93-2.45-3.17-2.6-3.38-2.61C195.7,200.07,192.82,201.05,190.78,201.75Z" fill="#231f20"></path><path d="M198.47,198.65H157.3s-10.26,3.6-8.7,21.6h46S190.92,205.49,198.47,198.65Z" fill="#fff"></path><path d="M194.55,220.75h-46a.51.51,0,0,1-.5-.46c-1.57-18.17,8.6-22,9-22.11a.45.45,0,0,1,.16,0h41.17a.5.5,0,0,1,.33.87c-7.24,6.56-3.8,21-3.76,21.11a.51.51,0,0,1-.09.43A.51.51,0,0,1,194.55,220.75Zm-45.49-1h44.87c-.59-2.81-2.5-14.16,3.33-20.6H157.4C156.51,199.52,147.83,203.57,149.06,219.75Z" fill="#231f20"></path><path d="M183.83,215.32H154.62a.5.5,0,0,1-.5-.5.51.51,0,0,1,.5-.5h29.21a.5.5,0,0,1,.5.5A.5.5,0,0,1,183.83,215.32Z" fill="#e6e7e8"></path><path d="M187.81,210H154.62a.51.51,0,0,1-.5-.5.5.5,0,0,1,.5-.5h33.19a.5.5,0,0,1,.5.5A.51.51,0,0,1,187.81,210Z" fill="#e6e7e8"></path><path d="M190.05,204.23H156.86a.5.5,0,0,1,0-1h33.19a.5.5,0,0,1,0,1Z" fill="#e6e7e8"></path><path d="M239.11,163.57H217.48a.5.5,0,0,1-.5-.5.5.5,0,0,1,.5-.5h21.63a.5.5,0,0,1,.5.5A.51.51,0,0,1,239.11,163.57Z" fill="#e6e7e8"></path><path d="M190.86,150.67H169.23a.5.5,0,0,1,0-1h21.63a.5.5,0,0,1,0,1Z" fill="#e6e7e8"></path><path d="M67.7,93.24a130.44,130.44,0,0,1,52.86,21.14l-6,7.25,26.79,3-4.84-25-8.05,5.79s-23-26.33-49.88-33.28Z" fill="#fff"></path><path d="M141.31,125.15h-.06l-26.79-3a.48.48,0,0,1-.4-.31.5.5,0,0,1,.08-.51l5.69-6.83C94.93,97.24,67.91,93.77,67.64,93.73a.5.5,0,0,1-.39-.72L78.09,72a.5.5,0,0,1,.57-.25c25,6.48,47,30,49.83,33.09l7.69-5.53a.49.49,0,0,1,.48,0,.5.5,0,0,1,.3.36l4.84,25a.51.51,0,0,1-.49.59Zm-25.81-3.91,25.19,2.84-4.56-23.54-7.42,5.34a.51.51,0,0,1-.67-.08c-.23-.26-23-26-49.24-33L68.47,92.84c4.47.68,29.4,5.06,52.38,21.13a.54.54,0,0,1,.21.34.5.5,0,0,1-.11.39Z" fill="#231f20"></path><path d="M256,121.66s13.17-16.85,47.6-28.94L299.7,85l29.07,2.69-12.49,23.76-5.54-9s-17.12,5-40.68,35.09Z" fill="#fff"></path><path d="M270.06,138.08a.48.48,0,0,1-.37-.17L255.62,122a.5.5,0,0,1,0-.64c.13-.17,13.51-16.94,47.29-28.92l-3.63-7.21a.5.5,0,0,1,.49-.73l29.06,2.69a.53.53,0,0,1,.4.26.49.49,0,0,1,0,.47l-12.49,23.76a.48.48,0,0,1-.42.27.47.47,0,0,1-.45-.24l-5.33-8.62c-2.57.93-18.75,7.61-40.06,34.8a.58.58,0,0,1-.38.19Zm-13.41-16.43L270,136.8c12-15.28,22.36-23.9,28.91-28.45,7.21-5,11.47-6.29,11.65-6.34a.48.48,0,0,1,.56.22l5.08,8.21L328,88.12l-27.42-2.54L304,92.5a.53.53,0,0,1,0,.41.52.52,0,0,1-.3.28C272.47,104.17,258.67,119.28,256.65,121.65Z" fill="#231f20"></path></g></svg>