<svg xmlns="http://www.w3.org/2000/svg" viewBox="0 0 400 300" width="406" height="306" class="illustration styles_illustrationTablet__1DWOa"><g id="_293_online_payment_outline" data-name="#293_online_payment_outline"><path d="M221.39,240.49v-25c0-5-27.06-32.27-27.06-32.27l25.49-46.4s45.94,21.71,52.87,39,2.83,64.69,2.83,64.69Z" fill="#ffc9b0"></path><path d="M275.52,241.49H221.39a1,1,0,0,1-1-1v-25c0-3.36-16.42-21.14-26.77-31.56a1,1,0,0,1-.17-1.19l25.49-46.4a1,1,0,0,1,1.3-.43c.12.06,11.68,5.54,23.94,13.08,16.58,10.19,26.48,19.1,29.43,26.48,6.94,17.33,3.07,63.2,2.9,65.14A1,1,0,0,1,275.52,241.49Zm-53.13-2H274.6c.51-6.66,3.39-47.74-2.84-63.32s-45.25-35-51.52-38.08L195.56,183c5.56,5.62,26.83,27.44,26.83,32.44Z" fill="#093f68"></path><rect x="148.82" y="59.51" width="92.63" height="160.35" rx="8.42" fill="#fff"></rect><path d="M233,220.87H157.24a9.43,9.43,0,0,1-9.42-9.42V67.93a9.43,9.43,0,0,1,9.42-9.42H233a9.44,9.44,0,0,1,9.42,9.42V211.45A9.44,9.44,0,0,1,233,220.87ZM157.24,60.51a7.43,7.43,0,0,0-7.42,7.42V211.45a7.43,7.43,0,0,0,7.42,7.42H233a7.43,7.43,0,0,0,7.42-7.42V67.93A7.43,7.43,0,0,0,233,60.51Z" fill="#093f68"></path><circle cx="194.61" cy="207.97" r="5.66" fill="#fff"></circle><path d="M194.61,214.64a6.67,6.67,0,1,1,6.66-6.67A6.67,6.67,0,0,1,194.61,214.64Zm0-11.33a4.67,4.67,0,1,0,4.66,4.66A4.67,4.67,0,0,0,194.61,203.31Z" fill="#093f68"></path><rect x="148.82" y="71.77" width="92.63" height="124.88" fill="#2563eb"></rect><path d="M241.45,197.65H148.82a1,1,0,0,1-1-1V71.77a1,1,0,0,1,1-1h92.63a1,1,0,0,1,1,1V196.65A1,1,0,0,1,241.45,197.65Zm-91.63-2h90.63V72.77H149.82Z" fill="#093f68"></path><path d="M190.53,66.85h-1.89a1,1,0,0,1,0-2h1.89a1,1,0,0,1,0,2Z" fill="#093f68"></path><path d="M201.62,66.85h-8.49a1,1,0,0,1,0-2h8.49a1,1,0,0,1,0,2Z" fill="#093f68"></path><polygon points="228.63 79.98 228.63 196.65 161.63 196.65 161.63 79.98 167.22 83.64 172.81 79.98 178.38 83.64 183.97 79.98 189.56 83.64 195.14 79.98 200.73 83.64 206.3 79.98 211.89 83.64 217.48 79.98 223.06 83.64 228.63 79.98" fill="#fff"></polygon><path d="M228.63,197.65h-67a1,1,0,0,1-1-1V80a1,1,0,0,1,1.55-.84l5,3.3,5-3.3a1,1,0,0,1,1.09,0l5,3.3,5-3.3a1,1,0,0,1,1.1,0l5,3.3,5-3.3a1,1,0,0,1,1.1,0l5,3.3,5-3.3a1,1,0,0,1,1.1,0l5,3.3,5-3.3a1,1,0,0,1,1.1,0l5,3.3,5-3.3a1,1,0,0,1,1.55.84V196.65A1,1,0,0,1,228.63,197.65Zm-66-2h65V81.83l-4,2.65a1,1,0,0,1-1.1,0l-5-3.31-5,3.31a1,1,0,0,1-1.1,0l-5-3.31-5,3.31a1,1,0,0,1-1.1,0l-5-3.31-5,3.31a1,1,0,0,1-1.09,0l-5-3.31-5,3.31a1,1,0,0,1-1.1,0l-5-3.31-5,3.31a1,1,0,0,1-1.1,0l-4-2.65Z" fill="#093f68"></path><path d="M213.57,93.5H180.74a1,1,0,0,1,0-2h32.83a1,1,0,0,1,0,2Z" fill="#dfeaef"></path><path d="M195.59,101.3H170.77a1,1,0,0,1,0-2h24.82a1,1,0,0,1,0,2Z" fill="#dfeaef"></path><path d="M221.47,101.3H210.25a1,1,0,0,1,0-2h11.22a1,1,0,0,1,0,2Z" fill="#dfeaef"></path><path d="M195.59,111.58H170.77a1,1,0,0,1,0-2h24.82a1,1,0,0,1,0,2Z" fill="#dfeaef"></path><path d="M221.47,111.58H210.25a1,1,0,0,1,0-2h11.22a1,1,0,0,1,0,2Z" fill="#dfeaef"></path><path d="M195.59,121.87H170.77a1,1,0,1,1,0-2h24.82a1,1,0,1,1,0,2Z" fill="#dfeaef"></path><path d="M221.47,121.87H210.25a1,1,0,0,1,0-2h11.22a1,1,0,1,1,0,2Z" fill="#dfeaef"></path><path d="M195.59,132.15H170.77a1,1,0,0,1,0-2h24.82a1,1,0,0,1,0,2Z" fill="#dfeaef"></path><path d="M221.47,132.15H210.25a1,1,0,0,1,0-2h11.22a1,1,0,0,1,0,2Z" fill="#dfeaef"></path><path d="M221.47,142.23H168.8a1,1,0,0,1,0-2h52.67a1,1,0,0,1,0,2Z" fill="#dfeaef"></path><path d="M221.47,150.63H210.25a1,1,0,0,1,0-2h11.22a1,1,0,1,1,0,2Z" fill="#dfeaef"></path><rect x="170.36" y="157.38" width="49.55" height="21.2" rx="8.45" fill="#ffbc0e"></rect><path d="M211.46,179.57H178.81a9.46,9.46,0,0,1-9.45-9.45v-4.29a9.46,9.46,0,0,1,9.45-9.45h32.65a9.46,9.46,0,0,1,9.45,9.45v4.29A9.46,9.46,0,0,1,211.46,179.57Zm-32.65-21.19a7.46,7.46,0,0,0-7.45,7.45v4.29a7.46,7.46,0,0,0,7.45,7.45h32.65a7.46,7.46,0,0,0,7.45-7.45v-4.29a7.46,7.46,0,0,0-7.45-7.45Z" fill="#093f68"></path><path d="M184.58,163.45h3.36a7.06,7.06,0,0,1,1.33.13,3.12,3.12,0,0,1,1.09.44,2.23,2.23,0,0,1,.74.84,3,3,0,0,1,.27,1.34,3.1,3.1,0,0,1-.25,1.33,2.18,2.18,0,0,1-.7.85,2.76,2.76,0,0,1-1.06.46A6.25,6.25,0,0,1,188,169h-1.46v3.53h-2Zm2,3.83h1.33a2.24,2.24,0,0,0,.52-.05,1.44,1.44,0,0,0,.45-.17.9.9,0,0,0,.31-.33,1,1,0,0,0,.13-.53,1,1,0,0,0-.16-.56,1.07,1.07,0,0,0-.41-.32,1.65,1.65,0,0,0-.56-.15l-.59,0h-1Z" fill="#093f68"></path><path d="M194.66,163.45h1.65l3.93,9.05H198l-.78-1.92H193.7L193,172.5h-2.2Zm.76,2.63-1.09,2.81h2.2Z" fill="#093f68"></path><path d="M202.42,168.64,199,163.45h2.47l1.92,3.39,2-3.39h2.36l-3.39,5.19v3.86h-2Z" fill="#093f68"></path><path d="M262.66,200.27s-32.83-37.53-40.75-36.65-13.19,7.79-10,15.84,29.91,32.83,29.91,32.83a30.93,30.93,0,0,0-11.75,16.33" fill="#ffc9b0"></path><path d="M230.1,229.62a.86.86,0,0,1-.28,0,1,1,0,0,1-.68-1.24,32,32,0,0,1,11.13-16.15C235.5,207.71,214,187.24,211,179.83a12.25,12.25,0,0,1,.59-11,13.35,13.35,0,0,1,10.2-6.16l.34,0c8.65,0,37.92,33.17,41.28,37a1,1,0,0,1-1.51,1.32C249.35,186.57,227.39,164,222,164.62a11.35,11.35,0,0,0-8.7,5.2,10.23,10.23,0,0,0-.45,9.26c3.11,7.76,29.39,32.23,29.66,32.48a1,1,0,0,1,.31.82,1,1,0,0,1-.46.76,30.21,30.21,0,0,0-11.32,15.76A1,1,0,0,1,230.1,229.62Z" fill="#093f68"></path></g></svg>