<svg xmlns="http://www.w3.org/2000/svg" viewBox="0 0 400 300" width="406" height="306" class="illustration styles_illustrationTablet__1DWOa"><g id="_205_bitcoin_outline" data-name="#205_bitcoin_outline"><circle cx="264.53" cy="152.22" r="25.43" fill="#ffbc0e"></circle><path d="M264.5,178.67A26.44,26.44,0,1,1,277.12,129h0a26.44,26.44,0,0,1-5.05,48.59A26.58,26.58,0,0,1,264.5,178.67Zm.07-50.89a24.77,24.77,0,0,0-7,1,24.44,24.44,0,1,0,18.6,1.93h0A24.36,24.36,0,0,0,264.57,127.78Z" fill="#093f68"></path><path d="M250.84,141.16l3.5,1.89a17.66,17.66,0,0,1,3.22-4.08c2.71-2,5.34-2.56,8.21.2a7.55,7.55,0,0,1,2,4.43s3.16-4,8.81-.41c7,4.48,1.32,12.66,1.32,12.66l3.39,1.84a1.53,1.53,0,0,1,.62,2.07l-.22.4a1.53,1.53,0,0,1-2.07.62l-3.57-1.94-1.34,2.48,3.55,1.93a1.52,1.52,0,0,1,.61,2.07l-.21.4a1.53,1.53,0,0,1-2.07.61l-3.71-2-3.36,6.21-3.41-2.66c.37-.68.69-1.31,1.05-1.92.61-1,.33-1.73-.7-2.28-3.66-2-7.29-4-10.94-6l-.45-.24c-3-1.67-3.34-1.58-5,1.43l-.39.73-3.24-1.75,3.33-6.15-3.66-2a1.52,1.52,0,0,1-.62-2.07l.22-.4a1.53,1.53,0,0,1,2.07-.62l3.45,1.87,1.29-2.37-3.41-1.84a1.53,1.53,0,0,1-.62-2.07l.24-.43A1.52,1.52,0,0,1,250.84,141.16Zm14,14.56L271,159a19,19,0,0,0,2.82-6.51c.31-1.8-.22-3.08-1.44-3.77a3.15,3.15,0,0,0-4.14.81A33.63,33.63,0,0,0,264.83,155.72Zm-3.68-2a13.89,13.89,0,0,0,2.32-5.69,2.83,2.83,0,0,0-1.44-3,2.91,2.91,0,0,0-3.54.41,14.38,14.38,0,0,0-3.39,5Z" fill="#fff"></path><path d="M269.54,171.53a1,1,0,0,1-.62-.21l-3.4-2.66a1,1,0,0,1-.27-1.26l.34-.64c.24-.46.48-.9.73-1.32a.9.9,0,0,0,.18-.49s-.05-.16-.5-.4q-3.94-2.15-7.89-4.33l-3.5-1.92c-.67-.37-1.91-1.06-2.26-1s-1,1.32-1.35,2l-.39.73a1,1,0,0,1-.6.49,1.06,1.06,0,0,1-.76-.08L246,158.72a1,1,0,0,1-.48-.6,1,1,0,0,1,.07-.76l2.86-5.27-2.79-1.51a2.52,2.52,0,0,1-1-3.42l.22-.41a2.52,2.52,0,0,1,3.42-1l2.58,1.4.33-.62-2.53-1.36a2.53,2.53,0,0,1-1.21-1.51,2.43,2.43,0,0,1,.2-1.92l.23-.42a2.52,2.52,0,0,1,3.42-1l2.67,1.44a14.75,14.75,0,0,1,3-3.56c2.25-1.63,5.68-3.37,9.49.29a7.55,7.55,0,0,1,2,3.32c1.64-1.05,4.65-2,8.71.58a8,8,0,0,1,3.79,5.25c.64,3.18-.77,6.34-1.61,7.87l2.47,1.34a2.52,2.52,0,0,1,1,3.42l-.22.41a2.53,2.53,0,0,1-3.42,1l-2.7-1.46-.39.72,2.67,1.45a2.51,2.51,0,0,1,1,3.42l-.21.4a2.49,2.49,0,0,1-1.5,1.22,2.55,2.55,0,0,1-1.93-.2l-2.83-1.53L270.42,171a1,1,0,0,1-.68.5A.65.65,0,0,1,269.54,171.53Zm-2.13-3.93,1.81,1.42,2.8-5.17a1,1,0,0,1,1.36-.41l3.7,2a.53.53,0,0,0,.41,0,.55.55,0,0,0,.31-.25l.22-.4a.53.53,0,0,0-.22-.71l-3.55-1.93a1,1,0,0,1-.48-.59,1,1,0,0,1,.08-.76l1.34-2.48a1,1,0,0,1,1.35-.41l3.58,1.94a.53.53,0,0,0,.71-.21l.22-.41a.5.5,0,0,0,0-.4.52.52,0,0,0-.25-.31l-3.39-1.84a1,1,0,0,1-.35-1.45s2.57-3.79,1.87-7.29a6.13,6.13,0,0,0-2.91-4c-4.77-3.06-7.38.06-7.49.2a1,1,0,0,1-1.11.32,1,1,0,0,1-.68-.93,6,6,0,0,0-1.71-3.73c-2.19-2.11-4.13-2.14-6.93-.11a16.29,16.29,0,0,0-2.94,3.78,1,1,0,0,1-1.34.37L250.37,142h0a.56.56,0,0,0-.4,0,.52.52,0,0,0-.32.26l-.23.42a.56.56,0,0,0,0,.4.52.52,0,0,0,.26.32l3.4,1.84a1,1,0,0,1,.41,1.36L252.16,149a1,1,0,0,1-1.35.4l-3.46-1.87a.51.51,0,0,0-.4,0,.55.55,0,0,0-.31.25l-.22.41a.5.5,0,0,0,0,.4.55.55,0,0,0,.25.31l3.67,2a1,1,0,0,1,.48.59,1,1,0,0,1-.08.76l-2.85,5.27,1.47.8c.84-1.54,1.45-2.5,2.47-2.8s2.13.21,3.78,1.12l3.5,1.92c2.63,1.45,5.25,2.89,7.89,4.32a2.73,2.73,0,0,1,1.46,1.62,2.58,2.58,0,0,1-.38,2.05C267.82,166.83,267.62,167.21,267.41,167.6ZM271,160a1,1,0,0,1-.48-.12l-6.11-3.31a1,1,0,0,1-.45-1.27,33.21,33.21,0,0,1,3.52-6.42,4.12,4.12,0,0,1,5.39-1c1.63.91,2.31,2.62,1.93,4.81a20,20,0,0,1-2.95,6.86A1,1,0,0,1,271,160Zm-4.83-4.75,4.46,2.41a16.26,16.26,0,0,0,2.2-5.34c.35-2-.62-2.55-.94-2.72a2.16,2.16,0,0,0-2.89.58A27.18,27.18,0,0,0,266.12,155.28Zm-5-.59a1,1,0,0,1-.48-.12l-6-3.27a1,1,0,0,1-.43-1.32,15.17,15.17,0,0,1,3.65-5.35,4,4,0,0,1,4.69-.51,3.83,3.83,0,0,1,1.92,4,14.73,14.73,0,0,1-2.47,6.1A1,1,0,0,1,261.15,154.69Zm-4.73-4.7,4.37,2.37a11.92,11.92,0,0,0,1.69-4.49,1.83,1.83,0,0,0-1-2,1.91,1.91,0,0,0-2.38.31A11.56,11.56,0,0,0,256.42,150Z" fill="#093f68"></path><circle cx="210.64" cy="163.11" r="25.43" fill="#ffbc0e"></circle><path d="M210.63,189.55A26.43,26.43,0,1,1,236,170.49h0A26.49,26.49,0,0,1,210.63,189.55Zm0-50.87a24.44,24.44,0,1,0,6.81,1A24.48,24.48,0,0,0,210.65,138.68Zm24.42,31.53h0Z" fill="#093f68"></path><path d="M218.56,147.39l-1.11,3.82a17.71,17.71,0,0,1,4.67,2.28c2.5,2.24,3.63,4.68,1.54,8.06a7.51,7.51,0,0,1-3.91,2.92s4.62,2.24,2.28,8.53c-2.9,7.77-12.1,4-12.1,4l-1.07,3.7a1.53,1.53,0,0,1-1.89,1l-.45-.13a1.53,1.53,0,0,1-1-1.89l1.14-3.9-2.71-.79-1.13,3.88a1.52,1.52,0,0,1-1.89,1l-.44-.12a1.53,1.53,0,0,1-1-1.89l1.18-4-6.78-2,1.87-3.9c.75.22,1.44.4,2.11.62,1.14.38,1.75-.05,2.08-1.17,1.16-4,2.36-8,3.54-12l.15-.49c1-3.32.83-3.6-2.46-4.55l-.79-.23,1-3.54,6.72,2,1.16-4a1.53,1.53,0,0,1,1.89-1l.44.13a1.52,1.52,0,0,1,1,1.89l-1.09,3.78,2.59.75,1.08-3.73a1.52,1.52,0,0,1,1.89-1l.47.13A1.54,1.54,0,0,1,218.56,147.39Zm-11.27,16.76-1.94,6.68a18.88,18.88,0,0,0,7,1.37c1.82-.07,3-.86,3.37-2.2a3.16,3.16,0,0,0-1.66-3.88A33,33,0,0,0,207.29,164.15Zm1.2-4a14,14,0,0,0,6,1.07,2.86,2.86,0,0,0,2.64-2.05,2.92,2.92,0,0,0-1.15-3.38,14.32,14.32,0,0,0-5.62-2.24Z" fill="#fff"></path><path d="M207.39,182.77a2.42,2.42,0,0,1-.7-.1l-.45-.13a2.51,2.51,0,0,1-1.51-1.2,2.55,2.55,0,0,1-.21-1.93l.86-2.94-.79-.23-.85,2.92a2.54,2.54,0,0,1-3.13,1.73l-.44-.13a2.51,2.51,0,0,1-1.5-1.21,2.48,2.48,0,0,1-.22-1.92l.9-3.09-5.82-1.69a1,1,0,0,1-.64-.55,1,1,0,0,1,0-.84l1.87-3.9A1,1,0,0,1,196,167l.68.2c.51.14,1,.27,1.47.43a.82.82,0,0,0,.51.07s.15-.08.29-.56c.86-3,1.74-5.91,2.62-8.86l1.07-3.6a6.49,6.49,0,0,0,.45-2.41,6.42,6.42,0,0,0-2.22-.9l-.8-.23a1,1,0,0,1-.68-1.24l1-3.53a1,1,0,0,1,.48-.6,1,1,0,0,1,.76-.09l5.76,1.68.88-3a2.52,2.52,0,0,1,3.13-1.72l.44.13a2.52,2.52,0,0,1,1.72,3.13l-.81,2.81.67.2.8-2.76a2.54,2.54,0,0,1,3.13-1.73l.46.14a2.5,2.5,0,0,1,1.51,1.21,2.47,2.47,0,0,1,.21,1.92l-.84,2.91a15.21,15.21,0,0,1,4.12,2.16c2.06,1.86,4.49,4.84,1.72,9.34a7.5,7.5,0,0,1-2.83,2.63c1.38,1.38,3,4.11,1.28,8.64a8,8,0,0,1-4.33,4.81c-3,1.3-6.35.59-8,.09l-.78,2.7A2.54,2.54,0,0,1,207.39,182.77ZM203.91,174a1.35,1.35,0,0,1,.28,0l2.71.79a1,1,0,0,1,.68,1.24l-1.14,3.9a.51.51,0,0,0,.05.4.52.52,0,0,0,.31.25l.45.13a.52.52,0,0,0,.65-.36l1.07-3.7a1,1,0,0,1,.53-.62,1,1,0,0,1,.81,0s4.26,1.71,7.53.28a6.12,6.12,0,0,0,3.25-3.67c2-5.38-1.62-7.21-1.77-7.28a1,1,0,0,1,.2-1.88,6,6,0,0,0,3.29-2.46c1.59-2.59,1.21-4.49-1.36-6.8a16.54,16.54,0,0,0-4.32-2.08,1,1,0,0,1-.64-1.22l1.1-3.82h0a.51.51,0,0,0,0-.4.55.55,0,0,0-.31-.25l-.47-.13a.52.52,0,0,0-.65.35L215,150.41a1,1,0,0,1-1.24.68l-2.59-.75a1,1,0,0,1-.6-.48,1,1,0,0,1-.08-.76l1.09-3.78a.53.53,0,0,0-.35-.65l-.45-.13a.53.53,0,0,0-.65.36l-1.16,4a1,1,0,0,1-.48.6,1,1,0,0,1-.76.09L202,147.91l-.46,1.61c1.68.5,2.75.88,3.26,1.82s.24,2.13-.29,3.94l-1.08,3.6c-.87,3-1.75,5.89-2.61,8.84a2.72,2.72,0,0,1-1.28,1.78,2.54,2.54,0,0,1-2.07.06c-.41-.14-.83-.25-1.26-.37l-1,2.07,5.65,1.64a.94.94,0,0,1,.59.48,1,1,0,0,1,.09.76l-1.18,4.05a.52.52,0,0,0,0,.4.55.55,0,0,0,.31.25l.44.12a.52.52,0,0,0,.65-.35l1.13-3.88a1,1,0,0,1,.48-.6A1,1,0,0,1,203.91,174Zm7.94-.79a21,21,0,0,1-6.83-1.44,1,1,0,0,1-.63-1.22l1.94-6.68a1,1,0,0,1,1.14-.7,32.83,32.83,0,0,1,7,2.07,4.13,4.13,0,0,1,2.15,5c-.54,1.79-2.07,2.82-4.29,2.91Zm-5.27-3a16.44,16.44,0,0,0,5.69,1c2-.08,2.35-1.14,2.46-1.49a2.17,2.17,0,0,0-1.18-2.7,26.77,26.77,0,0,0-5.56-1.7Zm7.11-8a16.18,16.18,0,0,1-5.55-1.16,1,1,0,0,1-.61-1.22l1.92-6.6a1,1,0,0,1,1.19-.7,15.37,15.37,0,0,1,6,2.43,3.94,3.94,0,0,1,1.49,4.48,3.83,3.83,0,0,1-3.5,2.73C214.31,162.21,214,162.22,213.69,162.22Zm-4-2.73a11.86,11.86,0,0,0,4.75.7,1.84,1.84,0,0,0,1.77-1.37,1.91,1.91,0,0,0-.8-2.26,11.56,11.56,0,0,0-4.33-1.84Z" fill="#093f68"></path><path d="M90.36,195.59l-5.3-3.86a3.81,3.81,0,0,1-.84-5.32l70.54-96.59a3.82,3.82,0,0,1,5.33-.84l5.3,3.86a3.81,3.81,0,0,1,.84,5.32L95.68,194.75A3.81,3.81,0,0,1,90.36,195.59Z" fill="#093f68"></path><path d="M92.59,197.32a4.8,4.8,0,0,1-2.82-.92h0l-5.3-3.86a4.81,4.81,0,0,1-1.06-6.72L154,89.23a4.81,4.81,0,0,1,6.72-1.06L166,92A4.82,4.82,0,0,1,167,98.75L96.49,195.34a4.82,4.82,0,0,1-3.14,1.92A5,5,0,0,1,92.59,197.32ZM157.85,89.25a2.81,2.81,0,0,0-2.28,1.16L85,187a2.79,2.79,0,0,0,.62,3.92l5.29,3.86h0a2.81,2.81,0,0,0,3.92-.62l70.55-96.59a2.82,2.82,0,0,0-.62-3.93l-5.3-3.85A2.83,2.83,0,0,0,157.85,89.25Z" fill="#093f68"></path><path d="M183.33,135.5c-2.63-9.57-9.44-28.06-24.77-39.22s-35-11.94-44.95-11.5a1.7,1.7,0,0,0-.69,3.22,262.26,262.26,0,0,1,29,16.93L133.1,117,147,127.15l8.79-12.09a264.15,264.15,0,0,1,24.68,22.09A1.7,1.7,0,0,0,183.33,135.5Z" fill="#665fd5"></path><path d="M181.68,138.67a2.68,2.68,0,0,1-1.92-.82A261.23,261.23,0,0,0,156,116.49l-8.18,11.24a1,1,0,0,1-1.4.22l-13.91-10.11a1,1,0,0,1-.4-.66,1,1,0,0,1,.18-.74l8.19-11.26a264.63,264.63,0,0,0-28-16.28,2.71,2.71,0,0,1,1.1-5.12c10.38-.46,30.1.43,45.58,11.69s22.39,29.75,25.14,39.77h0a2.68,2.68,0,0,1-1.26,3.07A2.76,2.76,0,0,1,181.68,138.67ZM155.8,114.06a1,1,0,0,1,.62.21,261.08,261.08,0,0,1,24.77,22.19.66.66,0,0,0,.84.11.67.67,0,0,0,.33-.8h0C179.68,126,173,108,158,97.09s-34.19-11.76-44.31-11.31a.71.71,0,0,0-.67.56.67.67,0,0,0,.38.77,265.83,265.83,0,0,1,29.09,17,1,1,0,0,1,.25,1.42l-8.21,11.29,12.29,8.94,8.2-11.28a1,1,0,0,1,.68-.4Z" fill="#093f68"></path><polygon points="166.04 153.99 141.37 173.02 170.62 188.39 209.04 167.73 166.04 153.99" fill="#665fd5"></polygon><path d="M170.62,189.39a.93.93,0,0,1-.46-.12L140.91,173.9a1,1,0,0,1-.54-.8,1,1,0,0,1,.39-.87l24.67-19a1,1,0,0,1,.91-.16l43,13.75a1,1,0,0,1,.17,1.83L171.1,189.27A1,1,0,0,1,170.62,189.39Zm-27.41-16.53,27.41,14.39L206.49,168,166.24,155.1Z" fill="#093f68"></path><polygon points="141.37 173.02 122.69 215.31 164.98 215.31 170.62 188.39 141.37 173.02" fill="#665fd5"></polygon><path d="M165,216.31H122.69a1,1,0,0,1-.91-1.41l18.68-42.29a1,1,0,0,1,1.37-.48l29.26,15.37a1,1,0,0,1,.51,1.09L166,215.51A1,1,0,0,1,165,216.31Zm-40.75-2h39.94l5.32-25.39L141.85,174.4Z" fill="#093f68"></path><polygon points="222.07 215.31 164.98 215.31 167.03 205.52 170.63 188.38 187.76 179.17 191.18 177.33 201.68 171.69 209.04 167.73 222.07 215.31" fill="#665fd5"></polygon><path d="M222.07,216.31H165a1,1,0,0,1-1-1.21l5.65-26.92a1,1,0,0,1,.5-.68l38.42-20.65a1,1,0,0,1,.86,0,1,1,0,0,1,.57.66L223,215a1,1,0,0,1-.17.87A1,1,0,0,1,222.07,216.31Zm-55.86-2h54.55L208.41,169.2,171.51,189Z" fill="#093f68"></path><path d="M208.26,211.64a25.05,25.05,0,0,1-4.35,3.67H175.67a24.83,24.83,0,0,1-3.35-2.67,25.11,25.11,0,0,1-5.29-7.12,25.43,25.43,0,0,1,34.65-33.84,24.94,24.94,0,0,1,5.6,4A25.42,25.42,0,0,1,208.26,211.64Z" fill="#ffbc0e"></path><path d="M203.91,216.31H175.67a1,1,0,0,1-.55-.17,25.7,25.7,0,0,1-3.49-2.77,26.16,26.16,0,0,1-5.49-7.41,26.53,26.53,0,0,1-1.33-20.46,26.16,26.16,0,0,1,5.78-9.51,26.47,26.47,0,0,1,31.56-5.19A26,26,0,0,1,208,175a26.42,26.42,0,0,1,1,37.37h0a26.38,26.38,0,0,1-4.53,3.81A1,1,0,0,1,203.91,216.31Zm-27.94-2H203.6a24.09,24.09,0,0,0,3.94-3.36h0a24.43,24.43,0,1,0-40.84-24.8,24.57,24.57,0,0,0,1.23,18.92,24.06,24.06,0,0,0,5.07,6.84A24.39,24.39,0,0,0,176,214.31Zm32.29-2.67h0Z" fill="#093f68"></path><path d="M204.4,190.85a18.18,18.18,0,0,0-3.11-4.17L204,183.8a1.53,1.53,0,0,0-.06-2.16l-.35-.33a1.52,1.52,0,0,0-2.15.06l-2.67,2.82-2-1.87,2.71-2.85a1.53,1.53,0,0,0-.06-2.15l-.33-.32a1.53,1.53,0,0,0-2.17.07l-2.86,3-2.93-2.77-2.15-2L186.5,178c.25.22.42.4.61.57s.46.44.65.64c1.8,1.79,1.6,2.27-.55,4.53l-.36.36c-2.87,3-5.76,6-8.61,9-.8.84-1.56.94-2.39.09-.49-.52-1-1-1.59-1.52l-3.45,2.61,5.12,4.85L173,202.18a1.54,1.54,0,0,0,.06,2.16l.33.31a1.51,1.51,0,0,0,2.15-.06l2.78-2.94,2,1.94-2.79,2.95a1.53,1.53,0,0,0,.07,2.16l.32.32a1.54,1.54,0,0,0,2.17-.06l2.65-2.8s6.43,7.58,12.57,2c4.95-4.52,1.87-8.63,1.87-8.63a7.43,7.43,0,0,0,4.81-.81C205.49,196.67,205.6,194,204.4,190.85Zm-13.27,11.74c-1,1-2.35,1.19-4,.41a18.89,18.89,0,0,1-5.57-4.4l4.78-5a33,33,0,0,1,5.09,4.83A3.14,3.14,0,0,1,191.13,202.59Zm6.29-9a2.81,2.81,0,0,1-3.27.62,13.83,13.83,0,0,1-4.9-3.72c1.67-1.75,3.14-3.33,4.72-5a14.33,14.33,0,0,1,4,4.56A2.91,2.91,0,0,1,197.42,193.61Z" fill="#fff" stroke="#093f68" stroke-linecap="round" stroke-linejoin="round" stroke-width="2"></path><polygon points="213.12 168.26 246.43 194.16 246.43 215.31 199.86 215.31 213.12 168.26" fill="#665fd5"></polygon><path d="M246.43,216.31H199.86a1,1,0,0,1-.8-.4,1,1,0,0,1-.16-.87l13.26-47a1,1,0,0,1,.65-.68,1,1,0,0,1,.92.16l33.32,25.9a1,1,0,0,1,.38.79v21.15A1,1,0,0,1,246.43,216.31Zm-45.25-2h44.25V194.65L213.68,170Z" fill="#093f68"></path><path d="M213.12,168.26l33.31,25.9S298,178.09,295.55,177.9s-32.16-9.17-32.16-9.17Z" fill="#665fd5"></path><path d="M246.43,195.16a1,1,0,0,1-.61-.21l-33.32-25.9a1,1,0,0,1-.33-1.12,1,1,0,0,1,1-.67h0l50.27.47a.9.9,0,0,1,.28,0c11.91,3.6,30.25,9,31.95,9.13a1.11,1.11,0,0,1,1,.92c.13,1.12.15,1.35-25.25,9.5-12.17,3.91-24.52,7.76-24.64,7.8A1,1,0,0,1,246.43,195.16Zm-30.36-25.87,30.56,23.76c15.82-4.93,38.27-12.09,45.84-14.83-7.56-2-26.21-7.58-29.23-8.49Z" fill="#093f68"></path><polygon points="246.43 194.16 246.43 215.3 311.92 215.3 295.55 177.9 246.43 194.16" fill="#665fd5"></polygon><path d="M311.92,216.3H246.43a1,1,0,0,1-1-1V194.16a1,1,0,0,1,.69-.95L295.23,177a1,1,0,0,1,1.23.54l16.38,37.41a1,1,0,0,1-.08.95A1,1,0,0,1,311.92,216.3Zm-64.49-2h63L295,179.13l-47.57,15.75Z" fill="#093f68"></path><path d="M192.94,118.86a1,1,0,0,1-1-1l-.92-20a1,1,0,0,1,2-.09l.91,20a1,1,0,0,1-.95,1Z" fill="#dfeaef"></path><path d="M200.26,120.62a1,1,0,0,1-.82-.43,1,1,0,0,1,.24-1.39c.86-.65,8.87-9.48,13.72-14.89a1,1,0,0,1,1.41-.08,1,1,0,0,1,.08,1.41c-2.14,2.39-12.87,14.36-14,15.19A1,1,0,0,1,200.26,120.62Z" fill="#dfeaef"></path><path d="M203.12,128.2a1,1,0,0,1-1-.88,1,1,0,0,1,.87-1.11l11.83-1.46a1,1,0,1,1,.25,2l-11.83,1.46Z" fill="#dfeaef"></path><path d="M321.79,216.31h0c-2.41,0-241.64,0-243.57,0h0a1,1,0,0,1,0-2c1.94,0,241.18,0,243.59,0a1,1,0,0,1,0,2Z" fill="#093f68"></path></g></svg>