<svg xmlns="http://www.w3.org/2000/svg" xmlns:xlink="http://www.w3.org/1999/xlink" viewBox="0 0 400 300" width="406" height="306" class="illustration styles_illustrationTablet__1DWOa"><defs><linearGradient id="linear-gradient" x1="124.16" y1="243.69" x2="193.69" y2="166.73" gradientUnits="userSpaceOnUse"><stop offset="0" stop-color="#fff" stop-opacity="0"></stop><stop offset="1" stop-color="#4d4d4d"></stop></linearGradient><linearGradient id="linear-gradient-2" x1="203.67" y1="160.62" x2="206.66" y2="188.79" gradientUnits="userSpaceOnUse"><stop offset="0" stop-color="#88a80d" stop-opacity="0"></stop><stop offset="1" stop-color="#00a99d"></stop></linearGradient><radialGradient id="radial-gradient" cx="190.45" cy="85.36" r="52.02" gradientUnits="userSpaceOnUse"><stop offset="0" stop-color="#fff"></stop><stop offset="1" stop-color="#fff" stop-opacity="0"></stop></radialGradient></defs><title>0</title><g style="isolation: isolate;"><g id="Layer_2" data-name="Layer 2"><path d="M357.52,159.44l-121-70.38a5.72,5.72,0,0,0-5.72,0l-181,103.58a5.72,5.72,0,0,0,0,9.92l115.73,66.82a18.68,18.68,0,0,0,18.68,0l173.3-100A5.72,5.72,0,0,0,357.52,159.44Z" fill="#3c3c3d"></path><ellipse cx="199.56" cy="180.46" rx="71.94" ry="41.07" fill="none" stroke="#0071bc" stroke-miterlimit="10"></ellipse><polygon points="245.67 196.34 142.33 254.51 73.2 212.95 161.06 158.41 245.67 196.34" opacity="0.63" fill="url(#linear-gradient)" style="mix-blend-mode: multiply;"></polygon><path d="M146.73,79.79l0,0h0Z" fill="none"></path><path d="M135,94.48l-.25.4a1.42,1.42,0,0,1,.56-.14C135.31,94.5,135.18,94.47,135,94.48Z" fill="#139197"></path><path d="M134,97.74c-.2-.64-.43-1.19.34-1.32.32-.05.51-.34.75-.58s.05-.38,0-.61l-.6.29a1,1,0,0,1,0-.18q-.59,1-1.15,2A6.42,6.42,0,0,0,134,97.74Z" fill="#139197"></path><path d="M150.21,181.28l.79-4.18a14.15,14.15,0,0,0,.35-1.86,10.32,10.32,0,0,0-.2-1.6,4.87,4.87,0,0,0-.17-1.42c-.19-.3-.81-.56-1.08-.75l-1.61-1.12a3.2,3.2,0,0,1-1-1.38l-2-3.71-1.63-3.06c-.34-.63.23-1.79.39-2.44a4.35,4.35,0,0,1,.32-1.3l.93-1.2c.69-.89,1.29-1.4,1.11-2.66,0-.28-.21-.44,0-.65,0,0-.07-.43,0-.58.09-.38-.76-.73-.67-1.1s.09-.4-.29-.62-.27-.14-.55,0a2.91,2.91,0,0,0-.55.45c-.1.09.18.41.24.52-.54.23-.51.29-.76-.29-.11.32-.65-.22-.94-.28s-.26.15-.36.08l-.49-.37c-.34-.25-1-.57-1.23-.93s-.1-.78-.35-1.07c-.63-.73-1-1.38-1.91-1.63-.69-.19-1.83-.24-2.37-.77l-1.43-1.41c-.31-.31-.75,0-1.12.13-.84.26-1.71-.35-2.51-.68l-2-.79a2.47,2.47,0,0,1-.75-.31L127.1,143c-.39-.4-.16-.63,0-1.19.1-.36-.57-1.07-.75-1.36a4,4,0,0,0-.67-.81l-1.37-1.27c-.1-.1,0-.39.05-.52s-.22-.36-.3-.46l-.28-.36q0,1.29.13,2.57c.18.15.39.4.36.61s-.17.33-.3.31A76.44,76.44,0,0,0,148.54,191c.09-.95.2-1.89.37-2.81Z" fill="#139197"></path><path d="M146,123.17c.48.46,1.52-.43,1-.64l.44-.38c-.3.12-.93.6-1.14.51-.38-.17-.86.06-1.26.15C144.24,123.88,145.7,122.84,146,123.17Z" fill="#139197"></path><path d="M144,123.88a.8.8,0,0,0-.79.29c-.21.19-.36.4-.66.25a.53.53,0,0,1,.41-.39c-.11-.16-.13,0-.19-.26a5.36,5.36,0,0,0-.58.89l.46.13-.1.14c.63.06.9-.25,1.44-.45a5,5,0,0,0,1.36-.79c0-.15,0-.23-.1-.33C145.22,123.66,144.27,123.89,144,123.88Z" fill="#139197"></path><path d="M132.49,114.69c0,.07,0,.14,0,.22a.24.24,0,0,0,.07-.13c.22.08.16.37.13.59.06-.13.18-.26.33-.19s-.09.34-.12.46a1.13,1.13,0,0,1,.26-.13.74.74,0,0,0-.22.84c.09.3.27-.05.26-.22.06,0,.12,0,.18.07-.12-.27.1-.56-.08-.72a2.17,2.17,0,0,1-.38-.77c-.14-.36-.83-1.86-.52-2l-.07,0c-.1.12-.12.1-.27.13a.42.42,0,0,1,.29-.32l-.16-.13c-.22.4-.22.52.1.75-.25-.11-.71-.35-.81,0-.18.66-.07.53.41.66-.56.12.13.79.27,1.07l.19.11C132.35,114.65,132.32,114.78,132.49,114.69Z" fill="#139197"></path><path d="M275.9,142.24c0,.21,0,.64-.32.45-.1-.05-.21-.54-.26-.67.12,0,.23-.12.35-.15a1.27,1.27,0,0,0-1.45-.18c-.35.28-1.2.7-1.35,1.17,0,.14-.32.75-.25.87l.63,1c.3.48.67.91,1,1.36s.68.75.71,1.46c0,.44.26,1.47-.06,1.77a35,35,0,0,1-2.82,2.39c-.33-.34.13-.84-.11-1.09l-.95-1a2.4,2.4,0,0,0-1.78-1l.07-.56c-.75,0-.61.13-.67.95a5.32,5.32,0,0,1-.45,1.4,1.48,1.48,0,0,0,0,.62c0,.4,0,.33.4.31.19,0,.42,1.19.48,1.41s.82.7,1.1.91a3.06,3.06,0,0,1,.81.92c.17.43,0,1,.09,1.49a10.45,10.45,0,0,0,.51,1.28,3.48,3.48,0,0,1-1.54-.92c-.48-.38-.52-.6-.72-1.23a6,6,0,0,0-.58-1.75L267.4,152c-.2-.22.08-1.41.12-1.74a12.6,12.6,0,0,0-.12-1.92,14.05,14.05,0,0,0-.83-3.4l-.72.89c-.31.38-.28.37-.74.26s-.45-.07-.37-.6c0-.23.22-.83.13-1a4.3,4.3,0,0,0-1.11-1.9,4.41,4.41,0,0,1-1-1.81c-.27.19-.65.6-1,.64l-1.68.23c-.07,0-.43,0-.48.07s.07.49,0,.6l-.83.85-2.35,2.41a4.26,4.26,0,0,1-1.12.56c-.42.2-.26.51-.26,1a5.85,5.85,0,0,1,0,1.45c-.1.38-.41,1-.31,1.37a2.66,2.66,0,0,0,.63,1.35,4.74,4.74,0,0,1,.71,1.33c.38.89-1.13,1.67-1.24.47a10.69,10.69,0,0,1,0-1.56c0-.52-.17-.6-.52-1,0,.37,0,.74-.27.94l-1,.62c-.88-1.67-1.63-3.4-2.4-5.13a8.54,8.54,0,0,1-.64-1.47,6.73,6.73,0,0,1,0-1.17q-.05-1.67-.1-3.33l-.7,1c-.23.33-.26.28-.65.27s-.94-.85-1.25-1.18c.31-.07,1,0,1-.46a2.1,2.1,0,0,1-.56,0,6.44,6.44,0,0,1-1.37-.78c-.28-.16-.47-.89-.61-1.2s-2.51.19-2.91.24a8,8,0,0,1-2.61-.44c-.38-.09-.81,0-1-.43-.35-.68-.26-.88-.94-.63a2.55,2.55,0,0,1-1.52,0c-.37-.06-.61-.52-.95-.68a1.48,1.48,0,0,1-1-1c-.2-.43-.28-1-.74-1.06-.79-.11-.78-.08-1.33.56-.18.22.47,1,.61,1.25.49.82.91,1.69,1.35,2.54.06-.38.12-.77.19-1.15a3.66,3.66,0,0,1,.28,1.82,4.9,4.9,0,0,0,2-.25,8.39,8.39,0,0,0,1.39-1.59c0,.48-.08,1.27.32,1.54a5.05,5.05,0,0,0,.73.5c.23.1.49,0,.62.26s.25.67.45.7.2.3.18.65-.75,1-1,1.22c0-.11-.1-.22-.12-.33a2.34,2.34,0,0,0-.3,1.13c0,.42-.16.37-.51.54l-1.08.52c-.21.1-.21.7-.41.8s-.43-.14-.61-.06l-.79.35c-.36.16-.31.65-.64.77l-1.79.64c-.18.06-.21.16-.32.33s-.33.2-.57.25c-.52.1-1,.27-1.53.4s-.45.53-.87.53c-.64,0-.7.14-.82-.52l-.38-2a7.7,7.7,0,0,0-1.24-2.64c-.32-.53-.37-.63-.92-.84-.32-.12-.31-1.09-.38-1.42a5.51,5.51,0,0,0-.64-1.43c-.14-.27-.45-.4-.62-.7l-1.07-1.91c-.18-.31-.31-.86-.73-.75,0-.39.11-.78.16-1.18l-.46,1.41a6.48,6.48,0,0,1-1.16-1.76c-.38.48.29,1.28.51,1.71l1.31,2.67c.26.53.17,1.13.55,1.55.17.18.58.47.62.73.07.45.14.9.21,1.35,0,.26,0,.76.21,1a5,5,0,0,1,.8.77,11.58,11.58,0,0,1,.77,2.1c.08.22.71.19.87.37l.73.85c.4.47,1.22,1,.59,1.6.43.13.89,1,1.23.92l3.5-.94c.22-.06.84-.32,1,0s-.3,1.31-.35,1.55a11.4,11.4,0,0,1-1.33,2.63,9,9,0,0,1-1.22,2,26.67,26.67,0,0,0-4.11,4.66c-.24.4-1.74,2.45-1.5,2.82a1.78,1.78,0,0,1,.38,1.53,1.42,1.42,0,0,0,.41,1.31c.63.86.42,2.19.47,3.26a2.43,2.43,0,0,1-1.25,2c-.36.17-1.08.34-1.35.65l-1.05,1.23c-.31.36-.69.53-.49,1,.13.31.61,1,.57,1.38a5.41,5.41,0,0,1-.18,1.66c-.18.29-1.06.51-1.36.65-.5.24-.39.46-.44,1.07a4.6,4.6,0,0,1-.15,1.47,25,25,0,0,1-1.8,2.55,14.83,14.83,0,0,1-1.2,1c-.22.19-.66.75-.94.81l-3.13.66-1.44.3c-.23,0-.7-.56-.87-.72-.57-.51-.55-.5-.46-1.32,0-.31-.32-.87-.43-1.15l-.73-1.82c-.14-.36-.59-.64-.86-.9s-.18-1-.21-1.27l-.32-2.08a8.46,8.46,0,0,0-1-2.49l-.8-1.62c-.12-.24,0-.69.08-.93a9.28,9.28,0,0,1,.78-3.33c.56-1,.22-1.77,0-2.79L208,162c-.08-.34-.52-.73-.72-1l-1.13-1.51c-.2-.27-.06-.62,0-1,.08-.69.16-1.38.24-2.07s.1-.63-.24-1.09-.37-.59-1-.55c-.35,0-1.06.24-1.32-.07l-1.08-1.33a7.46,7.46,0,0,0-2.63.3l-1.56.79c-.41.21-.59.1-1,0a1.83,1.83,0,0,0-1.21-.11l-1.71.6c-.27.1-.58-.27-.79-.43l-1.64-1.18a4.06,4.06,0,0,1-1.46-1.48l-2.09-3.63-.67-1.17c-.1-.18.27-.86.33-1s.48-.91.4-1.26c-.13-.58-.26-1.15-.39-1.73a5.71,5.71,0,0,1-.33-1.48,3.16,3.16,0,0,1,.44-.8l2-3.64a4.3,4.3,0,0,1,1.84-1.61c.42-.27.61-.27.68-.79l.29-1.92c.12-.76,1.62-.89,1.91-1.63.21-.51.3-1.23.81-1.37.13,0,.51.66.93.57.18,0,.61-.23.79-.13s.48.34.57.28a14.08,14.08,0,0,1,1.23-.73A9.56,9.56,0,0,1,202,129a2.49,2.49,0,0,1,.8-.09,2,2,0,0,0,.64.21c.21,0,.42-.26.63-.3a3,3,0,0,1,.59,0,2.18,2.18,0,0,0,1.45-.17c.4-.24.77.08,1.18.25-.3.67-.37.7,0,1.34.16.29-.46.74-.66,1,.33.3.74.84,1.15.95l2.14.57c.55.15.4.75.94,1s.93.13,1.37.44c.62.44,1,.55,1.35-.24.09-.19-.21-.47-.11-.64s.24-.58.39-.62a2.69,2.69,0,0,1,1.73-.12c.15,0,0,.36.21.4l1,.2c.26.05.27.18.4.44s.32-.16.43-.13l1.55.46a1.17,1.17,0,0,0,1.18-.1c.59-.29.65-.38,1.24-.1a1.5,1.5,0,0,0,2.11-.66c.2-.55,1.17-2.27.79-2.83-.24-.36.29-1.12.16-1.26s-.34.09-.46.19-.34-.18-.49-.15-.36.45-.55.54a2.36,2.36,0,0,1-.72,0c-.45,0-.64-.46-1-.54s-.5-.21-.6.09-.12.34-.47.41-.9-.41-1.18-.57c-.51-.29-1.39-1.77-.84-2.39l-.55.06c-.08-.61.71-.77,1-.78a2.72,2.72,0,0,0,1.52-.34l-.52-.27c.11-.3.74-.17,1-.13.53.08.56-.07,1-.35a1.92,1.92,0,0,1,1-.43,2.88,2.88,0,0,0,1.23,0c-.1.17.07.33.26.42s.18-.25.48.17c.11.15.91.27,1.17.38.44.17.71-.09,1.15,0a1.82,1.82,0,0,0,1.27-.4c.35-.22.16-.84-.06-1.09s-.7-.42-1-.74-.65-.78-1.14-.84a4.74,4.74,0,0,1-.49-.29c-.2-.13-.38-.29-.57-.43l.16-.22.54.11c-.17-.58.21-.76.63-.75-.2-.17-.47-.32-.58-.56l.54,0c-.13-.41.41-.11.49-.36s-.34-.17-.47-.15a1.72,1.72,0,0,0-1.25.5v-.15a1.89,1.89,0,0,0-1.08.57l.09-.19c-.51-.06-.28.58-.07.82s.67.15,1.09.15c-.3.54-.64.14-1,.31s-1,.79-1.39.49c.23-.63-.07-.55-.59-.8.26-.14,1.26-.5.58-.73a1.9,1.9,0,0,0-.68,0c-.16,0-.38-.23-.51-.33.28,0,.63.17.77-.15-.3.15-1.06-.2-1.24,0s-.78.67-.82,1a2.65,2.65,0,0,1-.12.73c-.1.14-.49.12-.52.3-.11.55-.09.95-.53,1.24s-.33.79-.13,1.19.83.58.79.7c-.12.35-.75-.1-1,.12l-1,1c0-.37.17-.44.43-.6-.2-.08-.43-.09-.66-.18a6.31,6.31,0,0,0-.88-.14c-.16,0-.36.09-.51.15s.05.32,0,.38c-.28.23-.48,0-.72-.15-.26.29,0,.57.18.84s.25.37-.08.71c.43.3.9.41.81,1-.26-.2-.44-.44-.71-.1.34.06.36.27.13.46s-.13.31,0,.62c-.29-.06-.51,0-.63-.3s-.24-.18-.45,0c-.22-.76-.38-.83.21-1.31-.55,0-.55-.07-.87-.56-.19-.28-.32-.75-.56-.95-.43-.36-.27-.62-.22-1.21s-.13-.54-.54-.86a4.31,4.31,0,0,0-1.81-1.1c-.17,0-.56-.54-.62-.72a1.44,1.44,0,0,0-.61-1c-.18.55-.4.28-.48-.12s0-.29-.42-.18-.67.16-.41.64c.09.17-.24.56.06.79a4,4,0,0,1,.84.63c.19.27.16.68.41.9s.45.47.83.49.67,0,.29.31c.35.29,2.11,1,1.66,1.61-.18-.09-.69-.79-.89-.59a.79.79,0,0,0-.31.54c-.06.25.11.24.29.37.51.4-.35.51-.32.75s-.64.94-.63.39a.72.72,0,0,0-.24,1c.17.34-.53.46-.61.18-.15-.5-1.83-.44-1.17-1.17a3.09,3.09,0,0,0,2.08-.06c.22-.15,0-.3.26-.42s-.23-1.12-.35-1.14-.47,0-.44-.24a.27.27,0,0,0-.42-.27c0-.23-.46-.6-.66-.58-.36.05-.56-.31-.82-.56-.46-.45-1.09-.67-1.23-1.29s-.14-.62-.62-.87c-.25-.14-.57-.24-.75,0a6.34,6.34,0,0,1-1.62,1.08l-1.31-.43c-.22-.07-.57.4-.74.56s.17.75,0,1-.76.39-1,.51c-.71.37-.93.94-1.36,1.68-.13.21.43.42.16.77s-.59.58-.46.85c-.16,0-.52.05-.61.2s-.25.53-.39.55a9.83,9.83,0,0,1-1.36,0c-.4,0-.64.48-1,.58s-.8-.55-.45-.8c-.35.17-.52-.43-1-.17s-.61-.1-.93.14a2.9,2.9,0,0,0,.1-.79c0-.15,0-.29,0-.44s-.16,0-.22-.05c-.27-.41-.07-.51,0-1s.44-1.14.25-1.57a2.19,2.19,0,0,1,0-1.27c-.25.2-.41-.18-.31-.42s.56-.22.72-.25A1,1,0,0,0,194,123c.43-.39.63.14,1,0a1.77,1.77,0,0,1,1.24,0c.4.13.74-.08,1.1.06a2.29,2.29,0,0,0,1,.11c.71-.15.62-1.53.61-2.1s.09-.71-.42-.86c-.29-.09-.33-.61-.27-.77-.27.06-.17-.1-.28-.15s-.43-.07-.48-.11c-.22-.17-.3-.28-.56-.26a.39.39,0,0,1-.44-.22c.08,0,.15-.06.22-.07a.45.45,0,0,1-.29-.43,1.65,1.65,0,0,0,.89-.16c.54-.38.23.3.58.21.13,0,.8-.14.77-.32a3.09,3.09,0,0,0-.27-.84c.14,0,.41,0,.46.12s0,.23.25.26a1.51,1.51,0,0,0,.95-.13c-.09,0-.18-.07-.27-.08a2,2,0,0,1,.86-.51c.42-.2,0-.48.18-.81.09-.15.73-.29.92-.38a1.46,1.46,0,0,1,.88-.11c-.12,0-.47-.08-.48-.23s.32-.06.35-.09,0-.22.07-.3a1.77,1.77,0,0,0,.35-.84c0-.18.33-.14.44-.27.37-.45.74-.19,1.18-.33.06,0,0-.23.11-.25l.37-.05a2.14,2.14,0,0,1,.57.06c-.07-.35.23-.26.47-.29-.13-.05-.5-.36-.32-.51s0-.22-.06-.53.09-.5-.18-.73-.17-.3-.18-.61c0-.51.08-1.08.61-1.1s.74-.45,1.13-.65c-.27.4-.41,1.24.18,1.39-.34.55-1,.73-.88,1.46.09.53.59,1,1.09.75l-.2.43c.49.29.91-.41,1.33-.46a.89.89,0,0,1,.61.4c.08.28.34.35.57.48a.81.81,0,0,0,0-.27l-.41,0c.3-.19,1.35-.21,1.56-.49a1.45,1.45,0,0,1,1.77-.34s-.21-.08-.3-.13c0,.46.64.52.87.24.09-.11.13-.38.19-.43s.18,0,.24-.06.36-.22.48-.4a1.21,1.21,0,0,1-.3.43c.77.38.31-1,.29-1.4a1,1,0,0,1,.23-.72c.16-.2,0-.51.3-.71.69-.51.86.62,1.37.66.28,0,.48-.39.44-.63s.11-.81.06-.84-.22.12-.28.08a3.48,3.48,0,0,1-.31-.33c-.08-.09-.22-.66-.14-.7a3.34,3.34,0,0,1,1.61-.45l1.18.15c.54.07.08-.13.4-.34s.51,0,.76-.2.55,0,.75.08c-.11-.37-.84-.5-1.16-.63.05-.08.05-.22.12-.3-1.1.21-2.24.48-3.36.7-.12,0-.58.19-.65.07a1,1,0,0,0-.64-.56c-.44-.18-.4-.14-.32-.65a1.69,1.69,0,0,0,0-.85,3.4,3.4,0,0,1-.26-1c0-.22.49-.56.64-.73.36-.41.84-.67,1.18-1.1.18-.21.45-.73.68-.85s.57.11.44-.33a1.1,1.1,0,0,0-1.12-.84c-.77,0-.83-.06-1.37.54-.34.38-.52.69-.24,1.17s-1.83,1.51-2,1.74c-.52.66-1.4,1.7-.84,2.67.24.42.93.4,1.15.88s-.42.63-.67.85c-.43.37-.77.52-.85,1.11a7.28,7.28,0,0,1-.24,1.61c-.26.6-.7.6-1.22.71-.2,0-.19.29-.25.5s-.22.18-.45.19-.4.11-.46-.29a1.8,1.8,0,0,1-.07-.74c.15-.42-.45-.92-.69-1.25-.1-.14,0-.4-.12-.56a3.52,3.52,0,0,1-.32-.66c-.05-.21.14-.59-.1-.64s-.24-.41-.31-.62c-.15.57-.26.62-.7.95s-.56.57-.89.77c-.5.3-1.77.15-1.79-.63,0-1-.4-1.87-.35-2.82s.1-.82.69-1.32a5.15,5.15,0,0,1,1.06-.63,3.44,3.44,0,0,0,1.21-.77c.32-.36.63-.69,1-1a11.06,11.06,0,0,0,1.61-2.44,16.44,16.44,0,0,1,1.87-2.22,6.79,6.79,0,0,1,2.07-1.9,23,23,0,0,1,2.88-1.06c.38-.11.57-.73.92-.93a2.08,2.08,0,0,1,1.19-.21,2.77,2.77,0,0,0-.85,1.43c.43-.08.8-.8,1.08-1.15q.07.33.13.65l.58-.78c.08-.11.58,0,.72,0l-.36.6c.51.39.22-.56.64-.4l1.32.52c.37.15-.32.5-.46.53a4.06,4.06,0,0,1-1.08-.1c.17.3.51.19.65.54,0,.09.48-.05.64,0,.38,0,.74.2,1-.14.11-.16.58.19.75.27-.09.35-.42.13-.67.06-.11.73,1.15.45,1.49.46a3.13,3.13,0,0,1,1.67.57,9.11,9.11,0,0,0,1.75.83,1.91,1.91,0,0,1,1.3,1c.18.55.15.54-.15,1-.19.29-.25.47-.56.58a2.31,2.31,0,0,1-1.61.1,15,15,0,0,1-3.54-1.2c.35.35,1.35,1,1.35,1.54s-.09,1.6.39,1.81,1.25.86,1.78.64c.31-.13.15-.64-.16-.64s-.45-.29-.66-.56c.5-.45.53-.35,1.14-.14l1.49.52a7.76,7.76,0,0,1-.38-1.13l1.12-.75c.2-.13.56-.51.8-.44l1.18.35c.05-.22.24-.64.16-.86,0-.06-.41-.69-.43-.61.09-.37.18-.73.26-1.09,0-.13-.39-.51-.48-.62l1.43.19c.36,0,.6.59.82.89-.24,0-.94,0-1.06.18s.18.59.4.89.62.12,1,.06.13-.4.37-.72c.11-.15.52-.24.68-.31l1.3-.59,2-.9c.19.62.19.62.76.76.38.09.57-.61.9-.58a1.87,1.87,0,0,0,1.22-.08,1.38,1.38,0,0,1,1.2-.1l-.25.44c.61.18.58.21,1-.33s.13-.54-.24-1a4.18,4.18,0,0,1,3,.11l1.77.7a6.69,6.69,0,0,1,1.22.93c0-.22.25-1,.07-1.1l-1.3-1c-.29-.21.17-.82.3-1.11s-.57-.5-.76-.63l1.28-1c.29-.23.41-1.07.53-1.43s2.19,0,2.66.07l-.55,1.5c-.1.26.35.86.46,1.11.21.44-.49,2.4-.14,2.64s.89.33.67.86c-.13.29-.27,1-.54,1.15l-1.38.84c-.2.13-.82-.09-1.06-.12a2.13,2.13,0,0,0,2,.64,6.18,6.18,0,0,0,1.8-1.55c.52-.53-.82-1.32.28-1.66.21-.06.81-.39,1-.19l.84,1c-.06-.42,0-.83-.35-1.07a1,1,0,0,0-1-.24c-.13,0-1.2.26-1.23.16-.08-.29-.35-.82-.22-1.1s.57-.82.34-1.17-.77-.83-.56-1.15.65-.48,1.08-.65,0-.87,0-1.06c.23-.06.69.57.55.83-.32.61-.28.6.05,1.2.23.41,1.91.41,2.34.45a18.86,18.86,0,0,1-1.8-.74c-.69-.32.5-.83.77-.92a2.47,2.47,0,0,1,2,.25,4.43,4.43,0,0,1,.71.44c.22.15.53,0,.79,0a3.19,3.19,0,0,0-.33-.89c-.16-.15-.74-.12-1-.16s-.33-1.27-.39-1.58l2.77-.28,1.56-.16c.35,0,.21-.4.22-.75,0-.68,0-.69.49-1l0,0A76.63,76.63,0,0,0,153.79,73.66a3.16,3.16,0,0,1,1.14,0,15.8,15.8,0,0,1,2.59.69,7.4,7.4,0,0,1-2.25,1.14l-3,.22,1.35.23-2.32.69,3.81-.77c0,.62-1.71,1-2.22,1.37a5.46,5.46,0,0,1-1.33.81l-1.49.3.93,0a2.8,2.8,0,0,1-.95.75c-.29.15-.7-.07-1-.15l.14.46c-.81.16-1.63.25-2.45.34l0,0c.46,0,1.59-.09,1.49.44H146.8c.34.09,1.42.13,1.37.64l-1.23.16.7.38a1.46,1.46,0,0,1-.93.69c-.25.09-.8-.28-1-.15s.45.36,0,.71c-.14.12-.88.66-.73.89s.18.18.44,0,.27,0,.5.1.11.41.12.56-.32.18-.42.21-.27-.14-.31-.12-.18.27-.3.32l-1.23.37c.09-.36.21-.48-.08-.71s-.35.24-.64-.08c0,.45-.44.34-.69.11l-1,1.22.1,0c.39-.14.7,0,1.06-.07a2.49,2.49,0,0,1,2.34.72l-.51.38a1.06,1.06,0,0,1,.6.24c-.37.12-.5.09-.62.49,0,.18-.84.2-1,.23a1.45,1.45,0,0,1-.77-.15c-.32-.11-.08-.6-.52-.59,0,.17.06.35.09.52-.32,0-1,.35-1.08-.12-.12.46-.7.34-.93,0,0,.09,0,.21,0,.31h-.32q-.59.75-1.15,1.52a2.25,2.25,0,0,1,.47-.28,3.05,3.05,0,0,1,2-.24c-.05.2-.1.4-.15.6a8.06,8.06,0,0,0,1.58-.54,2.16,2.16,0,0,1,.77,0c.29,0,.22.4.39.62s.29.2.44.51.16.45-.07.87.1.35.31.15c.38-.38.34-.36.79-.09.13.07.49-.38.6-.49s.62-.11.83-.14a2.21,2.21,0,0,1,1.43.56c.26.25.9,1.26,1.16,1.17.44-.16,1.24-.25,1.43.38-.16.09-.83.39-.77.57.15.42.65.08.79-.24s1.64.55,1.93.7c-.12.41-.68.41-1,.52.26,0,.55,0,.45.37.27-.14.65-.21.71-.59.25.17.64.34.64.72a1.29,1.29,0,0,0-1,.27,1.38,1.38,0,0,0,.71.18c.45-.08.42-.1.59.38l-.88-.18.09.59-.63.08c.74.33,1.48.62,2.24.91a1.58,1.58,0,0,1,.76.56c.32.35.53.33,1,.4l-.3.46a3.42,3.42,0,0,1,1.14,0c.47.2.29.5.23,1-.23,0-.59-.2-.74,0l.53.26c-.53.28-.74.56-1.25.2a2.94,2.94,0,0,1,0,1.2,3.32,3.32,0,0,1-1.35-1.08c.27-.12.68-.16.56-.59-.17.06-.55.29-.72.26s-.45-.49-.67-.61-.44-.17-.59.06.18.32.2.7l-.58-.08.19.59c.29-.11.36-.25.47.08l.27.84c.09-.44.3-.24.57-.12s.29.24.37.63.35.22.5.46a3.28,3.28,0,0,1,.12.92l-.35-.46c-.21.37.32.47.16.85-.08,0-.18,0-.26-.08l.16.43c-.15,0-.54-.47-.77-.61l-1.27-.8c.06.11.06.25.12.36l-.74-.33.42.73c.1.18.49.14.65.25l.77.55c.25.18.15.3.11.64l-2.08-.54c-.25-.06-.24-.38-.39-.42l-1.06-.27.12-.18a1.51,1.51,0,0,1-.88-.33l.56-.28c-.32-.18-.69-.14-.88-.45-.36-.55-.35-.89-.9-.53,0-.24-.13-.36-.35-.33,0,.1-.06.23,0,.33-.32-.08-.66-.28-.92,0s-.69.17-1,.19-.6-.43-.48-.65.62-.38.56-.73a4.26,4.26,0,0,0,1.61.12c.13,0,.9-.15,1-.27s-.45-.54-.58-.64l1.29-1.3c.11-.11.31-.2.22-.36l-.54-1c-.28-.5-.85-.37-1.11-.82s-.17-.32-.52-.18l-.79.3c0-.67.12-.57.69-.74-.31-.26-1-1.14-1.37-.74,0-.18-.07-.35-.11-.53s-.32,0-.43,0c-.32-.15-.28-.8-.72-.38.35.1.4.28.56.62a3.79,3.79,0,0,1-2.19-.23l.63.59c-.28.1-.35-.26-.6-.28-.09,0-.16.26-.26.22l-.51-.2a5.83,5.83,0,0,0-1.71-.1,1.8,1.8,0,0,1-.77-.2c-.31-.28.1-.44-.46-.39-.25,0-.39.26-.7.09a2.42,2.42,0,0,1-1-1l1.63.14c-.54-.58-1-.5-1.78-.57-.08,0-.16-.81-.18-.93s.29-.8.38-1l0-.08q-1.06,1.49-2.06,3c.22.25.51.49.66.68l-.94.63c.31.12.56.33.85.13s.55,0,.85.2l-.45.31c.3.26.46.26.36.67s-.16.49.19.72a1.56,1.56,0,0,0,.37-.85c0-.15.14-.74.4-.58s.74.32.79.53.3.75-.13.89c0-.08,0-.17,0-.26-.88.49,1.08,2.24,1.16,1.29,0-.27,0-.43.18-.6s.39-.26.39-.41c0-.71,0-.67.61-.94-.24-.37-.46-.56-.37-1s.34-.33.73-.27,1,0,1.14.23a1.32,1.32,0,0,0,.93.56c-.2.37.12.61-.09.87s-.6.1-.8.12a2.9,2.9,0,0,0,.6,1c.32.3.46.53.12,1a4.25,4.25,0,0,1-1.09.67c-.3.18-.51-.21-.75-.43l.36.83-.57-.3c0,.08,0,.15.07.23l-.58-.14c-.13,0,0-.36-.16-.36-.29,0-.7-.11-.85.23l.54.32a2.31,2.31,0,0,1-.65.81c-.43.24-.58,0-1-.2a4.42,4.42,0,0,0-2.06-.36l1.59.8a5.09,5.09,0,0,0,1.45.18c-.17.29-.45,1.07-.73,1.2s-.39.25-.56.24-.44-.1-.63,0c-.58.41-.63.44-1.29.24-.42-.13-.84-.23-1.26-.34l.84.38c-.06.05-.1.13-.16.18a.93.93,0,0,1,.92.12c.21.12.54.43.18.59a1.62,1.62,0,0,1-1,.16c-.13,0-.35.47-.42.57a5.85,5.85,0,0,0-1,1.74c-.15.72-.3,1.45-.45,2.18.29.07.93.07,1.14.27s.38,1.07.5,1.39c.21.59.34.37.91.25.3-.07.63.14.91.24a8.18,8.18,0,0,1,2.2,1.12c.24.17.69.66,1,.69l1.26.14c.15,0,1,0,.95.18,0,.59-.05,1.17-.07,1.75,0,.81.78,1.43,1.25,2s1.44-.49,1.36-1l-.26-1.56c0-.28-.41-.64-.56-.88.51-.33,1.5-.7,1.86-1.21a2.16,2.16,0,0,0,0-2.11,6.2,6.2,0,0,1-.79-.84c-.32-.45-.43-.42,0-.79s.48-.35.32-.94c-.09-.32-.29-.71-.19-1a1.58,1.58,0,0,0,0-1.29c-.11-.37.12-.49.5-.54.69-.09,1.33.52,2,.2.43-.2.55,0,.94.31.19.14.73.37.79.63s.31.68.74.61a1.45,1.45,0,0,1,.89.27c-.18.31-.29.4-.23.75a1.67,1.67,0,0,1,0,1c.09,0,.19,0,.28,0-.17.21-.65.55-.39.79.44-1.32,2,1.56,2.37-.22.07.08.21.09.28.17.18-.38.47-.75.39-1.17s.38-.89.68-.82q-.06.24-.11.48c.69,0,1.15,1.45,1.48,2,.18.32.74.95.76,1.31,0,.2-.34.47-.3.66s.36.29.43.35a2.55,2.55,0,0,1,.57.45c.13.21-.08.44.2.45a1.88,1.88,0,0,1,1.19.34c.3.21.9.49.24.59a7.21,7.21,0,0,0-1.09.32c.22.08.51-.08.75-.15-.16.29-.68.32-1,.41s-.19.66,0,.46a.74.74,0,0,1,.43-.27c.17-.06.11-.16.21-.22a2,2,0,0,1,.85-.24.44.44,0,0,1-.31-.17c.21,0,.62,0,.71.27s-.24.3,0,.55c.24-.44.52-.21.9-.09s.07.67,0,.84c-.12.33.26.44,0,.82a2.29,2.29,0,0,1-.82.5c-.29.08-.57,0-.9.12a1.59,1.59,0,0,0-.7.57,1.63,1.63,0,0,1-1.65.55,12.89,12.89,0,0,0-2.17,0c-.65,0-1.33-.18-1.51.69,0,.23-.68.3-.86.42a5.66,5.66,0,0,0-.77.83,9.61,9.61,0,0,1-1.19,1.41c.88-.43,1.35-1.36,2.23-1.78.6-.29,2.24-1.22,2.67-.13-.07,0-.15-.05-.22-.09.44.3-.16.52-.38.72s-.52-.19-.85,0c.13,0,.45.39.47.39a1,1,0,0,1,.6,0,1,1,0,0,1-.4.62c.1,0,.23,0,.33,0-.17.46.32.83.67.92l-.12.09c.51.25,1,.46,1.45.13l0,.24a.69.69,0,0,0,.3-.09c-.3-.39.31-1,.52-1.28.4.15.17.5.08.81.29-.23.71.22.46.33a1.75,1.75,0,0,1-1,.28c.08.07.12.19.2.26l-1.25.51a1.51,1.51,0,0,0-.46.23c-.18.16-.23-.21-.38-.08s-.54.67-.84,1-.41-.08-.53-.13c-.44-.63.62-1.17,1-1.43s.13,0,.25.14.38-.08.6-.27c-.28,0-.63-.11-.87.06a1,1,0,0,1,.23-.45c-.33-.08-.74.34-1,.52s-.17-.14-.38.1-.34,0-.48,0c.21.68-.93.43-1.09.74l-.14-.14c-.18.36-.34.4-.68.53s-.23.25-.33.5-.79,1.55.1,1.46l-.07-.17a1,1,0,0,1,.19.22c-.26.19-.58,0-.86,0s-.09.38-.3.39a2.53,2.53,0,0,0-1.51.46c.4-.05.73-.25,1.12-.31l-.13.1c.11,0,.22,0,.33,0a1.75,1.75,0,0,1-.77.3c-.25,0-.69-.07-.83.19.61.07-.27,1.23-.49,1.42.14-.25-.29-.42-.39-.72,0,.36.47.84.31,1.17a7.22,7.22,0,0,0-.55,1.07l-.07,0a1.85,1.85,0,0,1,.21-.68c-.16-.1-.08-.42-.4-.33a3,3,0,0,1,.16-.71s.22-.5,0-.34c-.52.38-.36.62-.22,1.26a1.36,1.36,0,0,0-.5-.26c.13.19.45.25.55.44s-.11.57-.07.71.43.12.33.55-.29.31-.58.41c.26,0,.71-.09.64.3,0,.16-.56.17-.7.19.08,0,.14.12.22.17-.12,0-.18.12-.33.12.13.31.31,0,.52.15l-.44.24c-.11.06-.27-.13-.36-.07s-.35.52-.48.7-.4.07-.57.28a2,2,0,0,1-.48.55,2.4,2.4,0,0,0-1.2,1.37,1.89,1.89,0,0,0,.11,1.37,12.7,12.7,0,0,1,.7,1.88c.1.35.19,1.26-.06,1.51s-.35.45-.58.13c-.07-.1-.48-.47-.49-.5a4.45,4.45,0,0,0-.31-.75c-.12-.27-.26-.43-.18-.76l-.15.13c-.12-.42.26-1-.15-1.3s-.56-.75-1-.61c-.23.08-.48.25-.69.1a3,3,0,0,0-.66-.43c-.38-.1-1,.4-1.13-.24-.07.56-1.32.16-1.68.45.26,0,1.21.14.5.49.08,0,.46.17.48.24a.21.21,0,0,1-.26.25c.1-.26-.28-.36-.47-.47,0,.18,0,.25,0,.38-.17-.36-.33,0-.56-.16s-.43-.43-.77-.31-.47-.12-.65-.19c-.35-.13-.91.27-1.25.41-.55.23-1.88,1.21-1.88,2,0,.24.32.49.34.74a2.3,2.3,0,0,1-.17.6,5,5,0,0,0-.31,1.34,4.81,4.81,0,0,0,.79,2.93c.37.56.51,1,1.12,1.13.13,0,.33.36.43.32l.75-.28a2.27,2.27,0,0,1,.68-.15c.18,0,.32.22.42.18a1.42,1.42,0,0,0,.32-.15c.06-.05-.09-.2,0-.28a1,1,0,0,0,.41-.56c.14-.49.1-1.05.61-1.26a3.88,3.88,0,0,1,1.13-.23c.29,0,1.12-.14.86.49-.1.25-.44,1-.62,1,.09.05,0,.14.25.14-.08.07-.14.16-.22.21l0,.05.12-.08a4.8,4.8,0,0,0-.24.9.58.58,0,0,1-.15-.52,1.76,1.76,0,0,0-.2.34c.39,0-.06.76.07,1s-.3.71-.47.87a9.26,9.26,0,0,0,1.69.14c.23,0,.4-.18.64-.14a3.32,3.32,0,0,1,.85.12,1.05,1.05,0,0,1,.75,1.18c-.06.38-.12.76-.18,1.14,0,.22-.22.42-.25.63-.13,1,1.13,2.73,2.07,2.34.58-.24.88-.48,1.49-.29a2.59,2.59,0,0,1,1.26,1c0-.73.88-1.73,1.23-2.32.11-.18.79-.29,1-.36l1.49-.53c.45-.16,1.27.23,1.72.34l3.52.82a3.4,3.4,0,0,1,1.77.63l2.74,2.63c.58.55,1.84.57,2.57.75s1.23,1.32,1.66,1.88l1.32,1.73c.1.14.34.6.51.66l2.83,1,2.83,1a11.87,11.87,0,0,1,2.28,1.64c.13,0,1,0,1,.12.09.42.2.84.29,1.26.21.91.23.89-.27,1.62l-1.84,2.66a2.6,2.6,0,0,0-.67,1.26c-.09,1.3-.19,2.61-.28,3.92-.06.86-1,1.75-1.4,2.44-.2.29-.36.79-.71.81s-1.12-.1-1.4.1l-2.58,1.77c-.17.12-.17,1.41-.19,1.64s0,.74-.16,1l-2.14,2.75-2,2.52c-.15.19-2.21-.7-2.52-.8-.19.71,1,.78,1.11,1.39a4.24,4.24,0,0,1,.24,1.17c-.05.27-.45.66-.59.88-.43.63-1,.62-1.71.81a3,3,0,0,1-1.67,0c.13.43.24.61.08,1-.09.26,0,.67-.12.78-.68.48-1.08.27-1.79-.09a5.55,5.55,0,0,0,0,1.18c.06.25.47.68.36.92l-.65,1.4c-.21.46-.29.42-.76.53a.61.61,0,0,0-.17.08,76.66,76.66,0,0,0,118-32.54c-.58-.55-1.12-1.12-1.64-1.69a4,4,0,0,1-.78-1,6.61,6.61,0,0,0-.72-1.59c-.13-.14-.34-.06-.4-.28l-.25-.94c-.14-.53-.81-.41-.83-1s-.62-.63-.9-.88c-.13-.11-.85-1-.7-1.23s1,.21,1.18.23c.6.07.51.3.83.76a8.83,8.83,0,0,0,1,.91c.35.33.78.46,1.06.85.15.21.32.19.57.23.4.08.13.13.36.31s.37,0,.37.38c0,.19.42.16.48.48s-.21.3-.16.58.4.24.54.3.14.54.17.68.36.26,0,.58a.52.52,0,0,1,.69-.13l.09-.25c0-.05-.06-.09-.1-.09a.36.36,0,0,1-.33-.08c.15-.19.23-.5.43-.19,0-.06,0-.13,0-.2a.22.22,0,0,1,.19.07,76.24,76.24,0,0,0,3.87-18l-.65.24C275.77,141.92,275.83,141.92,275.9,142.24ZM222,130.43c.11-.21.64-.1.78-.08s.57-.23.8-.33c-.2.19-.53.33-.35.67C223.1,130.73,221.65,131.13,222,130.43Zm-5.87-.43a1.21,1.21,0,0,0,1,.27c.23,0,.74.06.73.32a5.29,5.29,0,0,1-1.9-.23A1,1,0,0,1,216.13,130Zm-10.51-5.77a2.52,2.52,0,0,0,.45-.38c.12-.15-.06-.32.14-.36a2.7,2.7,0,0,1-.16,1.38C205.83,124.89,205.38,124.44,205.63,124.23Zm-.27,1.16.21.08c.2-.13,1-.56.93.16,0,.35-.09.71-.13,1.06s-.32.16-.34.35-.24.3-.45.11,0-.28.06-.6c0-.06-.17-.15-.16-.21s.21-.31.19-.41C205.61,125.66,205.23,125.77,205.36,125.39Zm-3.16,1.18-.37.31-.42-.33C201.79,126.33,201.95,126.09,202.2,126.57ZM207,111.71c-.18,0-.47-.35-.49-.53.21-.12.42-.18.48.07A.24.24,0,0,1,207,111.71Zm8.89-3.78c-.33.21-.75.3-1,.66a.54.54,0,0,0-.17-.63A1.52,1.52,0,0,1,215.87,107.92ZM213.72,106h-.11c0,.08,0,.15,0,.23C213.06,105.89,213.66,105.55,213.72,106Zm-.79,2.56c-.16.21-.36.36-.14.61a1.36,1.36,0,0,0-.58.46C212.18,109.1,212.24,108.4,212.93,108.57ZM207.42,111a.29.29,0,0,0,.17-.36.63.63,0,0,1,.23,0c-.1.2,0,.29.17.31-.45-.9,1.09,0,.14.15.08.05.13.17.21.22-.38,0-.35.38-.4.71-.06-.29,0-.54-.29-.51S207.36,111.24,207.42,111ZM233.3,95.47c-.46-.45-.31-.73.2-.94a1.59,1.59,0,0,1,.87.44C234.2,95.09,233.52,95.69,233.3,95.47Zm8.07-1.26c-.31.26-1.18-.46-1.29-.74l.39-.24C240.61,93.34,241.68,93.93,241.37,94.21Zm6.95-5.29a.68.68,0,0,1,.79.5l-1.16.2C248,89.15,247.88,89,248.31,88.91Zm-4.4-12c.13-.07.14-.4.26-.49s.51,0,.67-.05c0,.46.16.64-.26.73l-1.36.31a2.1,2.1,0,0,1-.29-.29C243.2,76.56,243.56,77.09,243.92,76.89Zm-1.3.55c-.25.28-.95.78-1.23.43s-.3-.14-.55-.13-.25-.25-.34-.49a6.59,6.59,0,0,1,1.44-.53C242.26,76.63,242.91,77.11,242.61,77.44Zm-2.51.87c-.43.08-1.64.46-1.81,0s1.61-.56,1.78-.57l.51.27-.65.1C240,78.13,240,78.24,240.11,78.3Zm.94.24-.39.2a3.18,3.18,0,0,1-.33-.26C240.59,78.43,240.91,78.23,241.05,78.54Zm-1.76-3c.51-.36.75-.23,1.36-.12l-1.1.27.54.48-.9.36-1.13-.16C238.48,76.11,238.89,75.84,239.29,75.55Zm-1,1.15a4.15,4.15,0,0,1,1.39.31,2.78,2.78,0,0,1-1.42.53L237,77.18C237.41,76.63,237.65,76.72,238.33,76.69ZM237.2,78l-.51.41-.93-.12C236.41,77.74,236.43,77.7,237.2,78ZM236,90.48c.21-.42-.19-.44.25-.76.12-.09.81-.47.78-.62-.08-.38-.22-.56,0-.83l1-1.06a17.54,17.54,0,0,1,1.46-1.38,6.82,6.82,0,0,1,1.84-.77,4.76,4.76,0,0,1,1.94-.34,5.68,5.68,0,0,0,2.23-.89c.3-.24,2-.62,1.9.26-.07.73-1.7,1-2.11,1.16-.81.28-1.64.51-2.45.77a7.23,7.23,0,0,0-1.69,1.08,4.52,4.52,0,0,0-1.09.7c-.26.34-.51.69-.79,1-.46.54-1.24,1.23-1.22,2,0,1,.63,1.48,1.37,2-.47.39-1.58.05-2.11,0a2.37,2.37,0,0,1-1.54-.81c-.38-.41-.44-.42-.4-1C235.36,90.65,235.82,90.79,236,90.48Zm-2.84-13.3a2.48,2.48,0,0,0,1.21-.18c.43-.12.67.09,1,.33l-1.95.46.15.54a4.38,4.38,0,0,1-1.62-.26l1-.66-1.24.32-.9-.24A4,4,0,0,1,233.14,77.19Zm-23.19,20a1.26,1.26,0,0,0,.15-.25c-.13-.05-.09-.09-.19-.16.25,0,.44-.1.43-.43C210.39,96.76,210.23,96.87,209.95,97.15Zm.49-.63a1,1,0,0,1,0-.36,1,1,0,0,1,.25,0c.09-.22.23-.37.44-.35Zm5-3.63c.28.08.24-.06.46-.18,0,.22-.18.3-.34.45-.31,0-.61.13-.7-.3A1.12,1.12,0,0,1,215.43,92.89Zm-.62.42a2.42,2.42,0,0,0,.79-.08c.24-.12.25-.39.56-.4a2.2,2.2,0,0,1-1.55.83C214.81,93.62,214.94,93.5,214.81,93.31Zm-.72.24c0,.25-.06.36-.25.22l-.07-.21A.81.81,0,0,1,214.1,93.55Zm-.27.39-.6.28-.42.14C213,94.09,213.53,93.75,213.83,93.94Zm-.51-.11a.35.35,0,0,1-.34.24,1.64,1.64,0,0,1-.23-.11C212.83,93.67,213.11,93.7,213.32,93.83Zm-.66.15c.34.12.15.23,0,.44l-.47,0A4.08,4.08,0,0,0,212.66,94Zm-.92.48c.22-.07.38-.17.51.12-.16.13-.89.86-.86.32C211.42,94.53,211.42,94.57,211.74,94.46Zm-.21.79.55-.46-.79.85C211.21,95.4,211.3,95.25,211.53,95.25Zm-.35.48a.37.37,0,0,0-.47.18c-.18.24-.28.15-.56.1.17-.18.13-.1.16-.33h.19c-.07-.23,0-.42.26-.42,0,.17-.06.34-.09.51.25-.12.15-.35.3-.44S211.23,95.54,211.18,95.73Zm-.27-.89-.07.17-.4.32C210.34,95,210.67,94.94,210.91,94.84Zm-.8.32c.24.2.3.4,0,.59l-.44-.09Zm.08.72-.57.37C209.61,95.8,209.89,95.88,210.19,95.87Zm-1.06.31c.13-.13.26-.15.37,0a.32.32,0,0,1-.39.21C209.12,96.31,209.12,96.24,209.13,96.18Zm-11.45,11.13-.11.07c.13,0,.19,0,.31,0-.15.09-.18.12-.35.07s0,.09,0,.13l-.1-.15C197.4,107.38,197.44,107.12,197.68,107.31Zm-2,1.64.19,0c-.07-.11-.07-.27-.14-.38a.49.49,0,0,1,.48,0c-.09-.07-.17-.19-.26-.28l.06-.18.21,0c-.11-.26.16-.52.21-.2.22-.11.06-.08.2,0a1.54,1.54,0,0,1,1-.18c-.08.46-.65.53-.72.84h-.23a2,2,0,0,1,.33.1c-.11.07-.16.21-.25.3l.07.06c.14-.29,1.4-.43,1.59-.15.29.44-.8,1-.57,1.52a.47.47,0,0,0-.5.21c.77.11,1.13.18,1.39,1,.21.66.88.73,1,1.54a.36.36,0,0,0-.49-.15c.31,0,.94.53.52.83.1.12,1.18-.31,1.11.32s-.38.79-.84,1.13c.18,0,1.11.22.51.46a7.18,7.18,0,0,1-1.22.29c-.26.06-.32-.19-.55-.21s-.51.25-.67.34c-.55.27-.66-.35-1,.41-.53-.39-.95.39-1.33.13.21-.24.69-.48.77-.78.14-.56.6-.37,1-.31a1,1,0,0,1,.31-.5l-.68.23s-.37-.18-.5-.18l.12-.09c-.31-.17-.57.29-.78-.06,0,0,0-.1,0-.17.18-.08.64-.16.75-.32s0-.38.08-.69l-.47.09c.24-.16.37-.37.1-.59a.27.27,0,0,1,.38.18c.21-.17.41-.07.64,0l0-.17c.12.07.09,0,.19.13l.08,0a.77.77,0,0,1-.06-.91c-.39.3-.73-.69-.09-.84-.37-.05-.7.29-1,.12.1.3-.17.08-.34,0,0,.08,0,.15,0,.23-.36-.28-.06-.32,0-.63s.06-.22,0-.49-.08-.26.11-.28a1.11,1.11,0,0,0-.08-.25c-.22.48-.5.21-.17-.06-.29.11-.27.37-.31.61s0,.63-.2.43,0-.17,0-.3,0-.26,0-.47.12-.62.4-.77l-.07-.1c-.19.17-.31.4-.55.25.4.24-.07.43-.25.25.29-.06.28-.18,0-.24.09-.13.31-.2.33-.29a.9.9,0,0,1,.24-.48l-.16-.05.11-.05C195.76,109.11,195.67,109.12,195.7,108.95Zm.35,2c.17,0,.21.15.12.31A.45.45,0,0,1,196,110.95Zm.4,1.74a.44.44,0,0,1,.27-.37.28.28,0,0,1-.14.38Zm-.84-1.83c-.11-.24,0-.35.17-.31A2.43,2.43,0,0,1,195.61,110.85Zm-.35,0a.69.69,0,0,1,.23-.16c.1.18.07.32-.11.38C195.33,111,195.45,110.92,195.27,110.88Zm0-1.32.09-.06c0,.08,0,.1,0,.14Zm.54-.27c-.2.43-.6-.06-.77-.27l.08-.14.17.14c0-.06,0-.13,0-.19s.13.06.18.16S195.6,109.32,195.83,109.29Zm-.47-1.34c.13-.06.17.34-.12.37l.1.13c-.2,0-.27.14-.44.3l-.07-.14.13-.06C194.55,108.24,195.15,108.05,195.36,107.95Zm-.51.94a.79.79,0,0,0-.11.59c-.22-.17-.07-.41-.1-.51s-.09,0-.07-.12A.87.87,0,0,1,194.85,108.89Zm-2.28,5.73a.67.67,0,0,0,.46-.3c.12-.17.5-.16.68-.2a1.53,1.53,0,0,0-.83.09,4.55,4.55,0,0,1,.65-.69,2.1,2.1,0,0,1-.8-.25c.09-.1.34-.25.29-.4-.09-.31-.17-.34.1-.49s.37,0,.53.08.34-.1.53-.25l-.47-.17c.23-.4.71-.94,1.2-.65l-.1.18c.15,0,.54-.21.65-.09s.23.6.45.53c0,.55-.18.56-.61.86a1.06,1.06,0,0,1,.27.9l-.21.7c-.08.26-.23.07-.44.12-.61.17-1.47,1.16-2.1.63.08,0,.13-.15.21-.19l-.46-.12a3.07,3.07,0,0,0,.35-.18C192.79,114.7,192.68,114.63,192.57,114.62ZM146.16,89.77c-.27.06-1,.39-1.25.25a1.76,1.76,0,0,1-.47-.28c-.18-.25.09-.35-.24-.51a.47.47,0,0,1,.11-.88l.8.29c.22.08.52-.08.73,0a3.57,3.57,0,0,1,1.43,1.15A4.59,4.59,0,0,0,146.16,89.77Zm2.1,6.75a.51.51,0,0,1,.9.29C149.06,96.81,148,96.82,148.26,96.52Zm-.28-.21c-.16.43,0,.63-.22,1.07s-.94,0-1.17-.18C146,96.65,147.43,95.55,148,96.32Zm-6,7.47c-.09,0-.13-.26-.16-.34-.09-.25,0-.23.18-.39a1.5,1.5,0,0,1,.87-.31l.43,0A1.28,1.28,0,0,1,142,103.79Zm1.83-1.58c-.4-.12-1.5-.25-1.41-.9-.41.16-.36.48-.76.63-.24.09-.46.48-.73.67s-.25-.71-.35-.78a8.32,8.32,0,0,0-1,.18c.13-.19.63-.56.7-.71s-.09-.36-.07-.51.07-.42.12-.62c.13-.5.11-.88.56-1.07s.59.5.08.59a.89.89,0,0,0,.14.29c.25-.35.33-.25.57,0s.45.11.64.23,1.51.8,1,1.29a1.09,1.09,0,0,1,1.1.29Zm.85,2.25c-.2-.22-.33-.26-.3-.57s.27-.51.52-.43C145.5,103.65,144.88,104.27,144.68,104.46Zm11.53,16.16c-.42-.19-1-.3-.66-.92l.19.44,1.3.1C156.74,120.58,156.63,120.82,156.21,120.62Zm-.93-3.66a2.46,2.46,0,0,1,2,.73C156.69,118.13,155.71,117.31,155.29,117Zm-8.75,27.77a2.43,2.43,0,0,1-.79-.42c.29-.43.91-.08,1.26,0a1.93,1.93,0,0,1,.17.25C146.89,144.51,146.69,144.77,146.53,144.73Zm1.2-1.68c-.54,0-1.07.09-1.59,0,.07-.07.42-.34.42-.43,0-.29-.42-.18-.53-.23-.43-.2-.44-.65-.82-.71s-.78-.34-1.17-.35c-.24,0-.26-.18-.48-.11a.49.49,0,0,1-.51-.19.47.47,0,0,0,.36-.07c-.71-.71-1.52.89-2.23.52.36-.22.48-.66.92-.77a4.28,4.28,0,0,1,1.56-.21,6.08,6.08,0,0,1,2.66,1.14l.05-.1a1.41,1.41,0,0,0,1.13.55c.09,0,.2.3.4.33a1.45,1.45,0,0,1,.66.4Zm4.37,1.15c-.42,0-.67.12-1,.13-.07,0-.13-.2-.33-.06s-.12.54-.25.58c-.29.1-.24-.39-.35-.45s-.4,0-.56,0c-.54-.08-.72.15-1.15-.16-.15-.46,1.13.06,1.43-.16-.32-.47-.26-.63-.77-.87.49-.23.63-.07,1.13-.06a1.64,1.64,0,0,0,.45-.12c.17-.09.44.09.61.14s.24-.09.37.16.19.34.54.41c.14,0,.46.22.38.37C152.35,144.47,152.42,144.2,152.1,144.2Zm1.35.27c-.23-.57.59-.31.91-.29l.11.12C154.31,144.54,153.61,144.87,153.45,144.46Zm9.85-24.66c-.19.29-.25.28-.57.16s-.33-.16-.25-.6c-.6,0-.72.44-1.29.56a.43.43,0,0,1,.34-.47,3.19,3.19,0,0,0-1.93-.26c-.2,0-.7.09-.84-.14a1.39,1.39,0,0,1,.08-.88,5.17,5.17,0,0,0,1.28-1.89c.21-.51.83-1.29,1.4-1.05l-.28.6c-.31.29-.45.33-.44.78,0,.14.24.18.35.23s.09.38.11.53c.24-.07,1-.36,1.24-.14s.3.3.25.69c0,.13.38.23.43.46S163.52,119.48,163.3,119.81Zm15.86-23.6-1.66.45c-.36.09-.46.3-.72.62a6.54,6.54,0,0,1-1,1.24,5.33,5.33,0,0,1-1.24.41l-1.77.58c-.45.15-.43.16-.61.64-.33.9-.65,1.79-.94,2.71l-1.1,3.43c0,.1-.84.08-1,0l-1.77-.65c-.29-.1-.81-.16-1-.45l-1.11-1.74a14.91,14.91,0,0,1-1.72-3l-.74-2.06a4.84,4.84,0,0,1,.17-1.79c0-.08,0-.56.09-.59l1-.43c.1,0,.55-.15.56-.27l.14-1.09-1.45.43c-.66.2-.63.2-1.12-.34s-.15-.75,0-1.34-.34-.83-.73-1.24-.08-.72.09-1.24.11-.61-.13-1.15A13.14,13.14,0,0,0,160,86.55c-.16-.2-.65-1.09-.89-1.13l-1.46-.25a9,9,0,0,0-2.74-.23l-1.59.2c-.27,0-.93-.54-1.17-.68l-1.41-.83c-.34-.2-.65-.85-.89-1.18-.08-.11-.45-.48-.42-.62s0-.68.23-.73L152,80.4a7.83,7.83,0,0,1,1.77-.35c.44,0,.5.06.67-.37l.46-1.16c-.7-.08-1.32,0-1.82-.55l4.12-2.13,1.67-.86a5.13,5.13,0,0,1,1.5-.21l2.95-.39a5.42,5.42,0,0,1,1.5-.19,26.77,26.77,0,0,1,4.07,1.19,5.73,5.73,0,0,0-2.11-1.67l2.43-1.11c.55-.25,1.25.05,1.83.15l1.44.25c.37.07.41-.59.7-.76a2.39,2.39,0,0,1,.81-.07l1.8-.16a21.61,21.61,0,0,1,4.94.4,15.65,15.65,0,0,1,4.16,1.47l-2.17.78c.45.36,1,.26,1.49.27s-.24,1.37-.31,1.5c.44-.19,1.36-.82,1.82-.75l1.21.2c.34.06.48-.33.7-.6s1.33-.31,1.82-.22a11.71,11.71,0,0,1,2,.79l-1.75,1a5.09,5.09,0,0,1-1.57.39l.43.37a6.35,6.35,0,0,1-1.3,1.16,3.92,3.92,0,0,0-1.3,1c-.27.44-.95,1.12-.73,1.64.28.69.66.84,1.25,1.24l-1.67,1.64,1.15.78c.31.21.27.79.33,1.16,0,.16.29,1.13.19,1.25l-1.14,1.26a7.16,7.16,0,0,0-1,2.48c-.11.32.22,1.07.3,1.39.15.66.12.64-.31,1.16l-2.71,1.66A9.26,9.26,0,0,1,179.16,96.21Zm8.08,5.89a1.34,1.34,0,0,1-1,.06,2,2,0,0,1-.58-.13c-.09-.06-.19-.37-.31-.35l-1.29.17c-.17-.45.49-.32.63-.71l-.17,0,0-.17c-.22,0-.31-.11-.16-.29-.3,0-1.18.2-1.26-.2.49,0,1-.21,1.57-.2v-.15a.56.56,0,0,1-.53,0l.56-.27c-.22-.05-.67-.27-.89-.18-.46.18-.58.27-1,.08.16-.08.12-.14.31-.11,0-.07,0-.15,0-.22s.35.2.43,0-.39-.15-.13-.46.9.49.83-.19c-.23,0-.41,0-.48-.25.52,0,.49.08.89.42.08.07.38.13.39.27a.24.24,0,0,1-.29.25,7.27,7.27,0,0,0,.41.66,5.69,5.69,0,0,1,.27-.63c.15-.24.45,0,.22-.52.29-.06.46.28.66.49-.09-.26,0-.57.29-.56s.41.25.61.55c0-.2-.06-.39-.09-.59.52.24.67,0,1.21,0-.32-.82,1.5-.08,1.13.55.31-.11.51.08.77.23s-.06.44.19.61c-.22.21-.38.52-.69.35,0,.42-.22.72-.6.62s-.77.42-1,.56l-.59.08C187.37,101.87,187.41,102,187.24,102.1Zm47.06,68.43-.35-.35a5.22,5.22,0,0,1-.27,2.35l-1.23,4.13-.34,1.13s-.9.31-1,.37-1-.23-1-.42a11.78,11.78,0,0,0-.27-1.48,2.25,2.25,0,0,1-.09-1.46c.15-.45.67-.91.72-1.38a5.78,5.78,0,0,0-.34-1.55c-.05-.24.16-1.14.36-1.18a4.65,4.65,0,0,0,1.38-.51c.44-.22.6-.6.94-1s.61-.49.64-1.17c0-.86.61,0,.79.28l0,0A3.45,3.45,0,0,1,234.3,170.53Zm42-27.23c-.25,0-.3.32-.34.56s-.36.26-.52.34.06.19-.13.17a.67.67,0,0,1-.38-.11c-.35-.2-.28-.29-.28-.74.44-.28.75-.86,1.38-.51l0-.16C276.26,142.88,276.33,143.06,276.28,143.3Z" fill="#139197"></path><path d="M237.06,124.87c-.13-.11-.12-.46-.25-.54-.57-.35-.66.54-.67.87a1.18,1.18,0,0,1-.12-1.38c-.24-.11-.76-.22-.93-.42a3.3,3.3,0,0,1-.16-1s-.79-.33-.44-.41.43.33.78.07c-.23-.22-.45-.26-.26-.55a.64.64,0,0,1,.55-.22,6.35,6.35,0,0,1,1.37.21.79.79,0,0,0-.48.73c.25-.36.35-.58.78-.63-.21-.67-.37-.23-.93-.41.09-.29.28-.63.13-.91-.06-.12-.31-.71-.52-.47s-.54,0-.83-.12-.57.27-.79.31c-.55.1-.52-.19-.68.5,0,.19-.68.34-.84.41-.39.16-.36.18-.45.64,0,.21-.37.43-.51.59a.74.74,0,0,1,.72.7,2.62,2.62,0,0,0,.31,1.38c.15.33.53.44.71.76a1.7,1.7,0,0,0,.89.91c-.41.12-.49.08-.6.53a6,6,0,0,1-.28.81,1.72,1.72,0,0,0-.05.9c0,.39.14.32.49.4s.32.3.57.38l.9.28a4.31,4.31,0,0,0,1.45-.18,4.71,4.71,0,0,1-.06-1.44c.14-.74-.19-.4-.48-.92a2.35,2.35,0,0,0,.28,0,1.39,1.39,0,0,0-.14-.45c-.08-.08-.33,0-.4-.07-.2-.25-.07-.49,0-.72a3.75,3.75,0,0,0,1.33.07C237.55,125.19,237.27,125.06,237.06,124.87Z" fill="#139197"></path><path d="M134.5,95.34l.27-.45A.51.51,0,0,0,134.5,95.34Z" fill="#93e054"></path><path d="M138,89.92l.67-.92A2.08,2.08,0,0,0,138,89.92Z" fill="#93e054"></path><path d="M209.9,96.74c.1.07.06.11.19.16a1.26,1.26,0,0,1-.15.25c.28-.29.44-.4.39-.85C210.34,96.64,210.16,96.71,209.9,96.74Z" fill="#93e054"></path><path d="M195.61,110.85a2.43,2.43,0,0,0,.17-.31C195.64,110.5,195.5,110.62,195.61,110.85Z" fill="#93e054"></path><path d="M196.72,112.32a.44.44,0,0,0-.27.37h.13A.28.28,0,0,0,196.72,112.32Z" fill="#93e054"></path><path d="M193,115c-.08,0-.13.15-.21.19.63.53,1.49-.46,2.1-.63.21-.06.36.13.44-.12l.21-.7a1.06,1.06,0,0,0-.27-.9c.43-.3.56-.31.61-.86-.22.07-.28-.33-.45-.53s-.5.06-.65.09l.1-.18c-.48-.29-1,.25-1.2.65l.47.17c-.2.15-.3.31-.53.25s-.38-.17-.53-.08-.19.18-.1.49c0,.15-.2.31-.29.4a2.1,2.1,0,0,0,.8.25,4.55,4.55,0,0,0-.65.69,1.53,1.53,0,0,1,.83-.09c-.19,0-.57,0-.68.2a.67.67,0,0,1-.46.3c.11,0,.22.09.34.1a3.07,3.07,0,0,1-.35.18Z" fill="#93e054"></path><path d="M195.89,109.15l-.11.05.16.05a.9.9,0,0,0-.24.48c0,.09-.24.17-.33.29.3.06.3.18,0,.24.18.18.65,0,.25-.25.25.15.37-.08.55-.25l.07.1c-.28.15-.33.47-.4.77s.07.21,0,.47-.16.2,0,.3.18-.27.2-.43,0-.5.31-.61c-.33.27-.05.55.17.06a1.11,1.11,0,0,1,.08.25c-.19,0-.16.09-.11.28s.11.17,0,.49-.4.35,0,.63c0-.08,0-.15,0-.23.17.06.44.28.34,0,.26.18.59-.17,1-.12-.64.15-.3,1.14.09.84a.77.77,0,0,0,.06.91l-.08,0c-.1-.15-.07-.06-.19-.13l0,.17c-.23,0-.44-.14-.64,0a.27.27,0,0,0-.38-.18c.27.22.14.43-.1.59l.47-.09c0,.31.14.39-.08.69s-.58.24-.75.32c0,.08,0,.21,0,.17.2.35.47-.11.78.06l-.12.09c.13,0,.45.2.5.18l.68-.23a1,1,0,0,0-.31.5c-.43-.06-.88-.25-1,.31-.07.3-.56.54-.77.78.38.27.79-.52,1.33-.13.3-.75.42-.14,1-.41.16-.08.5-.35.67-.34s.29.27.55.21a7.18,7.18,0,0,0,1.22-.29c.6-.25-.32-.44-.51-.46.46-.34.77-.52.84-1.13s-1-.21-1.11-.32c.42-.3-.21-.83-.52-.83a.36.36,0,0,1,.49.15c-.13-.81-.81-.88-1-1.54-.26-.85-.62-.92-1.39-1a.47.47,0,0,1,.5-.21c-.23-.49.86-1.08.57-1.52-.18-.28-1.44-.14-1.59.15l-.07-.06c.09-.08.14-.23.25-.3a2,2,0,0,0-.33-.1h.23c.06-.3.64-.38.72-.84a1.54,1.54,0,0,0-1,.18c-.14-.08,0-.1-.2,0-.06-.31-.32-.05-.21.2l-.21,0-.06.18c.09.08.16.2.26.28a.49.49,0,0,0-.48,0c.06.11.07.27.14.38l-.19,0C195.67,109.12,195.76,109.11,195.89,109.15Z" fill="#93e054"></path><path d="M149.2,79.43l-.14-.46c.31.08.71.31,1,.15a2.8,2.8,0,0,0,.95-.75l-.93,0,1.49-.3a5.46,5.46,0,0,0,1.33-.81c.51-.32,2.19-.75,2.22-1.37l-3.81.77,2.32-.69-1.35-.23,3-.22a7.4,7.4,0,0,0,2.25-1.14,15.8,15.8,0,0,0-2.59-.69,3.16,3.16,0,0,0-1.14,0,77.06,77.06,0,0,0-7,6.11C147.57,79.68,148.38,79.6,149.2,79.43Z" fill="#93e054"></path><path d="M195.38,109.5l-.09.06.08.09S195.43,109.58,195.38,109.5Z" fill="#93e054"></path><path d="M194.83,108.61l.07.14c.17-.16.24-.25.44-.3l-.1-.13c.29,0,.26-.43.12-.37s-.82.29-.4.6Z" fill="#93e054"></path><path d="M194.64,109c0,.1-.12.34.1.51a.79.79,0,0,1,.11-.59.87.87,0,0,0-.28,0C194.55,108.95,194.59,108.92,194.64,109Z" fill="#93e054"></path><path d="M195.33,108.82c0,.06,0,.13,0,.19l-.17-.14-.08.14c.18.21.57.69.77.27-.23,0-.38-.08-.33-.31S195.44,108.83,195.33,108.82Z" fill="#93e054"></path><path d="M195.39,111.09c.18-.06.2-.2.11-.38a.69.69,0,0,0-.23.16C195.45,110.92,195.33,111,195.39,111.09Z" fill="#93e054"></path><path d="M210.65,95.76c0-.17.06-.34.09-.51-.22,0-.33.19-.26.42h-.19c0,.23,0,.15-.16.33.28,0,.38.14.56-.1a.37.37,0,0,1,.47-.18c.06-.19,0-.56-.22-.42S210.9,95.64,210.65,95.76Z" fill="#93e054"></path><path d="M212.25,94.58c-.14-.29-.29-.19-.51-.12s-.32.07-.34.44C211.36,95.44,212.09,94.71,212.25,94.58Z" fill="#93e054"></path><path d="M212.08,94.79l-.55.46c-.23,0-.32.15-.24.38Z" fill="#93e054"></path><path d="M212.66,94a4.08,4.08,0,0,1-.45.42l.47,0C212.81,94.21,213,94.1,212.66,94Z" fill="#93e054"></path><path d="M210.84,95l.07-.17c-.24.1-.56.12-.47.49Z" fill="#93e054"></path><path d="M197.53,107.48c.17,0,.19,0,.35-.07-.11,0-.18-.06-.31,0l.11-.07c-.24-.18-.28.07-.29.16l.1.15S197.51,107.53,197.53,107.48Z" fill="#93e054"></path><path d="M209.5,96.15c-.11-.12-.24-.1-.37,0s0,.13,0,.19A.32.32,0,0,0,209.5,96.15Z" fill="#93e054"></path><path d="M209.62,96.24l.57-.37C209.89,95.88,209.61,95.8,209.62,96.24Z" fill="#93e054"></path><path d="M210.11,95.16l-.44.5.44.09C210.41,95.56,210.35,95.36,210.11,95.16Z" fill="#93e054"></path><path d="M153.45,144.46c.16.4.86.08,1-.17l-.11-.12C154,144.15,153.22,143.89,153.45,144.46Z" fill="#93e054"></path><path d="M213.32,93.83c-.21-.13-.48-.16-.57.13a1.64,1.64,0,0,0,.23.11A.35.35,0,0,0,213.32,93.83Z" fill="#93e054"></path><path d="M184.68,92.65c-.08-.32-.41-1.07-.3-1.39a7.16,7.16,0,0,1,1-2.48l1.14-1.26c.1-.12-.16-1.08-.19-1.25-.06-.37,0-.95-.33-1.16l-1.15-.78,1.67-1.64c-.59-.4-1-.56-1.25-1.24-.22-.52.46-1.2.73-1.64a3.92,3.92,0,0,1,1.3-1,6.35,6.35,0,0,0,1.3-1.16l-.43-.37a5.09,5.09,0,0,0,1.57-.39l1.75-1a11.71,11.71,0,0,0-2-.79c-.48-.09-1.48-.19-1.82.22s-.36.66-.7.6l-1.21-.2c-.46-.08-1.38.56-1.82.75.07-.13.93-1.49.31-1.5s-1,.09-1.49-.27l2.17-.78a15.65,15.65,0,0,0-4.16-1.47,21.61,21.61,0,0,0-4.94-.4l-1.8.16a2.39,2.39,0,0,0-.81.07c-.29.17-.33.83-.7.76l-1.44-.25c-.58-.1-1.28-.4-1.83-.15l-2.43,1.11a5.73,5.73,0,0,1,2.11,1.67,26.77,26.77,0,0,0-4.07-1.19,5.42,5.42,0,0,0-1.5.19l-2.95.39a5.13,5.13,0,0,0-1.5.21l-1.67.86L153.12,78c.51.56,1.12.47,1.82.55l-.46,1.16c-.17.43-.23.35-.67.37a7.83,7.83,0,0,0-1.77.35l-2.41.69c-.19.06-.19.54-.23.73s.34.51.42.62c.24.33.54,1,.89,1.18l1.41.83c.23.14.9.71,1.17.68l1.59-.2a9,9,0,0,1,2.74.23l1.46.25c.24,0,.74.93.89,1.13a13.14,13.14,0,0,1,1.46,2.85c.24.54.32.59.13,1.15s-.47.84-.09,1.24.87.64.73,1.24-.38.91,0,1.34.46.54,1.12.34l1.45-.43-.14,1.09c0,.12-.47.23-.56.27l-1,.43c-.08,0-.08.51-.09.59a4.84,4.84,0,0,0-.17,1.79l.74,2.06a14.91,14.91,0,0,0,1.72,3l1.11,1.74c.18.29.7.34,1,.45l1.77.65c.14.05,1,.07,1,0l1.1-3.43c.29-.92.61-1.81.94-2.71.18-.49.16-.5.61-.64l1.77-.58a5.33,5.33,0,0,0,1.24-.41,6.54,6.54,0,0,0,1-1.24c.26-.32.36-.53.72-.62l1.66-.45a9.26,9.26,0,0,0,2.5-.74l2.71-1.66C184.8,93.29,184.83,93.31,184.68,92.65Z" fill="#93e054"></path><path d="M162.76,117.92c.05-.39,0-.4-.25-.69s-1,.07-1.24.14c0-.15,0-.47-.11-.53s-.35-.09-.35-.23c0-.45.13-.49.44-.78l.28-.6c-.57-.23-1.19.54-1.4,1.05a5.17,5.17,0,0,1-1.28,1.89,1.39,1.39,0,0,0-.08.88c.14.22.64.16.84.14a3.19,3.19,0,0,1,1.93.26.43.43,0,0,0-.34.47c.57-.12.69-.52,1.29-.56-.08.44-.14.45.25.6s.38.13.57-.16,0-1.08-.11-1.43S162.74,118.05,162.76,117.92Z" fill="#93e054"></path><path d="M152.19,143.74c-.35-.07-.36-.07-.54-.41s-.15-.08-.37-.16-.44-.23-.61-.14a1.64,1.64,0,0,1-.45.12c-.51,0-.65-.17-1.13.06.51.24.45.4.77.87-.31.23-1.58-.29-1.43.16.43.31.61.08,1.15.16.16,0,.42-.07.56,0s.06.55.35.45c.13,0,.13-.5.25-.58s.26.06.33.06c.37,0,.63-.13,1-.13s.25.27.46-.09C152.65,144,152.34,143.77,152.19,143.74Z" fill="#93e054"></path><path d="M234.18,168.33c-.18-.25-.76-1.14-.79-.28,0,.68-.22.69-.64,1.17s-.5.76-.94,1a4.65,4.65,0,0,1-1.38.51c-.2,0-.42.94-.36,1.18a5.78,5.78,0,0,1,.34,1.55c-.05.47-.58.93-.72,1.38a2.25,2.25,0,0,0,.09,1.46,11.78,11.78,0,0,1,.27,1.48c0,.19.87.5,1,.42s1-.32,1-.37l.34-1.13,1.23-4.13a5.22,5.22,0,0,0,.27-2.35l.35.35a3.45,3.45,0,0,0-.11-2.16Z" fill="#93e054"></path><path d="M276,143c-.63-.35-.94.23-1.38.51,0,.44-.08.53.28.74a.67.67,0,0,0,.38.11c.19,0,0-.12.13-.17s.49-.08.52-.34.09-.58.34-.56c.05-.24,0-.42-.24-.46Z" fill="#93e054"></path><path d="M260.16,86.57l0,0c-.53.31-.47.32-.49,1,0,.35.13.71-.22.75l-1.56.16-2.77.28c.05.31.11,1.53.39,1.58s.8,0,1,.16a3.19,3.19,0,0,1,.33.89c-.25,0-.57.18-.79,0a4.43,4.43,0,0,0-.71-.44,2.47,2.47,0,0,0-2-.25c-.27.09-1.46.6-.77.92a18.86,18.86,0,0,0,1.8.74c-.43,0-2.12,0-2.34-.45-.34-.6-.37-.59-.05-1.2.14-.26-.32-.89-.55-.83.08.19.35.93,0,1.06s-.81.24-1.08.65.38.87.56,1.15-.17.82-.34,1.17.14.81.22,1.1c0,.1,1.1-.14,1.23-.16a1,1,0,0,1,1,.24c.34.24.29.65.35,1.07l-.84-1c-.16-.19-.76.13-1,.19-1.1.34.24,1.13-.28,1.66a6.18,6.18,0,0,1-1.8,1.55,2.13,2.13,0,0,1-2-.64c.24,0,.86.24,1.06.12l1.38-.84c.26-.16.41-.86.54-1.15.22-.53-.25-.58-.67-.86s.36-2.2.14-2.64c-.12-.24-.56-.85-.46-1.11l.55-1.5c-.48,0-2.5-.53-2.66-.07s-.24,1.2-.53,1.43l-1.28,1c.19.13.87.39.76.63s-.58.9-.3,1.11l1.3,1c.18.13,0,.87-.07,1.1a6.69,6.69,0,0,0-1.22-.93l-1.77-.7a4.18,4.18,0,0,0-3-.11c.37.49.61.53.24,1s-.38.51-1,.33l.25-.44a1.38,1.38,0,0,0-1.2.1,1.87,1.87,0,0,1-1.22.08c-.33,0-.52.67-.9.58-.58-.15-.57-.14-.76-.76l-2,.9-1.3.59c-.16.07-.57.16-.68.31-.24.32.08.66-.37.72s-.74.26-1-.06-.61-.54-.4-.89.83-.15,1.06-.18c-.22-.29-.46-.84-.82-.89l-1.43-.19c.09.11.51.49.48.62-.08.36-.17.72-.26,1.09,0-.08.41.54.43.61.08.22-.11.63-.16.86l-1.18-.35c-.24-.07-.6.31-.8.44l-1.12.75a7.76,7.76,0,0,0,.38,1.13l-1.49-.52c-.61-.21-.64-.32-1.14.14.22.27.33.56.66.56s.48.51.16.64c-.53.22-1.23-.4-1.78-.64s-.39-1.28-.39-1.81-1-1.19-1.35-1.54a15,15,0,0,0,3.54,1.2,2.31,2.31,0,0,0,1.61-.1c.31-.1.37-.28.56-.58.31-.47.34-.46.15-1a1.91,1.91,0,0,0-1.3-1,9.11,9.11,0,0,1-1.75-.83,3.13,3.13,0,0,0-1.67-.57c-.34,0-1.6.27-1.49-.46.25.06.58.28.67-.06-.16-.08-.63-.43-.75-.27-.25.34-.61.17-1,.14-.16,0-.6.13-.64,0-.14-.35-.49-.24-.65-.54a4.06,4.06,0,0,0,1.08.1c.14,0,.83-.38.46-.53l-1.32-.52c-.42-.17-.12.79-.64.4l.36-.6c-.14,0-.64-.12-.72,0l-.58.78q-.06-.32-.13-.65c-.27.35-.65,1.07-1.08,1.15a2.77,2.77,0,0,1,.85-1.43,2.08,2.08,0,0,0-1.19.21c-.34.2-.54.82-.92.93a23,23,0,0,0-2.88,1.06,6.79,6.79,0,0,0-2.07,1.9,16.44,16.44,0,0,0-1.87,2.22,11.06,11.06,0,0,1-1.61,2.44c-.35.33-.66.66-1,1a3.44,3.44,0,0,1-1.21.77,5.15,5.15,0,0,0-1.06.63c-.59.5-.65.5-.69,1.32s.32,1.87.35,2.82c0,.77,1.3.93,1.79.63.32-.2.57-.54.89-.77s.56-.38.7-.95c.07.21.1.57.31.62s0,.43.1.64a3.52,3.52,0,0,0,.32.66c.07.16,0,.42.12.56.24.32.85.83.69,1.25a1.8,1.8,0,0,0,.07.74c.06.4.09.31.46.29s.39.06.45-.19,0-.46.25-.5c.52-.11,1-.11,1.22-.71a7.28,7.28,0,0,0,.24-1.61c.09-.59.42-.74.85-1.11.25-.22.83-.51.67-.85s-.91-.47-1.15-.88c-.56-1,.32-2,.84-2.67.18-.23,2.25-1.3,2-1.74s-.1-.79.24-1.17c.54-.6.6-.57,1.37-.54a1.1,1.1,0,0,1,1.12.84c.13.45-.22.23-.44.33s-.51.63-.68.85c-.34.43-.83.69-1.18,1.1-.14.17-.59.51-.64.73a3.4,3.4,0,0,0,.26,1,1.69,1.69,0,0,1,0,.85c-.08.51-.12.47.32.65a1,1,0,0,1,.64.56c.07.12.54,0,.65-.07,1.13-.22,2.26-.48,3.36-.7-.06.08-.06.22-.12.3.31.13,1,.26,1.16.63-.19,0-.58-.18-.75-.08s-.55.07-.76.2.14.41-.4.34l-1.18-.15a3.34,3.34,0,0,0-1.61.45c-.08,0,.07.61.14.7a3.48,3.48,0,0,0,.31.33c.05,0,.2-.14.28-.08s-.09.68-.06.84-.16.66-.44.63c-.51,0-.68-1.17-1.37-.66-.27.2-.14.52-.3.71a1,1,0,0,0-.23.72c0,.35.48,1.77-.29,1.4a1.21,1.21,0,0,0,.3-.43c-.11.18-.32.26-.48.4s-.19,0-.24.06-.1.33-.19.43c-.24.28-.86.22-.87-.24.09,0,.25.1.3.13a1.45,1.45,0,0,0-1.77.34c-.21.27-1.26.3-1.56.49l.41,0a.81.81,0,0,1,0,.27c-.24-.13-.49-.2-.57-.48a.89.89,0,0,0-.61-.4c-.42.05-.84.75-1.33.46l.2-.43c-.5.24-1-.22-1.09-.75-.12-.73.53-.91.88-1.46-.59-.15-.45-1-.18-1.39-.39.2-.72.63-1.13.65s-.63.59-.61,1.1c0,.31,0,.43.18.61s.08.4.18.73.36.29.06.53.19.46.32.51c-.25,0-.54-.06-.47.29a2.14,2.14,0,0,0-.57-.06l-.37.05c-.11,0,0,.23-.11.25-.44.14-.81-.12-1.18.33-.11.13-.41.09-.44.27a1.77,1.77,0,0,1-.35.84c-.06.08,0,.24-.07.3s-.35.06-.35.09.35.19.48.23a1.46,1.46,0,0,0-.88.11c-.18.09-.83.24-.92.38-.2.33.23.6-.18.81a2,2,0,0,0-.86.51c.09,0,.18.08.27.08a1.51,1.51,0,0,1-.95.13c-.2,0-.17,0-.25-.26s-.32-.11-.46-.12a3.09,3.09,0,0,1,.27.84c0,.19-.64.3-.77.32-.35.09,0-.59-.58-.21a1.65,1.65,0,0,1-.89.16.45.45,0,0,0,.29.43c-.08,0-.15.06-.22.07a.39.39,0,0,0,.44.22c.27,0,.35.09.56.26.05,0,.36.05.48.11s0,.21.28.15c-.06.16,0,.68.27.77.5.16.41.33.42.86s.1,1.95-.61,2.1a2.29,2.29,0,0,1-1-.11c-.36-.13-.7.07-1.1-.06a1.77,1.77,0,0,0-1.24,0c-.37.09-.57-.43-1,0a1,1,0,0,1,.08.15c-.16,0-.62,0-.72.25s.06.61.31.42a2.19,2.19,0,0,0,0,1.27c.18.43-.14,1.13-.25,1.57s-.31.56,0,1c.06.09.21-.11.22.05s0,.3,0,.44a2.9,2.9,0,0,1-.1.79c.32-.24.58.06.93-.14s.61.34,1,.17c-.35.25.16.89.45.8s.56-.6,1-.58a9.83,9.83,0,0,0,1.36,0c.14,0,.31-.42.39-.55s.45-.16.61-.2c-.13-.27.3-.62.46-.85s-.29-.55-.16-.77c.43-.74.65-1.31,1.36-1.68.24-.12.83-.28,1-.51s-.1-.91,0-1,.52-.63.74-.56l1.31.43a6.34,6.34,0,0,0,1.62-1.08c.18-.23.5-.13.75,0,.49.25.49.29.62.87s.77.85,1.23,1.29c.26.26.46.61.82.56.2,0,.7.35.66.58a.27.27,0,0,1,.42.27c0,.21.3.22.44.24s.51,1.06.35,1.14,0,.28-.26.42a3.09,3.09,0,0,1-2.08.06c-.66.73,1,.67,1.17,1.17.08.27.78.16.61-.18a.72.72,0,0,1,.24-1c0,.56.67,0,.63-.39s.83-.35.32-.75c-.18-.14-.34-.12-.29-.37a.79.79,0,0,1,.31-.54c.21-.2.71.5.89.59.45-.6-1.31-1.33-1.66-1.61.38-.31,0-.3-.29-.31s-.53-.23-.83-.49-.22-.64-.41-.9a4,4,0,0,0-.84-.63c-.3-.23,0-.62-.06-.79-.26-.48,0-.52.41-.64s.35-.21.42.18.29.67.48.12a1.44,1.44,0,0,1,.61,1c.06.18.45.69.62.72a4.31,4.31,0,0,1,1.81,1.1c.41.32.58.32.54.86s-.21.85.22,1.21c.24.2.38.67.56.95.33.49.33.56.87.56-.59.48-.43.55-.21,1.31.21-.18.34-.25.45,0s.35.25.63.3c-.1-.31-.23-.43,0-.62s.21-.4-.13-.46c.27-.34.45-.09.71.1.09-.63-.38-.73-.81-1,.33-.34.32-.29.08-.71s-.44-.55-.18-.84c.24.17.44.38.72.15.08-.06-.12-.32,0-.38s.35-.19.51-.15a6.31,6.31,0,0,1,.88.14c.23.09.46.09.66.18-.25.15-.47.23-.43.6l1-1c.23-.22.87.23,1-.12,0-.12-.66-.44-.79-.7s-.31-.91.13-1.19.42-.69.53-1.24c0-.18.43-.16.52-.3a2.65,2.65,0,0,0,.12-.73c0-.31.62-.75.82-1s.94.14,1.24,0c-.15.31-.5.16-.77.15.13.09.35.34.51.33a1.9,1.9,0,0,1,.68,0c.68.23-.32.59-.58.73.52.25.82.17.59.8.38.3,1-.3,1.39-.49s.67.22,1-.31c-.42,0-.83.16-1.09-.15s-.44-.89.07-.82l-.09.19a1.89,1.89,0,0,1,1.08-.57v.15a1.72,1.72,0,0,1,1.25-.5c.12,0,.56-.15.47.15s-.62-.05-.49.36l-.54,0c.11.24.38.39.58.56-.42,0-.79.17-.63.75l-.54-.11-.16.22c.19.14.37.3.57.43a4.74,4.74,0,0,0,.49.29c.48.06.78.49,1.14.84s.73.39,1,.74.42.87.06,1.09a1.82,1.82,0,0,1-1.27.4c-.44-.06-.71.21-1.15,0-.26-.11-1.06-.23-1.17-.38-.3-.42-.19,0-.48-.17s-.36-.25-.26-.42a2.88,2.88,0,0,1-1.23,0,1.92,1.92,0,0,0-1,.43c-.42.28-.45.43-1,.35-.29,0-.92-.17-1,.13l.52.27a2.72,2.72,0,0,1-1.52.34c-.33,0-1.12.18-1,.78l.55-.06c-.55.61.33,2.09.84,2.39.27.16.84.63,1.18.57s.35,0,.47-.41.33-.14.6-.09.6.55,1,.54a2.36,2.36,0,0,0,.72,0c.19-.09.35-.51.55-.54s.35.27.49.15.32-.34.46-.19-.41.9-.16,1.26c.38.56-.6,2.28-.79,2.83a1.5,1.5,0,0,1-2.11.66c-.59-.28-.64-.19-1.24.1a1.17,1.17,0,0,1-1.18.1l-1.55-.46c-.12,0-.36.26-.43.13s-.14-.39-.4-.44l-1-.2c-.2,0-.06-.36-.21-.4a2.69,2.69,0,0,0-1.73.12c-.14,0-.31.49-.39.62s.21.45.11.64c-.4.79-.73.68-1.35.24-.44-.31-.89-.23-1.37-.44s-.39-.84-.94-1l-2.14-.57c-.42-.11-.82-.65-1.15-.95.21-.22.83-.67.66-1-.34-.64-.28-.67,0-1.34-.41-.17-.78-.49-1.18-.25a2.18,2.18,0,0,1-1.45.17,3,3,0,0,0-.59,0c-.21,0-.41.29-.63.3a2,2,0,0,1-.64-.21,2.49,2.49,0,0,0-.8.09,9.56,9.56,0,0,0-2.58.8,14.08,14.08,0,0,0-1.23.73c-.09.05-.47-.23-.57-.28s-.61.1-.79.13c-.42.09-.79-.61-.93-.57-.52.15-.61.86-.81,1.37-.29.74-1.8.88-1.91,1.63l-.29,1.92c-.08.52-.27.52-.68.79a4.3,4.3,0,0,0-1.84,1.61l-2,3.64a3.16,3.16,0,0,0-.44.8,5.71,5.71,0,0,0,.33,1.48c.13.58.26,1.15.39,1.73.08.35-.29.94-.4,1.26s-.44.86-.33,1l.67,1.17,2.09,3.63a4.06,4.06,0,0,0,1.46,1.48l1.64,1.18c.22.16.52.53.79.43l1.71-.6a1.83,1.83,0,0,1,1.21.11c.45.12.63.23,1,0l1.56-.79a7.46,7.46,0,0,1,2.63-.3l1.08,1.33c.25.31,1,.09,1.32.07.61,0,.59,0,1,.55s.31.5.24,1.09-.16,1.38-.24,2.07c0,.34-.19.69,0,1l1.13,1.51c.19.26.64.66.72,1l.77,3.32c.24,1,.58,1.81,0,2.79a9.28,9.28,0,0,0-.78,3.33c0,.25-.2.69-.08.93l.8,1.62a8.46,8.46,0,0,1,1,2.49l.32,2.08c0,.25,0,1.09.21,1.27s.71.54.86.9l.73,1.82c.11.28.46.84.43,1.15-.09.82-.1.81.46,1.32.17.16.63.77.87.72l1.44-.3,3.13-.66c.29-.06.72-.61.94-.81a14.83,14.83,0,0,0,1.2-1,25,25,0,0,0,1.8-2.55,4.6,4.6,0,0,0,.15-1.47c.06-.61-.05-.83.44-1.07.3-.14,1.18-.36,1.36-.65a5.41,5.41,0,0,0,.18-1.66c0-.34-.44-1.06-.57-1.38-.2-.47.18-.64.49-1l1.05-1.23c.27-.31,1-.48,1.35-.65a2.43,2.43,0,0,0,1.25-2c-.05-1.08.16-2.41-.47-3.26a1.42,1.42,0,0,1-.41-1.31,1.78,1.78,0,0,0-.38-1.53c-.24-.37,1.26-2.42,1.5-2.82a26.67,26.67,0,0,1,4.11-4.66,9,9,0,0,0,1.22-2,11.4,11.4,0,0,0,1.33-2.63c.05-.24.46-1.36.35-1.55s-.8-.05-1,0l-3.5.94c-.34.09-.8-.79-1.23-.92.63-.61-.19-1.13-.59-1.6l-.73-.85c-.16-.19-.79-.15-.87-.37a11.58,11.58,0,0,0-.77-2.1,5,5,0,0,0-.8-.77c-.2-.19-.17-.69-.21-1-.07-.45-.14-.9-.21-1.35,0-.26-.46-.55-.62-.73-.39-.42-.29-1-.55-1.55l-1.31-2.67c-.22-.43-.88-1.23-.51-1.71a6.48,6.48,0,0,0,1.16,1.76l.46-1.41c-.05.4-.11.79-.16,1.18.42-.11.55.44.73.75l1.07,1.91c.17.3.48.43.62.7a5.51,5.51,0,0,1,.64,1.43c.06.34.06,1.3.38,1.42.55.21.6.31.92.84a7.7,7.7,0,0,1,1.24,2.64l.38,2c.12.66.18.52.82.52.41,0,.49-.43.87-.53s1-.3,1.53-.4c.25,0,.43,0,.57-.25s.14-.27.32-.33l1.79-.64c.33-.12.28-.61.64-.77l.79-.35c.18-.08.45.14.61.06s.2-.7.41-.8l1.08-.52c.35-.17.51-.13.51-.54a2.34,2.34,0,0,1,.3-1.13c0,.11.1.22.12.33.22-.27,1-.87,1-1.22s.17-.6-.18-.65-.35-.52-.45-.7-.4-.16-.62-.26a5.05,5.05,0,0,1-.73-.5c-.4-.27-.28-1.06-.32-1.54a8.39,8.39,0,0,1-1.39,1.59,4.9,4.9,0,0,1-2,.25,3.66,3.66,0,0,0-.28-1.82c-.06.38-.12.77-.19,1.15-.44-.85-.86-1.72-1.35-2.54-.14-.23-.79-1-.61-1.25.54-.64.54-.67,1.33-.56.45.07.53.63.74,1.06a1.48,1.48,0,0,0,1,1c.34.16.58.62.95.68a2.55,2.55,0,0,0,1.52,0c.68-.25.6-.05.94.63.19.38.63.34,1,.43a8,8,0,0,0,2.61.44c.39,0,2.75-.57,2.91-.24s.33,1,.61,1.2a6.44,6.44,0,0,0,1.37.78,2.1,2.1,0,0,0,.56,0c-.05.43-.71.39-1,.46.31.33.81,1.16,1.25,1.18s.42.06.65-.27l.7-1q.05,1.66.1,3.33a6.73,6.73,0,0,0,0,1.17,8.54,8.54,0,0,0,.64,1.47c.77,1.74,1.52,3.46,2.4,5.13l1-.62c.3-.2.23-.57.27-.94.35.37.54.45.52,1a10.69,10.69,0,0,0,0,1.56c.11,1.21,1.63.43,1.24-.47a4.74,4.74,0,0,0-.71-1.33,2.66,2.66,0,0,1-.63-1.35c-.1-.39.2-1,.31-1.37a5.85,5.85,0,0,0,0-1.45c0-.5-.16-.81.26-1a4.26,4.26,0,0,0,1.12-.56l2.35-2.41.83-.85c.1-.11-.06-.49,0-.6s.41-.06.48-.07l1.68-.23c.32,0,.7-.46,1-.64a4.41,4.41,0,0,0,1,1.81,4.3,4.3,0,0,1,1.11,1.9c.09.21-.1.81-.13,1-.08.53-.12.49.37.6s.43.12.74-.26l.72-.89a14.05,14.05,0,0,1,.83,3.4,12.6,12.6,0,0,1,.12,1.92c0,.33-.32,1.52-.12,1.74l1.36,1.45a6,6,0,0,1,.58,1.75c.21.63.24.85.72,1.23a3.48,3.48,0,0,0,1.54.92,10.45,10.45,0,0,1-.51-1.28c-.1-.45.07-1.06-.09-1.49a3.06,3.06,0,0,0-.81-.92c-.28-.21-1-.55-1.1-.91s-.3-1.42-.48-1.41c-.36,0-.36.09-.4-.31a1.48,1.48,0,0,1,0-.62,5.32,5.32,0,0,0,.45-1.4c.06-.82-.08-.92.67-.95l-.07.56a2.4,2.4,0,0,1,1.78,1l.95,1c.24.25-.22.75.11,1.09a35,35,0,0,0,2.82-2.39c.33-.3.08-1.33.06-1.77,0-.71-.27-.9-.71-1.46s-.72-.88-1-1.36l-.63-1c-.07-.12.21-.73.25-.87.15-.46,1-.88,1.35-1.17a1.27,1.27,0,0,1,1.45.18c-.12,0-.23.12-.35.15,0,.12.16.61.26.67.37.19.37-.24.32-.45s-.13-.33.15-.42l.65-.24c.21-2.33.33-4.68.33-7.06A76.31,76.31,0,0,0,260.16,86.57Zm-24,38.86c-.11.23-.23.48,0,.72.07.09.33,0,.4.07a1.39,1.39,0,0,1,.14.45,2.35,2.35,0,0,1-.28,0c.29.52.62.19.48.92a4.71,4.71,0,0,0,.06,1.44,4.31,4.31,0,0,1-1.45.18l-.9-.28c-.25-.07-.26-.3-.57-.38s-.46,0-.49-.4a1.72,1.72,0,0,1,.05-.9,6,6,0,0,0,.28-.81c.11-.45.19-.41.6-.53a1.7,1.7,0,0,1-.89-.91c-.18-.31-.56-.42-.71-.76a2.62,2.62,0,0,1-.31-1.38.74.74,0,0,0-.72-.7c.14-.15.46-.38.51-.59.09-.46.06-.47.45-.64.16-.07.79-.22.84-.41.16-.69.13-.4.68-.5.22,0,.58-.39.79-.31s.61.38.83.12.45.35.52.47c.15.28,0,.61-.13.91.57.18.72-.27.93.41-.43.05-.53.28-.78.63a.79.79,0,0,1,.48-.73,6.35,6.35,0,0,0-1.37-.21.64.64,0,0,0-.55.22c-.19.29,0,.33.26.55-.35.26-.44-.15-.78-.07s.44.39.44.41a3.3,3.3,0,0,0,.16,1c.17.21.69.32.93.42a1.18,1.18,0,0,0,.12,1.38c0-.33.1-1.22.67-.87.13.08.13.43.25.54s.49.31.41.64A3.75,3.75,0,0,1,236.15,125.44Z" fill="#93e054"></path><path d="M189.16,101.2c.38.11.62-.2.6-.62.31.17.47-.14.69-.35-.25-.17-.06-.53-.19-.61s-.46-.34-.77-.23c.37-.63-1.44-1.37-1.13-.55-.54-.05-.69.22-1.21,0,0,.2.05.39.09.59-.21-.3-.27-.54-.61-.55s-.38.3-.29.56c-.2-.21-.37-.55-.66-.49.23.55-.07.27-.22.52a5.69,5.69,0,0,0-.27.63,7.27,7.27,0,0,1-.41-.66.24.24,0,0,0,.29-.25c0-.14-.32-.21-.39-.27-.4-.34-.37-.42-.89-.42.07.26.25.21.48.25.07.68-.61-.08-.83.19s.21.31.13.46-.3,0-.43,0,0,.15,0,.22c-.2,0-.16,0-.31.11.44.19.57.1,1-.08.21-.08.66.13.89.18l-.56.27a.56.56,0,0,0,.53,0v.15c-.54,0-1.08.2-1.57.2.08.4,1,.2,1.26.2-.16.18-.07.32.16.29l0,.17.17,0c-.13.39-.79.27-.63.71l1.29-.17c.11,0,.21.3.31.35a2,2,0,0,0,.58.13,1.34,1.34,0,0,0,1-.06c.17-.08.13-.23.33-.26l.59-.08C188.4,101.62,188.91,101.13,189.16,101.2Z" fill="#93e054"></path><path d="M147.91,142.4c-.2,0-.31-.34-.4-.33a1.41,1.41,0,0,1-1.13-.55l-.05.1a6.08,6.08,0,0,0-2.66-1.14,4.28,4.28,0,0,0-1.56.21c-.44.11-.56.54-.92.77.71.37,1.52-1.23,2.23-.52a.47.47,0,0,1-.36.07.49.49,0,0,0,.51.19c.22-.07.24.1.48.11.39,0,.75.29,1.17.35s.4.51.82.71c.11.05.53-.06.53.23,0,.1-.36.36-.42.43.52.09,1.06,0,1.59,0l.84-.25A1.45,1.45,0,0,0,147.91,142.4Z" fill="#93e054"></path><path d="M145.75,144.31a2.43,2.43,0,0,0,.79.42c.16,0,.35-.22.64-.12a1.93,1.93,0,0,0-.17-.25C146.66,144.23,146,143.88,145.75,144.31Z" fill="#93e054"></path><path d="M142,103.06c-.2.16-.27.14-.18.39,0,.08.07.35.16.34a1.28,1.28,0,0,0,1.32-1l-.43,0A1.5,1.5,0,0,0,142,103.06Z" fill="#93e054"></path><path d="M145.84,88.67c-.21-.11-.51.05-.73,0l-.8-.29a.47.47,0,0,0-.11.88c.32.16.06.26.24.51a1.76,1.76,0,0,0,.47.28c.23.14,1-.18,1.25-.25a4.59,4.59,0,0,1,1.11,0A3.57,3.57,0,0,0,145.84,88.67Z" fill="#93e054"></path><path d="M149.16,96.82a.51.51,0,0,0-.9-.29C148,96.82,149.06,96.81,149.16,96.82Z" fill="#93e054"></path><path d="M143.32,101.52c.49-.49-.78-1.12-1-1.29s-.48-.07-.64-.23-.31-.36-.57,0a.89.89,0,0,1-.14-.29c.51-.09.35-.78-.08-.59s-.42.58-.56,1.07c-.06.2-.08.41-.12.62s.12.38.07.51-.57.52-.7.71a8.32,8.32,0,0,1,1-.18c.1.06.16.9.35.78s.49-.59.73-.67c.4-.15.36-.47.76-.63-.09.65,1,.78,1.41.9l.59-.39A1.09,1.09,0,0,0,143.32,101.52Z" fill="#93e054"></path><path d="M147.76,97.38c.27-.43.05-.64.22-1.07-.55-.76-2,.33-1.39.89C146.83,97.41,147.5,97.8,147.76,97.38Z" fill="#93e054"></path><path d="M144.9,103.45c-.25-.08-.5.22-.52.43s.1.36.3.57C144.88,104.27,145.5,103.65,144.9,103.45Z" fill="#93e054"></path><path d="M157.24,117.7a2.46,2.46,0,0,0-2-.73C155.71,117.31,156.69,118.13,157.24,117.7Z" fill="#93e054"></path><path d="M155.55,119.71c-.34.62.25.72.66.92s.53,0,.82-.37l-1.3-.1Z" fill="#93e054"></path><path d="M196,110.95a.45.45,0,0,0,.12.31C196.26,111.1,196.21,111,196,110.95Z" fill="#93e054"></path><path d="M271.87,160.43c.32-.32,0-.31,0-.58s0-.63-.17-.68-.52-.12-.54-.3.21-.37.16-.58-.48-.28-.48-.48c0-.36-.13-.2-.37-.38s0-.24-.36-.31c-.25,0-.42,0-.57-.23-.28-.39-.71-.52-1.06-.85a8.83,8.83,0,0,1-1-.91c-.32-.46-.23-.69-.83-.76-.19,0-1.09-.37-1.18-.23s.57,1.12.7,1.23c.28.25.88.36.9.88s.69.46.83,1l.25.94c.06.22.26.14.4.28a6.61,6.61,0,0,1,.72,1.59,4,4,0,0,0,.78,1c.52.58,1.06,1.14,1.64,1.69.32-.8.62-1.61.91-2.42A.52.52,0,0,0,271.87,160.43Z" fill="#93e054"></path><path d="M217.87,130.59c0-.26-.5-.35-.73-.32a1.21,1.21,0,0,1-1-.27,1,1,0,0,0-.16.36A5.29,5.29,0,0,0,217.87,130.59Z" fill="#93e054"></path><path d="M223.24,130.69c-.18-.34.14-.48.35-.67-.22.1-.56.35-.8.33s-.67-.13-.78.08C221.65,131.13,223.1,130.73,223.24,130.69Z" fill="#93e054"></path><path d="M272.66,159.7c-.2-.31-.29,0-.43.19a.36.36,0,0,0,.33.08s.07,0,.1.09l.17-.48a.22.22,0,0,0-.19-.07C272.64,159.57,272.65,159.63,272.66,159.7Z" fill="#93e054"></path><path d="M206.06,124.88a2.7,2.7,0,0,0,.16-1.38c-.2,0,0,.21-.14.36a2.52,2.52,0,0,1-.45.38C205.38,124.44,205.83,124.89,206.06,124.88Z" fill="#93e054"></path><path d="M214.91,108.59c.2-.36.63-.45,1-.66a1.52,1.52,0,0,0-1.13,0A.54.54,0,0,1,214.91,108.59Z" fill="#93e054"></path><path d="M207,111.25c-.06-.25-.27-.19-.48-.07,0,.18.32.57.49.53A.24.24,0,0,0,207,111.25Z" fill="#93e054"></path><path d="M212.81,94.36l.42-.14.6-.28C213.53,93.75,213,94.09,212.81,94.36Z" fill="#93e054"></path><path d="M202.2,126.57c-.26-.48-.42-.24-.79,0l.42.33Z" fill="#93e054"></path><path d="M143.14,84.23c.29.31.45-.08.64.08s.17.35.08.71l1.23-.37c.12,0,.18-.27.3-.32s.16.18.31.12.44-.08.42-.21,0-.48-.12-.56-.28-.23-.5-.1-.26.24-.44,0,.6-.77.73-.89c.41-.36-.24-.55,0-.71s.71.24,1,.15a1.46,1.46,0,0,0,.93-.69l-.7-.38,1.23-.16c0-.51-1-.55-1.37-.64h1.42c.1-.52-1-.43-1.49-.44q-2.23,2.19-4.28,4.54C142.69,84.57,143.11,84.67,143.14,84.23Z" fill="#93e054"></path><path d="M140.16,87.19c.23.31.81.43.93,0,.12.46.76.17,1.08.12,0-.18-.06-.35-.09-.52.44,0,.2.48.52.59a1.45,1.45,0,0,0,.77.15c.17,0,1,0,1-.23.12-.4.25-.37.62-.49a1.06,1.06,0,0,0-.6-.24l.51-.38a2.49,2.49,0,0,0-2.34-.72c-.36.12-.67-.07-1.06.07l-.1,0q-.79,1-1.56,1.93h.32C140.16,87.4,140.19,87.29,140.16,87.19Z" fill="#93e054"></path><path d="M154.57,194.65l.65-1.4c.11-.24-.31-.67-.36-.92a5.55,5.55,0,0,1,0-1.18c.71.36,1.11.56,1.79.09.15-.11,0-.52.12-.78.16-.41.05-.59-.08-1a3,3,0,0,0,1.67,0c.7-.19,1.27-.18,1.71-.81.15-.22.54-.61.59-.88a4.24,4.24,0,0,0-.24-1.17c-.12-.61-1.3-.69-1.11-1.39.32.1,2.37,1,2.52.8l2-2.52,2.14-2.75c.17-.22.13-.69.16-1s0-1.51.19-1.64l2.58-1.77c.29-.2,1.07-.08,1.4-.1s.51-.52.71-.81c.44-.69,1.34-1.57,1.4-2.44.09-1.3.19-2.61.28-3.92a2.6,2.6,0,0,1,.67-1.26l1.84-2.66c.5-.72.48-.71.27-1.62-.1-.42-.2-.84-.29-1.26,0-.1-.9-.11-1-.12a11.87,11.87,0,0,0-2.28-1.64l-2.83-1-2.83-1c-.16-.06-.4-.52-.51-.66l-1.32-1.73c-.43-.57-1-1.71-1.66-1.88s-2-.19-2.57-.75l-2.74-2.63a3.4,3.4,0,0,0-1.77-.63l-3.52-.82c-.45-.1-1.27-.5-1.72-.34l-1.49.53c-.18.07-.86.18-1,.36-.35.59-1.26,1.59-1.23,2.32a2.59,2.59,0,0,0-1.26-1c-.61-.18-.91.05-1.49.29-.94.38-2.2-1.3-2.07-2.34,0-.21.21-.4.25-.63.06-.38.12-.76.18-1.14a1.05,1.05,0,0,0-.75-1.18,3.32,3.32,0,0,0-.85-.12c-.23,0-.4.17-.64.14a9.26,9.26,0,0,1-1.69-.14c.17-.16.59-.62.47-.87s.31-1-.07-1a1.76,1.76,0,0,1,.2-.34.58.58,0,0,0,.15.52,4.8,4.8,0,0,1,.24-.9l-.12.08,0-.05c.08-.06.14-.15.22-.21-.21,0-.16-.09-.25-.14.18,0,.52-.75.62-1,.26-.63-.57-.45-.86-.49a3.88,3.88,0,0,0-1.13.23c-.51.2-.47.77-.61,1.26a1,1,0,0,1-.41.56c-.09.08.06.23,0,.28a1.42,1.42,0,0,1-.32.15c-.09,0-.24-.19-.42-.18a2.27,2.27,0,0,0-.68.15l-.75.28c-.11,0-.31-.27-.43-.32-.61-.18-.75-.57-1.12-1.13a4.81,4.81,0,0,1-.79-2.93,5,5,0,0,1,.31-1.34,2.3,2.3,0,0,0,.17-.6c0-.24-.34-.49-.34-.74,0-.8,1.33-1.78,1.88-2,.34-.14.89-.54,1.25-.41.18.07.46.25.65.19s.47.09.77.31.39-.2.56.16c0-.14.08-.2,0-.38.18.12.57.21.47.47a.21.21,0,0,0,.26-.25c0-.07-.4-.2-.48-.24.71-.34-.24-.46-.5-.49.37-.29,1.61.11,1.68-.45.11.64.75.14,1.13.24a3,3,0,0,1,.66.43c.22.14.46,0,.69-.1.43-.14.63.36,1,.61s0,.88.15,1.3l.15-.13c-.08.32.05.48.18.76a4.45,4.45,0,0,1,.31.75s.42.4.49.5c.22.32.39.06.58-.13s.16-1.16.06-1.51a12.7,12.7,0,0,0-.7-1.88,1.89,1.89,0,0,1-.11-1.37,2.4,2.4,0,0,1,1.2-1.37,2,2,0,0,0,.48-.55c.17-.21.48-.15.57-.28s.3-.59.48-.7.25.13.36.07l.44-.24c-.21-.12-.4.16-.52-.15.15,0,.21-.08.33-.12-.08,0-.14-.12-.22-.17.14,0,.68,0,.7-.19.07-.39-.38-.3-.64-.3.3-.1.51-.06.58-.41s-.26-.29-.33-.55.14-.56.07-.71-.42-.25-.55-.44a1.36,1.36,0,0,1,.5.26c-.14-.64-.3-.89.22-1.26.22-.16,0,.31,0,.34a3,3,0,0,0-.16.71c.32-.09.24.23.4.33a1.85,1.85,0,0,0-.21.68l.07,0a7.22,7.22,0,0,1,.55-1.07c.16-.33-.29-.81-.31-1.17.1.3.53.46.39.72.22-.19,1.1-1.35.49-1.42.15-.26.59-.17.83-.19a1.75,1.75,0,0,0,.77-.3c-.11,0-.22,0-.33,0l.13-.1c-.39.06-.72.26-1.12.31a2.53,2.53,0,0,1,1.51-.46c.21,0,.16-.43.3-.39s.59.23.86,0a1,1,0,0,0-.19-.22l.07.17c-.89.09-.24-1.1-.1-1.46s.1-.41.33-.5.51-.17.68-.53l.14.14c.15-.3,1.3-.06,1.09-.74.14,0,.38.07.48,0s.2,0,.38-.1.68-.6,1-.52a1,1,0,0,0-.23.45c.24-.17.6-.07.87-.06-.22.19-.36.48-.6.27s0-.32-.25-.14-1.41.8-1,1.43c.13,0,.33.33.53.13s.56-.73.84-1,.2.24.38.08a1.51,1.51,0,0,1,.46-.23l1.25-.51c-.08-.07-.12-.19-.2-.26a1.75,1.75,0,0,0,1-.28c.25-.11-.17-.56-.46-.33.09-.31.32-.67-.08-.81-.21.32-.82.89-.52,1.28a.69.69,0,0,1-.3.09l0-.24c-.44.32-.94.11-1.45-.13l.12-.09c-.35-.09-.84-.46-.67-.92-.11,0-.23,0-.33,0a1,1,0,0,0,.4-.62,1,1,0,0,0-.6,0s-.34-.35-.47-.39c.33-.23.56.21.85,0s.83-.42.38-.72c.07,0,.15,0,.22.09-.43-1.08-2.07-.16-2.67.13-.88.43-1.35,1.36-2.23,1.78a9.61,9.61,0,0,0,1.19-1.41,5.66,5.66,0,0,1,.77-.83c.17-.12.81-.19.86-.42.17-.88.85-.65,1.51-.69a12.89,12.89,0,0,1,2.17,0,1.63,1.63,0,0,0,1.65-.55,1.59,1.59,0,0,1,.7-.57c.33-.1.61,0,.9-.12a2.29,2.29,0,0,0,.82-.5c.25-.38-.13-.49,0-.82.06-.17.29-.74,0-.84s-.66-.35-.9.09c-.2-.25.16-.23,0-.55s-.5-.28-.71-.27a.44.44,0,0,0,.31.17,2,2,0,0,0-.85.24c-.1.06,0,.15-.21.22a.74.74,0,0,0-.43.27c-.15.2-.24-.37,0-.46s.81-.12,1-.41c-.24.07-.53.23-.75.15a7.21,7.21,0,0,1,1.09-.32c.66-.1.06-.39-.24-.59a1.88,1.88,0,0,0-1.19-.34c-.28,0-.08-.24-.2-.45a2.55,2.55,0,0,0-.57-.45c-.06-.05-.41-.26-.43-.35s.31-.47.3-.66c0-.36-.58-1-.76-1.31-.33-.57-.79-2-1.48-2q0-.24.11-.48c-.3-.07-.73.52-.68.82s-.21.79-.39,1.17c-.07-.08-.21-.09-.28-.17-.33,1.79-1.92-1.1-2.37.22-.26-.24.22-.58.39-.79-.09,0-.19,0-.28,0a1.67,1.67,0,0,0,0-1c-.06-.35,0-.44.23-.75A1.45,1.45,0,0,0,151,105c-.42.06-.64-.23-.74-.61s-.6-.49-.79-.63c-.4-.28-.51-.51-.94-.31-.68.32-1.32-.28-2-.2-.38,0-.61.17-.5.54a1.58,1.58,0,0,1,0,1.29c-.1.33.1.72.19,1,.17.6.13.54-.32.94s-.3.34,0,.79a6.2,6.2,0,0,0,.79.84,2.16,2.16,0,0,1,0,2.11c-.36.51-1.35.88-1.86,1.21.15.24.52.6.56.88l.26,1.56c.08.49-.91,1.56-1.36,1s-1.28-1.21-1.25-2c0-.58.05-1.17.07-1.75,0-.17-.8-.16-.95-.18l-1.26-.14c-.29,0-.74-.52-1-.69a8.18,8.18,0,0,0-2.2-1.12c-.28-.1-.61-.31-.91-.24-.56.13-.7.34-.91-.25-.12-.32-.26-1.17-.5-1.39s-.86-.21-1.14-.27c.16-.73.3-1.45.45-2.18a5.85,5.85,0,0,1,1-1.74c.07-.11.29-.58.42-.57a1.62,1.62,0,0,0,1-.16c.35-.16,0-.47-.18-.59a.93.93,0,0,0-.92-.12c.07-.05.1-.13.16-.18l-.84-.38c.42.12.84.22,1.26.34.66.21.71.18,1.29-.24.19-.13.4-.06.63,0s.4-.16.56-.24.56-.92.73-1.2a5.09,5.09,0,0,1-1.45-.18l-1.59-.8a4.42,4.42,0,0,1,2.06.36c.44.23.59.44,1,.2a2.31,2.31,0,0,0,.65-.81l-.54-.32c.15-.34.55-.22.85-.23.13,0,0,.33.16.36l.58.14c0-.08-.05-.15-.07-.23l.57.3-.36-.83c.24.23.45.62.75.43a4.25,4.25,0,0,0,1.09-.67c.35-.44.2-.67-.12-1a2.9,2.9,0,0,1-.6-1c.2,0,.66,0,.8-.12s-.11-.5.09-.87a1.32,1.32,0,0,1-.93-.56c-.18-.21-.89-.18-1.14-.23s-.64-.19-.73.27.13.62.37,1c-.6.26-.61.23-.61.94,0,.14-.3.32-.39.41s-.16.33-.18.6c-.09,1-2-.8-1.16-1.29,0,.08,0,.17,0,.26.43-.14.21-.54.13-.89s-.62-.43-.79-.53-.39.43-.4.58a1.56,1.56,0,0,1-.37.85c-.36-.23-.29-.33-.19-.72s-.06-.42-.36-.67l.45-.31c-.31-.15-.55-.4-.85-.2s-.54,0-.85-.13l.94-.63c-.15-.19-.44-.43-.66-.68q-.49.76-1,1.54c.16,0,.3,0,.31.27a1.42,1.42,0,0,0-.56.14l-.27.45a1,1,0,0,0,0,.18l.6-.29c0,.23.16.45,0,.61s-.42.52-.75.58c-.78.12-.54.68-.34,1.32a6.42,6.42,0,0,1-.66-.4,76.29,76.29,0,0,0-9.61,37.18c0,.84,0,1.68,0,2.52l.28.36c.08.1.33.32.3.46s-.15.43-.05.52l1.37,1.27a4,4,0,0,1,.67.81c.19.29.86,1,.75,1.36-.16.55-.4.79,0,1.19l1.27,1.29a2.47,2.47,0,0,0,.75.31l2,.79c.81.32,1.67.94,2.51.68.37-.12.81-.44,1.12-.13l1.43,1.41c.54.53,1.68.58,2.37.77.89.25,1.27.9,1.91,1.63.25.29.15.76.35,1.07s.89.68,1.23.93l.49.37c.1.07.2-.11.36-.08s.83.6.94.28c.25.59.22.52.76.29-.06-.11-.34-.43-.24-.52a2.91,2.91,0,0,1,.55-.45c.28-.15.28-.17.55,0s.4.16.29.62.75.72.67,1.1c0,.15.07.55,0,.58-.21.21,0,.36,0,.65.18,1.25-.42,1.77-1.11,2.66l-.93,1.2a4.35,4.35,0,0,0-.32,1.3c-.15.65-.72,1.81-.39,2.44l1.63,3.06,2,3.71a3.2,3.2,0,0,0,1,1.38l1.61,1.12c.27.19.89.46,1.08.75a4.87,4.87,0,0,1,.17,1.42,10.32,10.32,0,0,1,.2,1.6,14.15,14.15,0,0,1-.35,1.86l-.79,4.18-1.3,6.87c-.17.92-.28,1.87-.37,2.81q2.46,2.26,5.11,4.3a.61.61,0,0,1,.17-.08C154.29,195.07,154.36,195.11,154.57,194.65Zm-9.25-71a5,5,0,0,1-1.36.79c-.54.2-.81.51-1.44.45l.1-.14-.46-.13a5.36,5.36,0,0,1,.58-.89c.06.22.08.09.19.26a.53.53,0,0,0-.41.39c.3.15.45-.06.66-.25a.8.8,0,0,1,.79-.29c.28,0,1.24-.22,1.24-.52C145.35,123.47,145.33,123.55,145.33,123.7Zm-.26-.91c.39-.09.88-.31,1.26-.15.22.09.84-.39,1.14-.51l-.44.38c.53.21-.51,1.11-1,.64S144.24,123.88,145.07,122.79Zm-8-3.67.93-.41c.26-.11.1-.45.47-.52a2,2,0,0,1-.09.25c.22-.09.18-.35.39-.47a.69.69,0,0,1-.13.36c.22-.13.44-.29.19-.5a1.5,1.5,0,0,1,.71.23c.19.08.42-.24.6,0,.35.53.34.83,1,.72-.17.48.11.3.21.63,0,.12-.14.2-.05.32s.16.19.09.32.87.41,1,.44c.46.09,1,.11,1.46.21s.51.83.85,1.13c-.3-.17-.2.15-.23.15-.18.05-.49-.18-.66,0,0-.09,0-.07-.11-.13.08-.08.06-.11.1-.2-.3,0-.14-.43-.5-.24.51.24.15.63,0,1-.05.16,0,.48-.06.59l-.48.53c0-.22-.05-1-.34-1-.12,0-.65.48-.71.26s.26-.43.31-.46c.23-.15.17-.52,0-.74a.38.38,0,0,1,.12,0c-.09-.39-.4-.28-.61-.52s-.84-.27-.52.15c-.37,0-.29.39-.48.59,0-.12,0-.27,0-.39-.2.43-.7.53-.57,1.22a2.27,2.27,0,0,1-.08,1.65c-.57,1.16-.87-.33-.9-.91a3.78,3.78,0,0,1,.25-1.12c.07-.27.33-.66.29-.92-.23.15-.36.68-.64.63a3.34,3.34,0,0,1,.71-1.21c0,.06,0,.13,0,.19.09-.09.18-.09.27-.15l-.11.16.07.06a.83.83,0,0,1,1.27-.23c.1-.29.35-.14.59-.11-.13-.13-.2-.38-.34-.45s-.48,0-.38-.32a9.63,9.63,0,0,1-1.25.32c-.23-.13-.38,0-.55-.25s-.39-.21-.63-.08a.88.88,0,0,1,.52-.57c-.52-.4-1.5,1-2.18.62l.08-.19c-.29.09-.57.28-.86.13Zm-5-4.3c-.14-.28-.83-.95-.27-1.07-.48-.13-.59,0-.41-.66.1-.39.57-.15.81,0-.32-.23-.32-.35-.1-.75l.16.13a.42.42,0,0,0-.29.32c.14,0,.17,0,.27-.13l.07,0c-.3.17.38,1.68.52,2a2.17,2.17,0,0,0,.38.77c.18.15,0,.45.08.72-.05,0-.12,0-.18-.07,0,.16-.17.51-.26.22a.74.74,0,0,1,.22-.84,1.13,1.13,0,0,0-.26.13c0-.12.22-.41.12-.46s-.26.06-.33.19c0-.22.09-.51-.13-.59a.24.24,0,0,1-.07.13c0-.08,0-.15,0-.22-.17.1-.14,0-.18.25Z" fill="#93e054"></path><path d="M137.62,91c0,.12.1.92.18.93.75.08,1.24,0,1.78.57L138,92.4a2.42,2.42,0,0,0,1,1c.31.18.45-.06.7-.09.57-.05.16.1.46.39a1.8,1.8,0,0,0,.77.2,5.83,5.83,0,0,1,1.71.1l.51.2c.11,0,.18-.23.26-.22.25,0,.32.39.6.28l-.63-.59a3.79,3.79,0,0,0,2.19.23c-.16-.34-.2-.52-.56-.62.44-.41.4.24.72.38.11.05.4-.13.43,0s.07.35.11.53c.38-.4,1.06.49,1.37.74-.58.17-.69.08-.69.74l.79-.3c.35-.14.32-.17.52.18s.83.32,1.11.82l.54,1c.09.16-.1.24-.22.36L148.38,99c.13.1.68.37.58.64s-.82.24-1,.27a4.26,4.26,0,0,1-1.61-.12c.06.35-.4.44-.56.73s.24.66.48.65.77.06,1-.19.6,0,.92,0c0-.11.06-.23,0-.33.22,0,.35.09.35.33.56-.36.54,0,.9.53.2.3.57.27.88.45l-.56.28a1.51,1.51,0,0,0,.88.33l-.12.18,1.06.27c.15,0,.14.36.39.42l2.08.54c0-.33.14-.46-.11-.64l-.77-.55c-.16-.11-.55-.08-.65-.25l-.42-.73.74.33c-.06-.11-.06-.25-.12-.36l1.27.8c.23.15.62.66.77.61l-.16-.43c.07,0,.18,0,.26.08.16-.38-.37-.48-.16-.85l.35.46a3.28,3.28,0,0,0-.12-.92c-.15-.24-.43-.13-.5-.46s0-.48-.37-.63-.48-.32-.57.12l-.27-.84c-.11-.33-.18-.19-.47-.08l-.19-.59.58.08c0-.38-.43-.35-.2-.7s.34-.2.59-.06.43.56.67.61.55-.2.72-.26c.12.42-.29.46-.56.59a3.32,3.32,0,0,0,1.35,1.08,2.94,2.94,0,0,0,0-1.2c.51.35.72.08,1.25-.2l-.53-.26c.16-.2.52,0,.74,0,.06-.5.24-.8-.23-1a3.42,3.42,0,0,0-1.14,0l.3-.46c-.46-.07-.67,0-1-.4a1.58,1.58,0,0,0-.76-.56c-.76-.29-1.5-.57-2.24-.91l.63-.08-.09-.59.88.18c-.17-.48-.14-.46-.59-.38a1.38,1.38,0,0,1-.71-.18,1.29,1.29,0,0,1,1-.27c0-.37-.39-.55-.64-.72-.06.38-.44.45-.71.59.1-.39-.19-.32-.45-.37.33-.1.89-.11,1-.52-.29-.15-1.75-1.1-1.93-.7s-.64.66-.79.24c-.06-.18.61-.47.77-.57-.19-.63-1-.53-1.43-.38-.26.09-.9-.92-1.16-1.17a2.21,2.21,0,0,0-1.43-.56c-.21,0-.67,0-.83.14s-.47.56-.6.49c-.45-.27-.41-.29-.79.09-.21.21-.51.21-.31-.15s.28-.44.07-.87-.26-.27-.44-.51-.09-.61-.39-.62a2.16,2.16,0,0,0-.77,0,8.06,8.06,0,0,1-1.58.54c.05-.2.1-.4.15-.6a3.05,3.05,0,0,0-2,.24,2.25,2.25,0,0,0-.47.28l-.67.92,0,.08C137.91,90.24,137.59,90.78,137.62,91Z" fill="#93e054"></path><path d="M213.64,106.24c0-.08,0-.15,0-.23h.11C213.66,105.55,213.06,105.89,213.64,106.24Z" fill="#93e054"></path><path d="M124.27,140.22c0-.22-.19-.46-.36-.61,0,.31,0,.62.06.92C124.1,140.55,124.24,140.45,124.27,140.22Z" fill="#93e054"></path><path d="M143.33,121l-.1.1.07,0c.12-.14.17-.21.12-.36l-.08.11a.29.29,0,0,0-.44-.17c-.24.1-.32-.13-.56.05l.19,0C142.75,120.95,143.1,121.18,143.33,121Z" fill="#93e054"></path><path d="M137.13,119.8l-.08.19c.68.37,1.67-1,2.18-.62a.88.88,0,0,0-.52.57c.24-.13.47-.15.63.08s.32.12.55.25a9.63,9.63,0,0,0,1.25-.32c-.09.31.19.23.38.32s.21.32.34.45c-.24,0-.49-.18-.59.11a.83.83,0,0,0-1.27.23l-.07-.06.11-.16c-.09.07-.18.07-.27.15,0-.06,0-.13,0-.19A3.34,3.34,0,0,0,139,122c.28.06.41-.48.64-.63,0,.26-.22.65-.29.92a3.78,3.78,0,0,0-.25,1.12c0,.58.33,2.07.9.91a2.27,2.27,0,0,0,.08-1.65c-.13-.69.38-.8.57-1.22,0,.12,0,.27,0,.39.19-.2.11-.56.48-.59-.32-.42.33-.34.52-.15s.53.12.61.52a.38.38,0,0,0-.12,0c.13.22.19.59,0,.74,0,0-.34.34-.31.46s.58-.27.71-.26c.28,0,.29.75.34,1l.48-.53c.1-.11,0-.43.06-.59.11-.34.47-.72,0-1,.36-.18.2.28.5.24,0,.09,0,.12-.1.2.08.06.08,0,.11.13.17-.16.48.07.66,0,0,0-.08-.32.23-.15-.34-.3-.31-1-.85-1.13s-1-.12-1.46-.21c-.17,0-1.12-.31-1-.44s0-.22-.09-.32.09-.2.05-.32c-.1-.33-.38-.15-.21-.63-.69.12-.68-.18-1-.72-.18-.29-.41,0-.6,0a1.5,1.5,0,0,0-.71-.23c.25.21,0,.37-.19.5a.69.69,0,0,0,.13-.36c-.21.11-.17.38-.39.47a2,2,0,0,0,.09-.25c-.37.06-.21.4-.47.52l-.93.41-.83.81C136.56,120.09,136.84,119.9,137.13,119.8Zm5.77,1a.29.29,0,0,1,.44.17l.08-.11c.05.15,0,.22-.12.36l-.07,0,.1-.1c-.23.14-.57-.09-.8-.18l-.19,0C142.57,120.63,142.66,120.86,142.9,120.76Zm-.63,0s0,.06,0,.09a.8.8,0,0,1-.35-.08l.14-.12Zm-.32-.24-.07.14-.14-.15S141.8,120.39,141.95,120.49Z" fill="#93e054"></path><path d="M141.95,120.49c-.14-.1-.17,0-.21,0l.14.15Z" fill="#93e054"></path><path d="M142.28,120.82s0-.06,0-.09l-.21-.11-.14.12A.8.8,0,0,0,142.28,120.82Z" fill="#93e054"></path><path d="M205.66,125.93c0,.1-.17.3-.19.41s.17.15.16.21c-.05.32-.32.35-.06.6s.42.22.45-.11.3,0,.34-.35.09-.7.13-1.06c.09-.72-.73-.29-.93-.16l-.21-.08C205.23,125.77,205.61,125.66,205.66,125.93Z" fill="#93e054"></path><path d="M232.94,77.42l-1,.66a4.38,4.38,0,0,0,1.62.26l-.15-.54,1.95-.46c-.35-.24-.59-.45-1-.33a2.48,2.48,0,0,1-1.21.18,4,4,0,0,0-2.33.32l.9.24Z" fill="#93e054"></path><path d="M235.73,92.06a2.37,2.37,0,0,0,1.54.81c.53,0,1.64.38,2.11,0-.74-.51-1.35-.95-1.37-2,0-.82.76-1.51,1.22-2,.28-.33.53-.68.79-1a4.52,4.52,0,0,1,1.09-.7A7.23,7.23,0,0,1,242.8,86c.82-.25,1.64-.48,2.45-.77.41-.14,2-.43,2.11-1.16.08-.88-1.6-.5-1.9-.26a5.68,5.68,0,0,1-2.23.89,4.76,4.76,0,0,0-1.94.34,6.82,6.82,0,0,0-1.84.77A17.54,17.54,0,0,0,238,87.21l-1,1.06c-.25.28-.11.46,0,.83,0,.15-.66.54-.78.62-.44.32,0,.34-.25.76s-.62.17-.64.58C235.29,91.64,235.35,91.65,235.73,92.06Z" fill="#93e054"></path><path d="M237.2,78c-.77-.28-.79-.24-1.44.29l.93.12Z" fill="#93e054"></path><path d="M239.72,77a4.15,4.15,0,0,0-1.39-.31c-.68,0-.92-.06-1.38.49l1.34.36A2.78,2.78,0,0,0,239.72,77Z" fill="#93e054"></path><path d="M240.09,76.17l-.54-.48,1.1-.27c-.61-.11-.85-.24-1.36.12s-.81.57-1.23.83l1.13.16Z" fill="#93e054"></path><path d="M210.65,96.2a1,1,0,0,0-.25,0,1,1,0,0,0,0,.36l.65-.67C210.88,95.83,210.73,96,210.65,96.2Z" fill="#93e054"></path><path d="M214.1,93.55a.81.81,0,0,0-.32,0l.07.21C214,93.9,214.12,93.8,214.1,93.55Z" fill="#93e054"></path><path d="M214.61,93.66a2.2,2.2,0,0,0,1.55-.83c-.31,0-.31.27-.56.4a2.42,2.42,0,0,1-.79.08C214.94,93.5,214.81,93.62,214.61,93.66Z" fill="#93e054"></path><path d="M215.56,93.16c.16-.15.32-.23.34-.45-.23.12-.18.26-.46.18a1.12,1.12,0,0,0-.57,0C215,93.3,215.25,93.18,215.56,93.16Z" fill="#93e054"></path><path d="M240.47,93.23l-.39.24c.11.28,1,1,1.29.74S240.61,93.34,240.47,93.23Z" fill="#93e054"></path><path d="M248.31,88.91c-.44.05-.33.24-.37.7l1.16-.2A.68.68,0,0,0,248.31,88.91Z" fill="#93e054"></path><path d="M233.3,95.47c.22.22.9-.38,1.07-.5a1.59,1.59,0,0,0-.87-.44C233,94.74,232.84,95,233.3,95.47Z" fill="#93e054"></path><path d="M212.79,109.18c-.23-.26,0-.4.14-.61-.69-.17-.75.53-.72,1.07A1.36,1.36,0,0,1,212.79,109.18Z" fill="#93e054"></path><path d="M207.65,111.57c.29,0,.23.23.29.51.05-.33,0-.68.4-.71-.08-.05-.13-.17-.21-.22.95-.2-.6-1.05-.14-.15-.2,0-.27-.11-.17-.31a.63.63,0,0,0-.23,0,.29.29,0,0,1-.17.36C207.36,111.24,207.42,111.58,207.65,111.57Z" fill="#93e054"></path><path d="M241.05,78.54c-.15-.32-.47-.11-.71-.05a3.18,3.18,0,0,0,.33.26Z" fill="#93e054"></path><path d="M240.08,77.69c-.17,0-2,.08-1.78.57s1.38.12,1.81,0c-.07-.06-.1-.18-.17-.24l.65-.1Z" fill="#93e054"></path><path d="M240.84,77.74c.25,0,.39-.07.55.13s1-.16,1.23-.43-.35-.8-.68-.72a6.59,6.59,0,0,0-1.44.53C240.59,77.49,240.59,77.74,240.84,77.74Z" fill="#93e054"></path><path d="M243.22,77.38l1.36-.31c.42-.1.29-.27.26-.73-.16,0-.53,0-.67.05s-.13.42-.26.49c-.35.2-.72-.32-1,.21A2.1,2.1,0,0,0,243.22,77.38Z" fill="#93e054"></path><path d="M264.63,151.14a110.71,110.71,0,0,1-79.73,28.38A121.35,121.35,0,0,1,146,170.29a80.76,80.76,0,0,1-17.75-9.59,76.48,76.48,0,0,0,148.4-23.25A77.4,77.4,0,0,1,264.63,151.14Z" opacity="0.63" fill="url(#linear-gradient-2)" style="mix-blend-mode: multiply;"></path><circle cx="190.45" cy="85.36" r="52.02" fill="url(#radial-gradient)" style="mix-blend-mode: soft-light;"></circle><line x1="247.66" y1="211" x2="266.48" y2="221.87" fill="none" stroke="#0071bc" stroke-miterlimit="10"></line><line x1="143.87" y1="206.46" x2="100.16" y2="231.63" fill="none" stroke="#0071bc" stroke-miterlimit="10"></line><polyline points="71.11 180.07 98.66 195.76 85.52 202.62 117.7 221.53 160.84 246.07 172.97 238.63 205.07 257.03" fill="none" stroke="#0071bc" stroke-miterlimit="10"></polyline><polyline points="334.05 145.79 308.61 160.93 275.31 142.02" fill="none" stroke="#0071bc" stroke-miterlimit="10"></polyline><polyline points="308.61 160.93 319.2 166.66 294.21 181.19 315.41 193.22" fill="none" stroke="#0071bc" stroke-miterlimit="10"></polyline><path d="M201.86,228.76a8.59,8.59,0,0,1-1.28-.1c-3.17-.48-6.35-2.78-8.73-6.31-8.8-13.06-10.49-28.67-12.12-43.77q-.19-1.77-.38-3.52c-3.39-30.44-6.47-60.23-7-90l0-1.74c-.23-10.34-.7-31.85,7.89-40.17a11.69,11.69,0,0,1,9.11-3.34c6.92.38,11.53,16,12,17.78l-1.92.54c-1.26-4.45-5.56-16.07-10.22-16.32a9.62,9.62,0,0,0-7.61,2.77c-8,7.71-7.49,29.42-7.28,38.69l0,1.75c.53,29.65,3.61,59.39,7,89.79q.2,1.76.39,3.53c1.61,14.85,3.27,30.21,11.79,42.87,2,3,4.79,5.07,7.37,5.45a7.13,7.13,0,0,0,5.66-1.76c2.92-2.36,2.85-11,2.57-14.18l2-.17c.11,1.27,1,12.47-3.31,15.92A9.35,9.35,0,0,1,201.86,228.76Z" fill="#3c3c3d"></path><path d="M133.25,204.62a10.9,10.9,0,0,1-5-1.14c-2.69-1.35-3.62-3.92-2.61-7.23,1.8-5.94,7.07-11,11.29-15.11.47-.46.95-.91,1.43-1.35l1.35,1.48c-.47.43-.93.87-1.39,1.31-4.06,3.93-9.11,8.82-10.77,14.26-1.07,3.52.94,4.53,1.6,4.86,3.65,1.83,8.45.94,14.27-2.66,10.09-6.24,19-14.61,27.58-22.71,10.82-10.18,22.2-21.79,34.81-35.5,12.27-13.34,23.21-25.95,33.45-38.55,8-9.88,16.46-20.49,23.56-31.87l.56-.87C265,67.17,269.65,60,269,56.94a1.25,1.25,0,0,0-.54-.85c-11.62-7.45-33.14,10.36-33.36,10.54l-1.28-1.53c.93-.78,22.87-18.93,35.72-10.69a3.25,3.25,0,0,1,1.42,2.12c.73,3.41-2.55,9-5.85,14.11l-.54.83c-7.16,11.49-15.63,22.15-23.7,32.08-10.26,12.63-21.23,25.27-33.53,38.64-12.64,13.74-24.06,25.39-34.91,35.6-8.67,8.17-17.64,16.61-27.9,23C140.33,203.32,136.56,204.62,133.25,204.62Z" fill="#3c3c3d"></path><path d="M275.67,199a36.09,36.09,0,0,1-6.28-.7l-.21,0c-9.59-1.72-18.09-6.69-26.31-11.5L241,185.66c-26.75-15.57-51.75-34.44-70.54-49.14-12.14-9.5-22.56-18.12-31.86-26.34-.86-.76-2.37-1.92-4.11-3.26-9.61-7.4-25.69-19.77-19.9-27.92,3.57-5,14.39-2.76,18.46-1.91a59,59,0,0,1,11.71,3.53L144,82.47a57.19,57.19,0,0,0-11.35-3.42c-3.36-.7-13.6-2.85-16.42,1.11-4.68,6.58,11.64,19.14,19.48,25.18,1.85,1.42,3.3,2.54,4.22,3.35,9.26,8.2,19.65,16.78,31.76,26.26,18.74,14.66,43.67,33.47,70.31,49l1.83,1.07c8.07,4.72,16.42,9.6,25.66,11.25l.22,0c2.67.48,9.75,1.76,11-1.29,1.83-4.54-8.27-12.65-12.58-16.11-.62-.5-1.15-.93-1.56-1.27a8.77,8.77,0,0,1-.92-.84l-.85-.65,1.21-1.6a6.91,6.91,0,0,1,1.21,1l.65.55c.4.34.92.76,1.53,1.24,5.44,4.37,15.56,12.49,13.19,18.41C281.56,198.28,278.64,199,275.67,199Z" fill="#3c3c3d"></path><path d="M132.74,98.87C166,128,200,153,239,180c3,2,6,3,9,6,1,1,3,1,5.12,2.47" fill="none" stroke="#e6e6e6" stroke-miterlimit="10" stroke-width="3" style="mix-blend-mode: multiply;"></path><circle cx="270.05" cy="57.88" r="5.99" fill="#ef9a29"></circle><circle cx="126.28" cy="99.07" r="5.99" fill="#ef9a29"></circle><circle cx="182.82" cy="197.97" r="5.99" fill="#ef9a29"></circle></g></g></svg>